G04 #@! TF.GenerationSoftware,KiCad,Pcbnew,(6.0.5)*
G04 #@! TF.CreationDate,2022-07-10T22:30:16+08:00*
G04 #@! TF.ProjectId,wacca_ws2813,77616363-615f-4777-9332-3831332e6b69,rev?*
G04 #@! TF.SameCoordinates,Original*
G04 #@! TF.FileFunction,Legend,Top*
G04 #@! TF.FilePolarity,Positive*
%FSLAX46Y46*%
G04 Gerber Fmt 4.6, Leading zero omitted, Abs format (unit mm)*
G04 Created by KiCad (PCBNEW (6.0.5)) date 2022-07-10 22:30:16*
%MOMM*%
%LPD*%
G01*
G04 APERTURE LIST*
G04 Aperture macros list*
%AMRoundRect*
0 Rectangle with rounded corners*
0 $1 Rounding radius*
0 $2 $3 $4 $5 $6 $7 $8 $9 X,Y pos of 4 corners*
0 Add a 4 corners polygon primitive as box body*
4,1,4,$2,$3,$4,$5,$6,$7,$8,$9,$2,$3,0*
0 Add four circle primitives for the rounded corners*
1,1,$1+$1,$2,$3*
1,1,$1+$1,$4,$5*
1,1,$1+$1,$6,$7*
1,1,$1+$1,$8,$9*
0 Add four rect primitives between the rounded corners*
20,1,$1+$1,$2,$3,$4,$5,0*
20,1,$1+$1,$4,$5,$6,$7,0*
20,1,$1+$1,$6,$7,$8,$9,0*
20,1,$1+$1,$8,$9,$2,$3,0*%
G04 Aperture macros list end*
%ADD10C,0.500000*%
%ADD11C,0.150000*%
%ADD12C,0.120000*%
%ADD13R,1.000000X1.500000*%
%ADD14RoundRect,0.250000X0.450000X-0.350000X0.450000X0.350000X-0.450000X0.350000X-0.450000X-0.350000X0*%
%ADD15RoundRect,0.250000X0.475000X-0.337500X0.475000X0.337500X-0.475000X0.337500X-0.475000X-0.337500X0*%
%ADD16R,0.650000X2.000000*%
%ADD17RoundRect,0.250000X-0.350000X-0.450000X0.350000X-0.450000X0.350000X0.450000X-0.350000X0.450000X0*%
%ADD18C,3.200000*%
%ADD19R,1.600000X1.600000*%
%ADD20C,1.600000*%
%ADD21RoundRect,0.250000X-0.725000X0.600000X-0.725000X-0.600000X0.725000X-0.600000X0.725000X0.600000X0*%
%ADD22O,1.950000X1.700000*%
G04 APERTURE END LIST*
D10*
X85552380Y-107604761D02*
X85552380Y-105604761D01*
X86504761Y-107604761D02*
X86504761Y-105604761D01*
X87647619Y-107604761D01*
X87647619Y-105604761D01*
X222980952Y-107504761D02*
X222980952Y-105504761D01*
X223742857Y-105504761D01*
X223933333Y-105600000D01*
X224028571Y-105695238D01*
X224123809Y-105885714D01*
X224123809Y-106171428D01*
X224028571Y-106361904D01*
X223933333Y-106457142D01*
X223742857Y-106552380D01*
X222980952Y-106552380D01*
X225361904Y-105504761D02*
X225742857Y-105504761D01*
X225933333Y-105600000D01*
X226123809Y-105790476D01*
X226219047Y-106171428D01*
X226219047Y-106838095D01*
X226123809Y-107219047D01*
X225933333Y-107409523D01*
X225742857Y-107504761D01*
X225361904Y-107504761D01*
X225171428Y-107409523D01*
X224980952Y-107219047D01*
X224885714Y-106838095D01*
X224885714Y-106171428D01*
X224980952Y-105790476D01*
X225171428Y-105600000D01*
X225361904Y-105504761D01*
X226885714Y-105504761D02*
X227361904Y-107504761D01*
X227742857Y-106076190D01*
X228123809Y-107504761D01*
X228600000Y-105504761D01*
X229361904Y-106457142D02*
X230028571Y-106457142D01*
X230314285Y-107504761D02*
X229361904Y-107504761D01*
X229361904Y-105504761D01*
X230314285Y-105504761D01*
X232314285Y-107504761D02*
X231647619Y-106552380D01*
X231171428Y-107504761D02*
X231171428Y-105504761D01*
X231933333Y-105504761D01*
X232123809Y-105600000D01*
X232219047Y-105695238D01*
X232314285Y-105885714D01*
X232314285Y-106171428D01*
X232219047Y-106361904D01*
X232123809Y-106457142D01*
X231933333Y-106552380D01*
X231171428Y-106552380D01*
X62100000Y-105604761D02*
X62480952Y-105604761D01*
X62671428Y-105700000D01*
X62861904Y-105890476D01*
X62957142Y-106271428D01*
X62957142Y-106938095D01*
X62861904Y-107319047D01*
X62671428Y-107509523D01*
X62480952Y-107604761D01*
X62100000Y-107604761D01*
X61909523Y-107509523D01*
X61719047Y-107319047D01*
X61623809Y-106938095D01*
X61623809Y-106271428D01*
X61719047Y-105890476D01*
X61909523Y-105700000D01*
X62100000Y-105604761D01*
X63814285Y-105604761D02*
X63814285Y-107223809D01*
X63909523Y-107414285D01*
X64004761Y-107509523D01*
X64195238Y-107604761D01*
X64576190Y-107604761D01*
X64766666Y-107509523D01*
X64861904Y-107414285D01*
X64957142Y-107223809D01*
X64957142Y-105604761D01*
X65623809Y-105604761D02*
X66766666Y-105604761D01*
X66195238Y-107604761D02*
X66195238Y-105604761D01*
D11*
X160152380Y-103338095D02*
X159152380Y-103338095D01*
X159152380Y-103100000D01*
X159200000Y-102957142D01*
X159295238Y-102861904D01*
X159390476Y-102814285D01*
X159580952Y-102766666D01*
X159723809Y-102766666D01*
X159914285Y-102814285D01*
X160009523Y-102861904D01*
X160104761Y-102957142D01*
X160152380Y-103100000D01*
X160152380Y-103338095D01*
X159485714Y-101909523D02*
X160152380Y-101909523D01*
X159104761Y-102147619D02*
X159819047Y-102385714D01*
X159819047Y-101766666D01*
X235252380Y-96666666D02*
X234776190Y-97000000D01*
X235252380Y-97238095D02*
X234252380Y-97238095D01*
X234252380Y-96857142D01*
X234300000Y-96761904D01*
X234347619Y-96714285D01*
X234442857Y-96666666D01*
X234585714Y-96666666D01*
X234680952Y-96714285D01*
X234728571Y-96761904D01*
X234776190Y-96857142D01*
X234776190Y-97238095D01*
X235252380Y-95714285D02*
X235252380Y-96285714D01*
X235252380Y-96000000D02*
X234252380Y-96000000D01*
X234395238Y-96095238D01*
X234490476Y-96190476D01*
X234538095Y-96285714D01*
X130057142Y-102766666D02*
X130104761Y-102814285D01*
X130152380Y-102957142D01*
X130152380Y-103052380D01*
X130104761Y-103195238D01*
X130009523Y-103290476D01*
X129914285Y-103338095D01*
X129723809Y-103385714D01*
X129580952Y-103385714D01*
X129390476Y-103338095D01*
X129295238Y-103290476D01*
X129200000Y-103195238D01*
X129152380Y-103052380D01*
X129152380Y-102957142D01*
X129200000Y-102814285D01*
X129247619Y-102766666D01*
X129152380Y-101861904D02*
X129152380Y-102338095D01*
X129628571Y-102385714D01*
X129580952Y-102338095D01*
X129533333Y-102242857D01*
X129533333Y-102004761D01*
X129580952Y-101909523D01*
X129628571Y-101861904D01*
X129723809Y-101814285D01*
X129961904Y-101814285D01*
X130057142Y-101861904D01*
X130104761Y-101909523D01*
X130152380Y-102004761D01*
X130152380Y-102242857D01*
X130104761Y-102338095D01*
X130057142Y-102385714D01*
X55102380Y-102061904D02*
X55911904Y-102061904D01*
X56007142Y-102014285D01*
X56054761Y-101966666D01*
X56102380Y-101871428D01*
X56102380Y-101680952D01*
X56054761Y-101585714D01*
X56007142Y-101538095D01*
X55911904Y-101490476D01*
X55102380Y-101490476D01*
X55197619Y-101061904D02*
X55150000Y-101014285D01*
X55102380Y-100919047D01*
X55102380Y-100680952D01*
X55150000Y-100585714D01*
X55197619Y-100538095D01*
X55292857Y-100490476D01*
X55388095Y-100490476D01*
X55530952Y-100538095D01*
X56102380Y-101109523D01*
X56102380Y-100490476D01*
X128352380Y-100238095D02*
X127352380Y-100238095D01*
X127352380Y-100000000D01*
X127400000Y-99857142D01*
X127495238Y-99761904D01*
X127590476Y-99714285D01*
X127780952Y-99666666D01*
X127923809Y-99666666D01*
X128114285Y-99714285D01*
X128209523Y-99761904D01*
X128304761Y-99857142D01*
X128352380Y-100000000D01*
X128352380Y-100238095D01*
X127352380Y-98761904D02*
X127352380Y-99238095D01*
X127828571Y-99285714D01*
X127780952Y-99238095D01*
X127733333Y-99142857D01*
X127733333Y-98904761D01*
X127780952Y-98809523D01*
X127828571Y-98761904D01*
X127923809Y-98714285D01*
X128161904Y-98714285D01*
X128257142Y-98761904D01*
X128304761Y-98809523D01*
X128352380Y-98904761D01*
X128352380Y-99142857D01*
X128304761Y-99238095D01*
X128257142Y-99285714D01*
X54133333Y-96352380D02*
X53800000Y-95876190D01*
X53561904Y-96352380D02*
X53561904Y-95352380D01*
X53942857Y-95352380D01*
X54038095Y-95400000D01*
X54085714Y-95447619D01*
X54133333Y-95542857D01*
X54133333Y-95685714D01*
X54085714Y-95780952D01*
X54038095Y-95828571D01*
X53942857Y-95876190D01*
X53561904Y-95876190D01*
X54514285Y-95447619D02*
X54561904Y-95400000D01*
X54657142Y-95352380D01*
X54895238Y-95352380D01*
X54990476Y-95400000D01*
X55038095Y-95447619D01*
X55085714Y-95542857D01*
X55085714Y-95638095D01*
X55038095Y-95780952D01*
X54466666Y-96352380D01*
X55085714Y-96352380D01*
X75152380Y-100138095D02*
X74152380Y-100138095D01*
X74152380Y-99900000D01*
X74200000Y-99757142D01*
X74295238Y-99661904D01*
X74390476Y-99614285D01*
X74580952Y-99566666D01*
X74723809Y-99566666D01*
X74914285Y-99614285D01*
X75009523Y-99661904D01*
X75104761Y-99757142D01*
X75152380Y-99900000D01*
X75152380Y-100138095D01*
X74152380Y-99233333D02*
X74152380Y-98566666D01*
X75152380Y-98995238D01*
X239852380Y-96061904D02*
X240661904Y-96061904D01*
X240757142Y-96014285D01*
X240804761Y-95966666D01*
X240852380Y-95871428D01*
X240852380Y-95680952D01*
X240804761Y-95585714D01*
X240757142Y-95538095D01*
X240661904Y-95490476D01*
X239852380Y-95490476D01*
X240852380Y-94490476D02*
X240852380Y-95061904D01*
X240852380Y-94776190D02*
X239852380Y-94776190D01*
X239995238Y-94871428D01*
X240090476Y-94966666D01*
X240138095Y-95061904D01*
X98252380Y-100238095D02*
X97252380Y-100238095D01*
X97252380Y-100000000D01*
X97300000Y-99857142D01*
X97395238Y-99761904D01*
X97490476Y-99714285D01*
X97680952Y-99666666D01*
X97823809Y-99666666D01*
X98014285Y-99714285D01*
X98109523Y-99761904D01*
X98204761Y-99857142D01*
X98252380Y-100000000D01*
X98252380Y-100238095D01*
X97252380Y-98809523D02*
X97252380Y-99000000D01*
X97300000Y-99095238D01*
X97347619Y-99142857D01*
X97490476Y-99238095D01*
X97680952Y-99285714D01*
X98061904Y-99285714D01*
X98157142Y-99238095D01*
X98204761Y-99190476D01*
X98252380Y-99095238D01*
X98252380Y-98904761D01*
X98204761Y-98809523D01*
X98157142Y-98761904D01*
X98061904Y-98714285D01*
X97823809Y-98714285D01*
X97728571Y-98761904D01*
X97680952Y-98809523D01*
X97633333Y-98904761D01*
X97633333Y-99095238D01*
X97680952Y-99190476D01*
X97728571Y-99238095D01*
X97823809Y-99285714D01*
X190252380Y-103338095D02*
X189252380Y-103338095D01*
X189252380Y-103100000D01*
X189300000Y-102957142D01*
X189395238Y-102861904D01*
X189490476Y-102814285D01*
X189680952Y-102766666D01*
X189823809Y-102766666D01*
X190014285Y-102814285D01*
X190109523Y-102861904D01*
X190204761Y-102957142D01*
X190252380Y-103100000D01*
X190252380Y-103338095D01*
X189252380Y-102433333D02*
X189252380Y-101814285D01*
X189633333Y-102147619D01*
X189633333Y-102004761D01*
X189680952Y-101909523D01*
X189728571Y-101861904D01*
X189823809Y-101814285D01*
X190061904Y-101814285D01*
X190157142Y-101861904D01*
X190204761Y-101909523D01*
X190252380Y-102004761D01*
X190252380Y-102290476D01*
X190204761Y-102385714D01*
X190157142Y-102433333D01*
X53857142Y-102466666D02*
X53904761Y-102514285D01*
X53952380Y-102657142D01*
X53952380Y-102752380D01*
X53904761Y-102895238D01*
X53809523Y-102990476D01*
X53714285Y-103038095D01*
X53523809Y-103085714D01*
X53380952Y-103085714D01*
X53190476Y-103038095D01*
X53095238Y-102990476D01*
X53000000Y-102895238D01*
X52952380Y-102752380D01*
X52952380Y-102657142D01*
X53000000Y-102514285D01*
X53047619Y-102466666D01*
X53380952Y-101895238D02*
X53333333Y-101990476D01*
X53285714Y-102038095D01*
X53190476Y-102085714D01*
X53142857Y-102085714D01*
X53047619Y-102038095D01*
X53000000Y-101990476D01*
X52952380Y-101895238D01*
X52952380Y-101704761D01*
X53000000Y-101609523D01*
X53047619Y-101561904D01*
X53142857Y-101514285D01*
X53190476Y-101514285D01*
X53285714Y-101561904D01*
X53333333Y-101609523D01*
X53380952Y-101704761D01*
X53380952Y-101895238D01*
X53428571Y-101990476D01*
X53476190Y-102038095D01*
X53571428Y-102085714D01*
X53761904Y-102085714D01*
X53857142Y-102038095D01*
X53904761Y-101990476D01*
X53952380Y-101895238D01*
X53952380Y-101704761D01*
X53904761Y-101609523D01*
X53857142Y-101561904D01*
X53761904Y-101514285D01*
X53571428Y-101514285D01*
X53476190Y-101561904D01*
X53428571Y-101609523D01*
X53380952Y-101704761D01*
X253357142Y-102666666D02*
X253404761Y-102714285D01*
X253452380Y-102857142D01*
X253452380Y-102952380D01*
X253404761Y-103095238D01*
X253309523Y-103190476D01*
X253214285Y-103238095D01*
X253023809Y-103285714D01*
X252880952Y-103285714D01*
X252690476Y-103238095D01*
X252595238Y-103190476D01*
X252500000Y-103095238D01*
X252452380Y-102952380D01*
X252452380Y-102857142D01*
X252500000Y-102714285D01*
X252547619Y-102666666D01*
X253452380Y-101714285D02*
X253452380Y-102285714D01*
X253452380Y-102000000D02*
X252452380Y-102000000D01*
X252595238Y-102095238D01*
X252690476Y-102190476D01*
X252738095Y-102285714D01*
X223352380Y-103338095D02*
X222352380Y-103338095D01*
X222352380Y-103100000D01*
X222400000Y-102957142D01*
X222495238Y-102861904D01*
X222590476Y-102814285D01*
X222780952Y-102766666D01*
X222923809Y-102766666D01*
X223114285Y-102814285D01*
X223209523Y-102861904D01*
X223304761Y-102957142D01*
X223352380Y-103100000D01*
X223352380Y-103338095D01*
X222447619Y-102385714D02*
X222400000Y-102338095D01*
X222352380Y-102242857D01*
X222352380Y-102004761D01*
X222400000Y-101909523D01*
X222447619Y-101861904D01*
X222542857Y-101814285D01*
X222638095Y-101814285D01*
X222780952Y-101861904D01*
X223352380Y-102433333D01*
X223352380Y-101814285D01*
X188477142Y-99666666D02*
X188524761Y-99714285D01*
X188572380Y-99857142D01*
X188572380Y-99952380D01*
X188524761Y-100095238D01*
X188429523Y-100190476D01*
X188334285Y-100238095D01*
X188143809Y-100285714D01*
X188000952Y-100285714D01*
X187810476Y-100238095D01*
X187715238Y-100190476D01*
X187620000Y-100095238D01*
X187572380Y-99952380D01*
X187572380Y-99857142D01*
X187620000Y-99714285D01*
X187667619Y-99666666D01*
X187572380Y-99333333D02*
X187572380Y-98714285D01*
X187953333Y-99047619D01*
X187953333Y-98904761D01*
X188000952Y-98809523D01*
X188048571Y-98761904D01*
X188143809Y-98714285D01*
X188381904Y-98714285D01*
X188477142Y-98761904D01*
X188524761Y-98809523D01*
X188572380Y-98904761D01*
X188572380Y-99190476D01*
X188524761Y-99285714D01*
X188477142Y-99333333D01*
X251752380Y-100138095D02*
X250752380Y-100138095D01*
X250752380Y-99900000D01*
X250800000Y-99757142D01*
X250895238Y-99661904D01*
X250990476Y-99614285D01*
X251180952Y-99566666D01*
X251323809Y-99566666D01*
X251514285Y-99614285D01*
X251609523Y-99661904D01*
X251704761Y-99757142D01*
X251752380Y-99900000D01*
X251752380Y-100138095D01*
X251752380Y-98614285D02*
X251752380Y-99185714D01*
X251752380Y-98900000D02*
X250752380Y-98900000D01*
X250895238Y-98995238D01*
X250990476Y-99090476D01*
X251038095Y-99185714D01*
X99857142Y-102766666D02*
X99904761Y-102814285D01*
X99952380Y-102957142D01*
X99952380Y-103052380D01*
X99904761Y-103195238D01*
X99809523Y-103290476D01*
X99714285Y-103338095D01*
X99523809Y-103385714D01*
X99380952Y-103385714D01*
X99190476Y-103338095D01*
X99095238Y-103290476D01*
X99000000Y-103195238D01*
X98952380Y-103052380D01*
X98952380Y-102957142D01*
X99000000Y-102814285D01*
X99047619Y-102766666D01*
X98952380Y-101909523D02*
X98952380Y-102100000D01*
X99000000Y-102195238D01*
X99047619Y-102242857D01*
X99190476Y-102338095D01*
X99380952Y-102385714D01*
X99761904Y-102385714D01*
X99857142Y-102338095D01*
X99904761Y-102290476D01*
X99952380Y-102195238D01*
X99952380Y-102004761D01*
X99904761Y-101909523D01*
X99857142Y-101861904D01*
X99761904Y-101814285D01*
X99523809Y-101814285D01*
X99428571Y-101861904D01*
X99380952Y-101909523D01*
X99333333Y-102004761D01*
X99333333Y-102195238D01*
X99380952Y-102290476D01*
X99428571Y-102338095D01*
X99523809Y-102385714D01*
X37952380Y-100238095D02*
X36952380Y-100238095D01*
X36952380Y-100000000D01*
X37000000Y-99857142D01*
X37095238Y-99761904D01*
X37190476Y-99714285D01*
X37380952Y-99666666D01*
X37523809Y-99666666D01*
X37714285Y-99714285D01*
X37809523Y-99761904D01*
X37904761Y-99857142D01*
X37952380Y-100000000D01*
X37952380Y-100238095D01*
X37380952Y-99095238D02*
X37333333Y-99190476D01*
X37285714Y-99238095D01*
X37190476Y-99285714D01*
X37142857Y-99285714D01*
X37047619Y-99238095D01*
X37000000Y-99190476D01*
X36952380Y-99095238D01*
X36952380Y-98904761D01*
X37000000Y-98809523D01*
X37047619Y-98761904D01*
X37142857Y-98714285D01*
X37190476Y-98714285D01*
X37285714Y-98761904D01*
X37333333Y-98809523D01*
X37380952Y-98904761D01*
X37380952Y-99095238D01*
X37428571Y-99190476D01*
X37476190Y-99238095D01*
X37571428Y-99285714D01*
X37761904Y-99285714D01*
X37857142Y-99238095D01*
X37904761Y-99190476D01*
X37952380Y-99095238D01*
X37952380Y-98904761D01*
X37904761Y-98809523D01*
X37857142Y-98761904D01*
X37761904Y-98714285D01*
X37571428Y-98714285D01*
X37476190Y-98761904D01*
X37428571Y-98809523D01*
X37380952Y-98904761D01*
X76757142Y-102566666D02*
X76804761Y-102614285D01*
X76852380Y-102757142D01*
X76852380Y-102852380D01*
X76804761Y-102995238D01*
X76709523Y-103090476D01*
X76614285Y-103138095D01*
X76423809Y-103185714D01*
X76280952Y-103185714D01*
X76090476Y-103138095D01*
X75995238Y-103090476D01*
X75900000Y-102995238D01*
X75852380Y-102852380D01*
X75852380Y-102757142D01*
X75900000Y-102614285D01*
X75947619Y-102566666D01*
X75852380Y-102233333D02*
X75852380Y-101566666D01*
X76852380Y-101995238D01*
X158377142Y-99666666D02*
X158424761Y-99714285D01*
X158472380Y-99857142D01*
X158472380Y-99952380D01*
X158424761Y-100095238D01*
X158329523Y-100190476D01*
X158234285Y-100238095D01*
X158043809Y-100285714D01*
X157900952Y-100285714D01*
X157710476Y-100238095D01*
X157615238Y-100190476D01*
X157520000Y-100095238D01*
X157472380Y-99952380D01*
X157472380Y-99857142D01*
X157520000Y-99714285D01*
X157567619Y-99666666D01*
X157805714Y-98809523D02*
X158472380Y-98809523D01*
X157424761Y-99047619D02*
X158139047Y-99285714D01*
X158139047Y-98666666D01*
X221577142Y-99666666D02*
X221624761Y-99714285D01*
X221672380Y-99857142D01*
X221672380Y-99952380D01*
X221624761Y-100095238D01*
X221529523Y-100190476D01*
X221434285Y-100238095D01*
X221243809Y-100285714D01*
X221100952Y-100285714D01*
X220910476Y-100238095D01*
X220815238Y-100190476D01*
X220720000Y-100095238D01*
X220672380Y-99952380D01*
X220672380Y-99857142D01*
X220720000Y-99714285D01*
X220767619Y-99666666D01*
X220767619Y-99285714D02*
X220720000Y-99238095D01*
X220672380Y-99142857D01*
X220672380Y-98904761D01*
X220720000Y-98809523D01*
X220767619Y-98761904D01*
X220862857Y-98714285D01*
X220958095Y-98714285D01*
X221100952Y-98761904D01*
X221672380Y-99333333D01*
X221672380Y-98714285D01*
D12*
X157250000Y-95850000D02*
X157250000Y-103150000D01*
X156100000Y-95850000D02*
X157250000Y-95850000D01*
X151750000Y-95850000D02*
X151750000Y-103150000D01*
X234065000Y-99627064D02*
X234065000Y-99172936D01*
X235535000Y-99627064D02*
X235535000Y-99172936D01*
X128965000Y-99761252D02*
X128965000Y-99238748D01*
X130435000Y-99761252D02*
X130435000Y-99238748D01*
X56600000Y-100350000D02*
X57600000Y-100350000D01*
X56590000Y-100370000D02*
X56590000Y-102800000D01*
X59650000Y-100350000D02*
X59650000Y-102200000D01*
X58600000Y-100350000D02*
X59650000Y-100350000D01*
X121650000Y-95850000D02*
X121650000Y-103150000D01*
X126000000Y-95850000D02*
X127150000Y-95850000D01*
X127150000Y-95850000D02*
X127150000Y-103150000D01*
X56972936Y-95065000D02*
X57427064Y-95065000D01*
X56972936Y-96535000D02*
X57427064Y-96535000D01*
X68450000Y-95750000D02*
X68450000Y-103050000D01*
X73950000Y-95750000D02*
X73950000Y-103050000D01*
X72800000Y-95750000D02*
X73950000Y-95750000D01*
X241950000Y-98450000D02*
X241950000Y-100300000D01*
X240900000Y-98450000D02*
X241950000Y-98450000D01*
X238900000Y-98450000D02*
X239900000Y-98450000D01*
X238890000Y-98470000D02*
X238890000Y-100900000D01*
X95900000Y-95850000D02*
X97050000Y-95850000D01*
X97050000Y-95850000D02*
X97050000Y-103150000D01*
X91550000Y-95850000D02*
X91550000Y-103150000D01*
X186200000Y-95850000D02*
X187350000Y-95850000D01*
X181850000Y-95850000D02*
X181850000Y-103150000D01*
X187350000Y-95850000D02*
X187350000Y-103150000D01*
X52665000Y-99561252D02*
X52665000Y-99038748D01*
X54135000Y-99561252D02*
X54135000Y-99038748D01*
X252265000Y-99661252D02*
X252265000Y-99138748D01*
X253735000Y-99661252D02*
X253735000Y-99138748D01*
X214950000Y-95850000D02*
X214950000Y-103150000D01*
X219300000Y-95850000D02*
X220450000Y-95850000D01*
X220450000Y-95850000D02*
X220450000Y-103150000D01*
X189065000Y-99761252D02*
X189065000Y-99238748D01*
X190535000Y-99761252D02*
X190535000Y-99238748D01*
X245050000Y-95750000D02*
X245050000Y-103050000D01*
X250550000Y-95750000D02*
X250550000Y-103050000D01*
X249400000Y-95750000D02*
X250550000Y-95750000D01*
X98765000Y-99861252D02*
X98765000Y-99338748D01*
X100235000Y-99861252D02*
X100235000Y-99338748D01*
X38250000Y-95850000D02*
X38250000Y-103150000D01*
X42600000Y-95850000D02*
X43750000Y-95850000D01*
X43750000Y-95850000D02*
X43750000Y-103150000D01*
X77135000Y-99661252D02*
X77135000Y-99138748D01*
X75665000Y-99661252D02*
X75665000Y-99138748D01*
X158965000Y-99761252D02*
X158965000Y-99238748D01*
X160435000Y-99761252D02*
X160435000Y-99238748D01*
X223635000Y-99761252D02*
X223635000Y-99238748D01*
X222165000Y-99761252D02*
X222165000Y-99238748D01*
%LPC*%
D13*
X156100000Y-97050000D03*
X154500000Y-97050000D03*
X152900000Y-97050000D03*
X152900000Y-101950000D03*
X154500000Y-101950000D03*
X156100000Y-101950000D03*
D14*
X234800000Y-100400000D03*
X234800000Y-98400000D03*
D15*
X129700000Y-100537500D03*
X129700000Y-98462500D03*
D16*
X57150000Y-103010000D03*
X59050000Y-103010000D03*
X58100000Y-99590000D03*
D13*
X126000000Y-97050000D03*
X124400000Y-97050000D03*
X122800000Y-97050000D03*
X122800000Y-101950000D03*
X124400000Y-101950000D03*
X126000000Y-101950000D03*
D17*
X56200000Y-95800000D03*
X58200000Y-95800000D03*
D13*
X72800000Y-96950000D03*
X71200000Y-96950000D03*
X69600000Y-96950000D03*
X69600000Y-101850000D03*
X71200000Y-101850000D03*
X72800000Y-101850000D03*
D16*
X239450000Y-101110000D03*
X241350000Y-101110000D03*
X240400000Y-97690000D03*
D13*
X95900000Y-97050000D03*
X94300000Y-97050000D03*
X92700000Y-97050000D03*
X92700000Y-101950000D03*
X94300000Y-101950000D03*
X95900000Y-101950000D03*
X186200000Y-97050000D03*
X184600000Y-97050000D03*
X183000000Y-97050000D03*
X183000000Y-101950000D03*
X184600000Y-101950000D03*
X186200000Y-101950000D03*
D15*
X53400000Y-100337500D03*
X53400000Y-98262500D03*
D18*
X206300000Y-99400000D03*
D15*
X253000000Y-100437500D03*
X253000000Y-98362500D03*
D18*
X48322695Y-99400000D03*
D13*
X219300000Y-97050000D03*
X217700000Y-97050000D03*
X216100000Y-97050000D03*
X216100000Y-101950000D03*
X217700000Y-101950000D03*
X219300000Y-101950000D03*
D15*
X189800000Y-100537500D03*
X189800000Y-98462500D03*
D13*
X249400000Y-96950000D03*
X247800000Y-96950000D03*
X246200000Y-96950000D03*
X246200000Y-101850000D03*
X247800000Y-101850000D03*
X249400000Y-101850000D03*
D15*
X99500000Y-100637500D03*
X99500000Y-98562500D03*
D13*
X42600000Y-97050000D03*
X41000000Y-97050000D03*
X39400000Y-97050000D03*
X39400000Y-101950000D03*
X41000000Y-101950000D03*
X42600000Y-101950000D03*
D15*
X76400000Y-100437500D03*
X76400000Y-98362500D03*
X159700000Y-100537500D03*
X159700000Y-98462500D03*
X222900000Y-100537500D03*
X222900000Y-98462500D03*
D19*
X197700000Y-100700000D03*
D20*
X197700000Y-98200000D03*
D21*
X227500000Y-95750000D03*
D22*
X227500000Y-98250000D03*
X227500000Y-100750000D03*
X227500000Y-103250000D03*
D21*
X64100000Y-96905000D03*
D22*
X64100000Y-99405000D03*
X64100000Y-101905000D03*
D21*
X86600000Y-96795000D03*
D22*
X86600000Y-99295000D03*
X86600000Y-101795000D03*
M02*
