G04 #@! TF.GenerationSoftware,KiCad,Pcbnew,(6.0.5)*
G04 #@! TF.CreationDate,2022-07-10T22:30:16+08:00*
G04 #@! TF.ProjectId,wacca_ws2813,77616363-615f-4777-9332-3831332e6b69,rev?*
G04 #@! TF.SameCoordinates,Original*
G04 #@! TF.FileFunction,Legend,Bot*
G04 #@! TF.FilePolarity,Positive*
%FSLAX46Y46*%
G04 Gerber Fmt 4.6, Leading zero omitted, Abs format (unit mm)*
G04 Created by KiCad (PCBNEW (6.0.5)) date 2022-07-10 22:30:16*
%MOMM*%
%LPD*%
G01*
G04 APERTURE LIST*
G04 Aperture macros list*
%AMRoundRect*
0 Rectangle with rounded corners*
0 $1 Rounding radius*
0 $2 $3 $4 $5 $6 $7 $8 $9 X,Y pos of 4 corners*
0 Add a 4 corners polygon primitive as box body*
4,1,4,$2,$3,$4,$5,$6,$7,$8,$9,$2,$3,0*
0 Add four circle primitives for the rounded corners*
1,1,$1+$1,$2,$3*
1,1,$1+$1,$4,$5*
1,1,$1+$1,$6,$7*
1,1,$1+$1,$8,$9*
0 Add four rect primitives between the rounded corners*
20,1,$1+$1,$2,$3,$4,$5,0*
20,1,$1+$1,$4,$5,$6,$7,0*
20,1,$1+$1,$6,$7,$8,$9,0*
20,1,$1+$1,$8,$9,$2,$3,0*%
G04 Aperture macros list end*
%ADD10C,0.150000*%
%ADD11C,0.500000*%
%ADD12C,0.120000*%
%ADD13C,3.200000*%
%ADD14R,1.600000X1.600000*%
%ADD15C,1.600000*%
%ADD16RoundRect,0.250000X-0.725000X0.600000X-0.725000X-0.600000X0.725000X-0.600000X0.725000X0.600000X0*%
%ADD17O,1.950000X1.700000*%
G04 APERTURE END LIST*
D10*
X255604761Y-106852380D02*
X255604761Y-107566666D01*
X255652380Y-107709523D01*
X255747619Y-107804761D01*
X255890476Y-107852380D01*
X255985714Y-107852380D01*
X254652380Y-107852380D02*
X255128571Y-107852380D01*
X255128571Y-106852380D01*
X253747619Y-107757142D02*
X253795238Y-107804761D01*
X253938095Y-107852380D01*
X254033333Y-107852380D01*
X254176190Y-107804761D01*
X254271428Y-107709523D01*
X254319047Y-107614285D01*
X254366666Y-107423809D01*
X254366666Y-107280952D01*
X254319047Y-107090476D01*
X254271428Y-106995238D01*
X254176190Y-106900000D01*
X254033333Y-106852380D01*
X253938095Y-106852380D01*
X253795238Y-106900000D01*
X253747619Y-106947619D01*
X253033333Y-106852380D02*
X253033333Y-107566666D01*
X253080952Y-107709523D01*
X253176190Y-107804761D01*
X253319047Y-107852380D01*
X253414285Y-107852380D01*
X252080952Y-107852380D02*
X252557142Y-107852380D01*
X252557142Y-106852380D01*
X251176190Y-107757142D02*
X251223809Y-107804761D01*
X251366666Y-107852380D01*
X251461904Y-107852380D01*
X251604761Y-107804761D01*
X251700000Y-107709523D01*
X251747619Y-107614285D01*
X251795238Y-107423809D01*
X251795238Y-107280952D01*
X251747619Y-107090476D01*
X251700000Y-106995238D01*
X251604761Y-106900000D01*
X251461904Y-106852380D01*
X251366666Y-106852380D01*
X251223809Y-106900000D01*
X251176190Y-106947619D01*
X250461904Y-106852380D02*
X250461904Y-107566666D01*
X250509523Y-107709523D01*
X250604761Y-107804761D01*
X250747619Y-107852380D01*
X250842857Y-107852380D01*
X249509523Y-107852380D02*
X249985714Y-107852380D01*
X249985714Y-106852380D01*
X248604761Y-107757142D02*
X248652380Y-107804761D01*
X248795238Y-107852380D01*
X248890476Y-107852380D01*
X249033333Y-107804761D01*
X249128571Y-107709523D01*
X249176190Y-107614285D01*
X249223809Y-107423809D01*
X249223809Y-107280952D01*
X249176190Y-107090476D01*
X249128571Y-106995238D01*
X249033333Y-106900000D01*
X248890476Y-106852380D01*
X248795238Y-106852380D01*
X248652380Y-106900000D01*
X248604761Y-106947619D01*
X247890476Y-106852380D02*
X247890476Y-107566666D01*
X247938095Y-107709523D01*
X248033333Y-107804761D01*
X248176190Y-107852380D01*
X248271428Y-107852380D01*
X246938095Y-107852380D02*
X247414285Y-107852380D01*
X247414285Y-106852380D01*
X246033333Y-107757142D02*
X246080952Y-107804761D01*
X246223809Y-107852380D01*
X246319047Y-107852380D01*
X246461904Y-107804761D01*
X246557142Y-107709523D01*
X246604761Y-107614285D01*
X246652380Y-107423809D01*
X246652380Y-107280952D01*
X246604761Y-107090476D01*
X246557142Y-106995238D01*
X246461904Y-106900000D01*
X246319047Y-106852380D01*
X246223809Y-106852380D01*
X246080952Y-106900000D01*
X246033333Y-106947619D01*
X245319047Y-106852380D02*
X245319047Y-107566666D01*
X245366666Y-107709523D01*
X245461904Y-107804761D01*
X245604761Y-107852380D01*
X245700000Y-107852380D01*
X244366666Y-107852380D02*
X244842857Y-107852380D01*
X244842857Y-106852380D01*
X243461904Y-107757142D02*
X243509523Y-107804761D01*
X243652380Y-107852380D01*
X243747619Y-107852380D01*
X243890476Y-107804761D01*
X243985714Y-107709523D01*
X244033333Y-107614285D01*
X244080952Y-107423809D01*
X244080952Y-107280952D01*
X244033333Y-107090476D01*
X243985714Y-106995238D01*
X243890476Y-106900000D01*
X243747619Y-106852380D01*
X243652380Y-106852380D01*
X243509523Y-106900000D01*
X243461904Y-106947619D01*
X149757142Y-105952380D02*
X149519047Y-106952380D01*
X149328571Y-106238095D01*
X149138095Y-106952380D01*
X148900000Y-105952380D01*
X148566666Y-106666666D02*
X148090476Y-106666666D01*
X148661904Y-106952380D02*
X148328571Y-105952380D01*
X147995238Y-106952380D01*
X147090476Y-106857142D02*
X147138095Y-106904761D01*
X147280952Y-106952380D01*
X147376190Y-106952380D01*
X147519047Y-106904761D01*
X147614285Y-106809523D01*
X147661904Y-106714285D01*
X147709523Y-106523809D01*
X147709523Y-106380952D01*
X147661904Y-106190476D01*
X147614285Y-106095238D01*
X147519047Y-106000000D01*
X147376190Y-105952380D01*
X147280952Y-105952380D01*
X147138095Y-106000000D01*
X147090476Y-106047619D01*
X146090476Y-106857142D02*
X146138095Y-106904761D01*
X146280952Y-106952380D01*
X146376190Y-106952380D01*
X146519047Y-106904761D01*
X146614285Y-106809523D01*
X146661904Y-106714285D01*
X146709523Y-106523809D01*
X146709523Y-106380952D01*
X146661904Y-106190476D01*
X146614285Y-106095238D01*
X146519047Y-106000000D01*
X146376190Y-105952380D01*
X146280952Y-105952380D01*
X146138095Y-106000000D01*
X146090476Y-106047619D01*
X145709523Y-106666666D02*
X145233333Y-106666666D01*
X145804761Y-106952380D02*
X145471428Y-105952380D01*
X145138095Y-106952380D01*
X144804761Y-106571428D02*
X144042857Y-106571428D01*
X143661904Y-105952380D02*
X143423809Y-106952380D01*
X143233333Y-106238095D01*
X143042857Y-106952380D01*
X142804761Y-105952380D01*
X142471428Y-106904761D02*
X142328571Y-106952380D01*
X142090476Y-106952380D01*
X141995238Y-106904761D01*
X141947619Y-106857142D01*
X141900000Y-106761904D01*
X141900000Y-106666666D01*
X141947619Y-106571428D01*
X141995238Y-106523809D01*
X142090476Y-106476190D01*
X142280952Y-106428571D01*
X142376190Y-106380952D01*
X142423809Y-106333333D01*
X142471428Y-106238095D01*
X142471428Y-106142857D01*
X142423809Y-106047619D01*
X142376190Y-106000000D01*
X142280952Y-105952380D01*
X142042857Y-105952380D01*
X141900000Y-106000000D01*
X141519047Y-106047619D02*
X141471428Y-106000000D01*
X141376190Y-105952380D01*
X141138095Y-105952380D01*
X141042857Y-106000000D01*
X140995238Y-106047619D01*
X140947619Y-106142857D01*
X140947619Y-106238095D01*
X140995238Y-106380952D01*
X141566666Y-106952380D01*
X140947619Y-106952380D01*
X140376190Y-106380952D02*
X140471428Y-106333333D01*
X140519047Y-106285714D01*
X140566666Y-106190476D01*
X140566666Y-106142857D01*
X140519047Y-106047619D01*
X140471428Y-106000000D01*
X140376190Y-105952380D01*
X140185714Y-105952380D01*
X140090476Y-106000000D01*
X140042857Y-106047619D01*
X139995238Y-106142857D01*
X139995238Y-106190476D01*
X140042857Y-106285714D01*
X140090476Y-106333333D01*
X140185714Y-106380952D01*
X140376190Y-106380952D01*
X140471428Y-106428571D01*
X140519047Y-106476190D01*
X140566666Y-106571428D01*
X140566666Y-106761904D01*
X140519047Y-106857142D01*
X140471428Y-106904761D01*
X140376190Y-106952380D01*
X140185714Y-106952380D01*
X140090476Y-106904761D01*
X140042857Y-106857142D01*
X139995238Y-106761904D01*
X139995238Y-106571428D01*
X140042857Y-106476190D01*
X140090476Y-106428571D01*
X140185714Y-106380952D01*
X139042857Y-106952380D02*
X139614285Y-106952380D01*
X139328571Y-106952380D02*
X139328571Y-105952380D01*
X139423809Y-106095238D01*
X139519047Y-106190476D01*
X139614285Y-106238095D01*
X138709523Y-105952380D02*
X138090476Y-105952380D01*
X138423809Y-106333333D01*
X138280952Y-106333333D01*
X138185714Y-106380952D01*
X138138095Y-106428571D01*
X138090476Y-106523809D01*
X138090476Y-106761904D01*
X138138095Y-106857142D01*
X138185714Y-106904761D01*
X138280952Y-106952380D01*
X138566666Y-106952380D01*
X138661904Y-106904761D01*
X138709523Y-106857142D01*
X223433333Y-97552380D02*
X223100000Y-98552380D01*
X222766666Y-97552380D01*
X221861904Y-98457142D02*
X221909523Y-98504761D01*
X222052380Y-98552380D01*
X222147619Y-98552380D01*
X222290476Y-98504761D01*
X222385714Y-98409523D01*
X222433333Y-98314285D01*
X222480952Y-98123809D01*
X222480952Y-97980952D01*
X222433333Y-97790476D01*
X222385714Y-97695238D01*
X222290476Y-97600000D01*
X222147619Y-97552380D01*
X222052380Y-97552380D01*
X221909523Y-97600000D01*
X221861904Y-97647619D01*
X220861904Y-98457142D02*
X220909523Y-98504761D01*
X221052380Y-98552380D01*
X221147619Y-98552380D01*
X221290476Y-98504761D01*
X221385714Y-98409523D01*
X221433333Y-98314285D01*
X221480952Y-98123809D01*
X221480952Y-97980952D01*
X221433333Y-97790476D01*
X221385714Y-97695238D01*
X221290476Y-97600000D01*
X221147619Y-97552380D01*
X221052380Y-97552380D01*
X220909523Y-97600000D01*
X220861904Y-97647619D01*
D11*
X70495238Y-101500000D02*
X70495238Y-101119047D01*
X70400000Y-100928571D01*
X70209523Y-100738095D01*
X69828571Y-100642857D01*
X69161904Y-100642857D01*
X68780952Y-100738095D01*
X68590476Y-100928571D01*
X68495238Y-101119047D01*
X68495238Y-101500000D01*
X68590476Y-101690476D01*
X68780952Y-101880952D01*
X69161904Y-101976190D01*
X69828571Y-101976190D01*
X70209523Y-101880952D01*
X70400000Y-101690476D01*
X70495238Y-101500000D01*
X70495238Y-99785714D02*
X68876190Y-99785714D01*
X68685714Y-99690476D01*
X68590476Y-99595238D01*
X68495238Y-99404761D01*
X68495238Y-99023809D01*
X68590476Y-98833333D01*
X68685714Y-98738095D01*
X68876190Y-98642857D01*
X70495238Y-98642857D01*
X70495238Y-97976190D02*
X70495238Y-96833333D01*
X68495238Y-97404761D02*
X70495238Y-97404761D01*
D10*
X81661904Y-101300000D02*
X81757142Y-101252380D01*
X81900000Y-101252380D01*
X82042857Y-101300000D01*
X82138095Y-101395238D01*
X82185714Y-101490476D01*
X82233333Y-101680952D01*
X82233333Y-101823809D01*
X82185714Y-102014285D01*
X82138095Y-102109523D01*
X82042857Y-102204761D01*
X81900000Y-102252380D01*
X81804761Y-102252380D01*
X81661904Y-102204761D01*
X81614285Y-102157142D01*
X81614285Y-101823809D01*
X81804761Y-101823809D01*
X81185714Y-102252380D02*
X81185714Y-101252380D01*
X80614285Y-102252380D01*
X80614285Y-101252380D01*
X80138095Y-102252380D02*
X80138095Y-101252380D01*
X79900000Y-101252380D01*
X79757142Y-101300000D01*
X79661904Y-101395238D01*
X79614285Y-101490476D01*
X79566666Y-101680952D01*
X79566666Y-101823809D01*
X79614285Y-102014285D01*
X79661904Y-102109523D01*
X79757142Y-102204761D01*
X79900000Y-102252380D01*
X80138095Y-102252380D01*
X59500000Y-98852380D02*
X59309523Y-98852380D01*
X59214285Y-98900000D01*
X59119047Y-98995238D01*
X59071428Y-99185714D01*
X59071428Y-99519047D01*
X59119047Y-99709523D01*
X59214285Y-99804761D01*
X59309523Y-99852380D01*
X59500000Y-99852380D01*
X59595238Y-99804761D01*
X59690476Y-99709523D01*
X59738095Y-99519047D01*
X59738095Y-99185714D01*
X59690476Y-98995238D01*
X59595238Y-98900000D01*
X59500000Y-98852380D01*
X58642857Y-98852380D02*
X58642857Y-99661904D01*
X58595238Y-99757142D01*
X58547619Y-99804761D01*
X58452380Y-99852380D01*
X58261904Y-99852380D01*
X58166666Y-99804761D01*
X58119047Y-99757142D01*
X58071428Y-99661904D01*
X58071428Y-98852380D01*
X57738095Y-98852380D02*
X57166666Y-98852380D01*
X57452380Y-99852380D02*
X57452380Y-98852380D01*
X82233333Y-96257380D02*
X81900000Y-97257380D01*
X81566666Y-96257380D01*
X80661904Y-97162142D02*
X80709523Y-97209761D01*
X80852380Y-97257380D01*
X80947619Y-97257380D01*
X81090476Y-97209761D01*
X81185714Y-97114523D01*
X81233333Y-97019285D01*
X81280952Y-96828809D01*
X81280952Y-96685952D01*
X81233333Y-96495476D01*
X81185714Y-96400238D01*
X81090476Y-96305000D01*
X80947619Y-96257380D01*
X80852380Y-96257380D01*
X80709523Y-96305000D01*
X80661904Y-96352619D01*
X79661904Y-97162142D02*
X79709523Y-97209761D01*
X79852380Y-97257380D01*
X79947619Y-97257380D01*
X80090476Y-97209761D01*
X80185714Y-97114523D01*
X80233333Y-97019285D01*
X80280952Y-96828809D01*
X80280952Y-96685952D01*
X80233333Y-96495476D01*
X80185714Y-96400238D01*
X80090476Y-96305000D01*
X79947619Y-96257380D01*
X79852380Y-96257380D01*
X79709523Y-96305000D01*
X79661904Y-96352619D01*
D11*
X232195238Y-104019047D02*
X234195238Y-104019047D01*
X234195238Y-103257142D01*
X234100000Y-103066666D01*
X234004761Y-102971428D01*
X233814285Y-102876190D01*
X233528571Y-102876190D01*
X233338095Y-102971428D01*
X233242857Y-103066666D01*
X233147619Y-103257142D01*
X233147619Y-104019047D01*
X234195238Y-101638095D02*
X234195238Y-101257142D01*
X234100000Y-101066666D01*
X233909523Y-100876190D01*
X233528571Y-100780952D01*
X232861904Y-100780952D01*
X232480952Y-100876190D01*
X232290476Y-101066666D01*
X232195238Y-101257142D01*
X232195238Y-101638095D01*
X232290476Y-101828571D01*
X232480952Y-102019047D01*
X232861904Y-102114285D01*
X233528571Y-102114285D01*
X233909523Y-102019047D01*
X234100000Y-101828571D01*
X234195238Y-101638095D01*
X234195238Y-100114285D02*
X232195238Y-99638095D01*
X233623809Y-99257142D01*
X232195238Y-98876190D01*
X234195238Y-98400000D01*
X233242857Y-97638095D02*
X233242857Y-96971428D01*
X232195238Y-96685714D02*
X232195238Y-97638095D01*
X234195238Y-97638095D01*
X234195238Y-96685714D01*
X232195238Y-94685714D02*
X233147619Y-95352380D01*
X232195238Y-95828571D02*
X234195238Y-95828571D01*
X234195238Y-95066666D01*
X234100000Y-94876190D01*
X234004761Y-94780952D01*
X233814285Y-94685714D01*
X233528571Y-94685714D01*
X233338095Y-94780952D01*
X233242857Y-94876190D01*
X233147619Y-95066666D01*
X233147619Y-95828571D01*
D10*
X59261904Y-101500000D02*
X59357142Y-101452380D01*
X59500000Y-101452380D01*
X59642857Y-101500000D01*
X59738095Y-101595238D01*
X59785714Y-101690476D01*
X59833333Y-101880952D01*
X59833333Y-102023809D01*
X59785714Y-102214285D01*
X59738095Y-102309523D01*
X59642857Y-102404761D01*
X59500000Y-102452380D01*
X59404761Y-102452380D01*
X59261904Y-102404761D01*
X59214285Y-102357142D01*
X59214285Y-102023809D01*
X59404761Y-102023809D01*
X58785714Y-102452380D02*
X58785714Y-101452380D01*
X58214285Y-102452380D01*
X58214285Y-101452380D01*
X57738095Y-102452380D02*
X57738095Y-101452380D01*
X57500000Y-101452380D01*
X57357142Y-101500000D01*
X57261904Y-101595238D01*
X57214285Y-101690476D01*
X57166666Y-101880952D01*
X57166666Y-102023809D01*
X57214285Y-102214285D01*
X57261904Y-102309523D01*
X57357142Y-102404761D01*
X57500000Y-102452380D01*
X57738095Y-102452380D01*
X222861904Y-102800000D02*
X222957142Y-102752380D01*
X223100000Y-102752380D01*
X223242857Y-102800000D01*
X223338095Y-102895238D01*
X223385714Y-102990476D01*
X223433333Y-103180952D01*
X223433333Y-103323809D01*
X223385714Y-103514285D01*
X223338095Y-103609523D01*
X223242857Y-103704761D01*
X223100000Y-103752380D01*
X223004761Y-103752380D01*
X222861904Y-103704761D01*
X222814285Y-103657142D01*
X222814285Y-103323809D01*
X223004761Y-103323809D01*
X222385714Y-103752380D02*
X222385714Y-102752380D01*
X221814285Y-103752380D01*
X221814285Y-102752380D01*
X221338095Y-103752380D02*
X221338095Y-102752380D01*
X221100000Y-102752380D01*
X220957142Y-102800000D01*
X220861904Y-102895238D01*
X220814285Y-102990476D01*
X220766666Y-103180952D01*
X220766666Y-103323809D01*
X220814285Y-103514285D01*
X220861904Y-103609523D01*
X220957142Y-103704761D01*
X221100000Y-103752380D01*
X221338095Y-103752380D01*
D11*
X91095238Y-100347619D02*
X93095238Y-100347619D01*
X91095238Y-99395238D02*
X93095238Y-99395238D01*
X91095238Y-98252380D01*
X93095238Y-98252380D01*
D10*
X223433333Y-94952380D02*
X223100000Y-95952380D01*
X222766666Y-94952380D01*
X221861904Y-95857142D02*
X221909523Y-95904761D01*
X222052380Y-95952380D01*
X222147619Y-95952380D01*
X222290476Y-95904761D01*
X222385714Y-95809523D01*
X222433333Y-95714285D01*
X222480952Y-95523809D01*
X222480952Y-95380952D01*
X222433333Y-95190476D01*
X222385714Y-95095238D01*
X222290476Y-95000000D01*
X222147619Y-94952380D01*
X222052380Y-94952380D01*
X221909523Y-95000000D01*
X221861904Y-95047619D01*
X220861904Y-95857142D02*
X220909523Y-95904761D01*
X221052380Y-95952380D01*
X221147619Y-95952380D01*
X221290476Y-95904761D01*
X221385714Y-95809523D01*
X221433333Y-95714285D01*
X221480952Y-95523809D01*
X221480952Y-95380952D01*
X221433333Y-95190476D01*
X221385714Y-95095238D01*
X221290476Y-95000000D01*
X221147619Y-94952380D01*
X221052380Y-94952380D01*
X220909523Y-95000000D01*
X220861904Y-95047619D01*
X222861904Y-100200000D02*
X222957142Y-100152380D01*
X223100000Y-100152380D01*
X223242857Y-100200000D01*
X223338095Y-100295238D01*
X223385714Y-100390476D01*
X223433333Y-100580952D01*
X223433333Y-100723809D01*
X223385714Y-100914285D01*
X223338095Y-101009523D01*
X223242857Y-101104761D01*
X223100000Y-101152380D01*
X223004761Y-101152380D01*
X222861904Y-101104761D01*
X222814285Y-101057142D01*
X222814285Y-100723809D01*
X223004761Y-100723809D01*
X222385714Y-101152380D02*
X222385714Y-100152380D01*
X221814285Y-101152380D01*
X221814285Y-100152380D01*
X221338095Y-101152380D02*
X221338095Y-100152380D01*
X221100000Y-100152380D01*
X220957142Y-100200000D01*
X220861904Y-100295238D01*
X220814285Y-100390476D01*
X220766666Y-100580952D01*
X220766666Y-100723809D01*
X220814285Y-100914285D01*
X220861904Y-101009523D01*
X220957142Y-101104761D01*
X221100000Y-101152380D01*
X221338095Y-101152380D01*
X81423809Y-99652380D02*
X81423809Y-98652380D01*
X80947619Y-99652380D02*
X80947619Y-98652380D01*
X80376190Y-99652380D01*
X80376190Y-98652380D01*
X59833333Y-96457380D02*
X59500000Y-97457380D01*
X59166666Y-96457380D01*
X58261904Y-97362142D02*
X58309523Y-97409761D01*
X58452380Y-97457380D01*
X58547619Y-97457380D01*
X58690476Y-97409761D01*
X58785714Y-97314523D01*
X58833333Y-97219285D01*
X58880952Y-97028809D01*
X58880952Y-96885952D01*
X58833333Y-96695476D01*
X58785714Y-96600238D01*
X58690476Y-96505000D01*
X58547619Y-96457380D01*
X58452380Y-96457380D01*
X58309523Y-96505000D01*
X58261904Y-96552619D01*
X57261904Y-97362142D02*
X57309523Y-97409761D01*
X57452380Y-97457380D01*
X57547619Y-97457380D01*
X57690476Y-97409761D01*
X57785714Y-97314523D01*
X57833333Y-97219285D01*
X57880952Y-97028809D01*
X57880952Y-96885952D01*
X57833333Y-96695476D01*
X57785714Y-96600238D01*
X57690476Y-96505000D01*
X57547619Y-96457380D01*
X57452380Y-96457380D01*
X57309523Y-96505000D01*
X57261904Y-96552619D01*
X201807142Y-99283333D02*
X201854761Y-99235714D01*
X201902380Y-99092857D01*
X201902380Y-98997619D01*
X201854761Y-98854761D01*
X201759523Y-98759523D01*
X201664285Y-98711904D01*
X201473809Y-98664285D01*
X201330952Y-98664285D01*
X201140476Y-98711904D01*
X201045238Y-98759523D01*
X200950000Y-98854761D01*
X200902380Y-98997619D01*
X200902380Y-99092857D01*
X200950000Y-99235714D01*
X200997619Y-99283333D01*
X201902380Y-99759523D02*
X201902380Y-99950000D01*
X201854761Y-100045238D01*
X201807142Y-100092857D01*
X201664285Y-100188095D01*
X201473809Y-100235714D01*
X201092857Y-100235714D01*
X200997619Y-100188095D01*
X200950000Y-100140476D01*
X200902380Y-100045238D01*
X200902380Y-99854761D01*
X200950000Y-99759523D01*
X200997619Y-99711904D01*
X201092857Y-99664285D01*
X201330952Y-99664285D01*
X201426190Y-99711904D01*
X201473809Y-99759523D01*
X201521428Y-99854761D01*
X201521428Y-100045238D01*
X201473809Y-100140476D01*
X201426190Y-100188095D01*
X201330952Y-100235714D01*
X228190476Y-92357142D02*
X228238095Y-92404761D01*
X228380952Y-92452380D01*
X228476190Y-92452380D01*
X228619047Y-92404761D01*
X228714285Y-92309523D01*
X228761904Y-92214285D01*
X228809523Y-92023809D01*
X228809523Y-91880952D01*
X228761904Y-91690476D01*
X228714285Y-91595238D01*
X228619047Y-91500000D01*
X228476190Y-91452380D01*
X228380952Y-91452380D01*
X228238095Y-91500000D01*
X228190476Y-91547619D01*
X227761904Y-92452380D02*
X227761904Y-91452380D01*
X227190476Y-92452380D01*
X227190476Y-91452380D01*
X226809523Y-91452380D02*
X226190476Y-91452380D01*
X226523809Y-91833333D01*
X226380952Y-91833333D01*
X226285714Y-91880952D01*
X226238095Y-91928571D01*
X226190476Y-92023809D01*
X226190476Y-92261904D01*
X226238095Y-92357142D01*
X226285714Y-92404761D01*
X226380952Y-92452380D01*
X226666666Y-92452380D01*
X226761904Y-92404761D01*
X226809523Y-92357142D01*
X64790476Y-93457142D02*
X64838095Y-93504761D01*
X64980952Y-93552380D01*
X65076190Y-93552380D01*
X65219047Y-93504761D01*
X65314285Y-93409523D01*
X65361904Y-93314285D01*
X65409523Y-93123809D01*
X65409523Y-92980952D01*
X65361904Y-92790476D01*
X65314285Y-92695238D01*
X65219047Y-92600000D01*
X65076190Y-92552380D01*
X64980952Y-92552380D01*
X64838095Y-92600000D01*
X64790476Y-92647619D01*
X64361904Y-93552380D02*
X64361904Y-92552380D01*
X63790476Y-93552380D01*
X63790476Y-92552380D01*
X63361904Y-92647619D02*
X63314285Y-92600000D01*
X63219047Y-92552380D01*
X62980952Y-92552380D01*
X62885714Y-92600000D01*
X62838095Y-92647619D01*
X62790476Y-92742857D01*
X62790476Y-92838095D01*
X62838095Y-92980952D01*
X63409523Y-93552380D01*
X62790476Y-93552380D01*
X87290476Y-93357142D02*
X87338095Y-93404761D01*
X87480952Y-93452380D01*
X87576190Y-93452380D01*
X87719047Y-93404761D01*
X87814285Y-93309523D01*
X87861904Y-93214285D01*
X87909523Y-93023809D01*
X87909523Y-92880952D01*
X87861904Y-92690476D01*
X87814285Y-92595238D01*
X87719047Y-92500000D01*
X87576190Y-92452380D01*
X87480952Y-92452380D01*
X87338095Y-92500000D01*
X87290476Y-92547619D01*
X86861904Y-93452380D02*
X86861904Y-92452380D01*
X86290476Y-93452380D01*
X86290476Y-92452380D01*
X85290476Y-93452380D02*
X85861904Y-93452380D01*
X85576190Y-93452380D02*
X85576190Y-92452380D01*
X85671428Y-92595238D01*
X85766666Y-92690476D01*
X85861904Y-92738095D01*
D12*
X199601000Y-97689000D02*
X198740000Y-97689000D01*
X200280000Y-99410000D02*
X195120000Y-99410000D01*
X199765000Y-97889000D02*
X198740000Y-97889000D01*
X198615000Y-97009000D02*
X196785000Y-97009000D01*
X196660000Y-97969000D02*
X195578000Y-97969000D01*
X200279000Y-99370000D02*
X195121000Y-99370000D01*
X199990000Y-98249000D02*
X198740000Y-98249000D01*
X199526000Y-97609000D02*
X198740000Y-97609000D01*
X196660000Y-97649000D02*
X195836000Y-97649000D01*
X200029000Y-98329000D02*
X198740000Y-98329000D01*
X200168000Y-98689000D02*
X198740000Y-98689000D01*
X200261000Y-99130000D02*
X198740000Y-99130000D01*
X196660000Y-99090000D02*
X195144000Y-99090000D01*
X199704000Y-97809000D02*
X198740000Y-97809000D01*
X196660000Y-98930000D02*
X195172000Y-98930000D01*
X199968000Y-98209000D02*
X198740000Y-98209000D01*
X196660000Y-99170000D02*
X195135000Y-99170000D01*
X200276000Y-99290000D02*
X195124000Y-99290000D01*
X196660000Y-97729000D02*
X195763000Y-97729000D01*
X199735000Y-97849000D02*
X198740000Y-97849000D01*
X199200000Y-97329000D02*
X198740000Y-97329000D01*
X196660000Y-97489000D02*
X196001000Y-97489000D01*
X199083000Y-97249000D02*
X198740000Y-97249000D01*
X200114000Y-98529000D02*
X198740000Y-98529000D01*
X200273000Y-99250000D02*
X195127000Y-99250000D01*
X198951000Y-97169000D02*
X198740000Y-97169000D01*
X196660000Y-98689000D02*
X195232000Y-98689000D01*
X199353000Y-97449000D02*
X198740000Y-97449000D01*
X196660000Y-98369000D02*
X195352000Y-98369000D01*
X199485000Y-97569000D02*
X198740000Y-97569000D01*
X200269000Y-99210000D02*
X198740000Y-99210000D01*
X196660000Y-98529000D02*
X195286000Y-98529000D01*
X200098000Y-98489000D02*
X198740000Y-98489000D01*
X198505000Y-96969000D02*
X196895000Y-96969000D01*
X199019000Y-97209000D02*
X198740000Y-97209000D01*
X200256000Y-99090000D02*
X198740000Y-99090000D01*
X196660000Y-97609000D02*
X195874000Y-97609000D01*
X196660000Y-97249000D02*
X196317000Y-97249000D01*
X200155000Y-98649000D02*
X198740000Y-98649000D01*
X199443000Y-97529000D02*
X198740000Y-97529000D01*
X196660000Y-97329000D02*
X196200000Y-97329000D01*
X196660000Y-99210000D02*
X195131000Y-99210000D01*
X200278000Y-99330000D02*
X195122000Y-99330000D01*
X196660000Y-97169000D02*
X196449000Y-97169000D01*
X200265000Y-99170000D02*
X198740000Y-99170000D01*
X200220000Y-98890000D02*
X198740000Y-98890000D01*
X200065000Y-98409000D02*
X198740000Y-98409000D01*
X196660000Y-98970000D02*
X195164000Y-98970000D01*
X199900000Y-98089000D02*
X198740000Y-98089000D01*
X200082000Y-98449000D02*
X198740000Y-98449000D01*
X196660000Y-98049000D02*
X195525000Y-98049000D01*
X196660000Y-97849000D02*
X195665000Y-97849000D01*
X196660000Y-97289000D02*
X196257000Y-97289000D01*
X199143000Y-97289000D02*
X198740000Y-97289000D01*
X196660000Y-97409000D02*
X196095000Y-97409000D01*
X196660000Y-97809000D02*
X195696000Y-97809000D01*
X196660000Y-99010000D02*
X195157000Y-99010000D01*
X199425000Y-102004775D02*
X198925000Y-102004775D01*
X200180000Y-98729000D02*
X198740000Y-98729000D01*
X196660000Y-98770000D02*
X195209000Y-98770000D01*
X199795000Y-97929000D02*
X198740000Y-97929000D01*
X198878000Y-97129000D02*
X196522000Y-97129000D01*
X196660000Y-98089000D02*
X195500000Y-98089000D01*
X196660000Y-98449000D02*
X195318000Y-98449000D01*
X199924000Y-98129000D02*
X198740000Y-98129000D01*
X199671000Y-97769000D02*
X198740000Y-97769000D01*
X196660000Y-98609000D02*
X195258000Y-98609000D01*
X196660000Y-98569000D02*
X195272000Y-98569000D01*
X196660000Y-98890000D02*
X195180000Y-98890000D01*
X196660000Y-97369000D02*
X196146000Y-97369000D01*
X199849000Y-98009000D02*
X198740000Y-98009000D01*
X200191000Y-98770000D02*
X198740000Y-98770000D01*
X196660000Y-98409000D02*
X195335000Y-98409000D01*
X200280000Y-99450000D02*
X195120000Y-99450000D01*
X200010000Y-98289000D02*
X198740000Y-98289000D01*
X199875000Y-98049000D02*
X198740000Y-98049000D01*
X196660000Y-97209000D02*
X196381000Y-97209000D01*
X196660000Y-98009000D02*
X195551000Y-98009000D01*
X198798000Y-97089000D02*
X196602000Y-97089000D01*
X196660000Y-98649000D02*
X195245000Y-98649000D01*
X200211000Y-98850000D02*
X198740000Y-98850000D01*
X200048000Y-98369000D02*
X198740000Y-98369000D01*
X200201000Y-98810000D02*
X198740000Y-98810000D01*
X196660000Y-98729000D02*
X195220000Y-98729000D01*
X199305000Y-97409000D02*
X198740000Y-97409000D01*
X196660000Y-98129000D02*
X195476000Y-98129000D01*
X196660000Y-99050000D02*
X195150000Y-99050000D01*
X196660000Y-98249000D02*
X195410000Y-98249000D01*
X196660000Y-98289000D02*
X195390000Y-98289000D01*
X199254000Y-97369000D02*
X198740000Y-97369000D01*
X200228000Y-98930000D02*
X198740000Y-98930000D01*
X196660000Y-98209000D02*
X195432000Y-98209000D01*
X200243000Y-99010000D02*
X198740000Y-99010000D01*
X196660000Y-97769000D02*
X195729000Y-97769000D01*
X199822000Y-97969000D02*
X198740000Y-97969000D01*
X199564000Y-97649000D02*
X198740000Y-97649000D01*
X196660000Y-97569000D02*
X195915000Y-97569000D01*
X198218000Y-96889000D02*
X197182000Y-96889000D01*
X200128000Y-98569000D02*
X198740000Y-98569000D01*
X196660000Y-97889000D02*
X195635000Y-97889000D01*
X200250000Y-99050000D02*
X198740000Y-99050000D01*
X196660000Y-97529000D02*
X195957000Y-97529000D01*
X196660000Y-97929000D02*
X195605000Y-97929000D01*
X198711000Y-97049000D02*
X196689000Y-97049000D01*
X198377000Y-96929000D02*
X197023000Y-96929000D01*
X196660000Y-98850000D02*
X195189000Y-98850000D01*
X199947000Y-98169000D02*
X198740000Y-98169000D01*
X196660000Y-99130000D02*
X195139000Y-99130000D01*
X199175000Y-102254775D02*
X199175000Y-101754775D01*
X200142000Y-98609000D02*
X198740000Y-98609000D01*
X196660000Y-98329000D02*
X195371000Y-98329000D01*
X196660000Y-98810000D02*
X195199000Y-98810000D01*
X200236000Y-98970000D02*
X198740000Y-98970000D01*
X196660000Y-98489000D02*
X195302000Y-98489000D01*
X199637000Y-97729000D02*
X198740000Y-97729000D01*
X196660000Y-97689000D02*
X195799000Y-97689000D01*
X196660000Y-97449000D02*
X196047000Y-97449000D01*
X197984000Y-96849000D02*
X197416000Y-96849000D01*
X199399000Y-97489000D02*
X198740000Y-97489000D01*
X196660000Y-98169000D02*
X195453000Y-98169000D01*
X200320000Y-99450000D02*
G75*
G03*
X200320000Y-99450000I-2620000J0D01*
G01*
X224190000Y-105860000D02*
X224190000Y-102200000D01*
X230810000Y-105860000D02*
X224190000Y-105860000D01*
X227500000Y-93140000D02*
X227500000Y-94150000D01*
X227500000Y-105860000D02*
X227500000Y-104850000D01*
X223890000Y-92840000D02*
X225140000Y-92840000D01*
X225190000Y-96800000D02*
X224190000Y-96800000D01*
X230810000Y-93140000D02*
X230810000Y-105860000D01*
X224190000Y-93140000D02*
X230810000Y-93140000D01*
X224190000Y-96800000D02*
X224190000Y-93140000D01*
X225190000Y-102200000D02*
X225190000Y-100300000D01*
X225190000Y-100300000D02*
X224590000Y-100300000D01*
X224190000Y-102200000D02*
X225190000Y-102200000D01*
X223890000Y-94090000D02*
X223890000Y-92840000D01*
X224590000Y-98700000D02*
X225190000Y-98700000D01*
X230100000Y-94150000D02*
X230100000Y-104850000D01*
X230100000Y-104850000D02*
X225800000Y-104850000D01*
X225190000Y-98700000D02*
X225190000Y-96800000D01*
X225800000Y-104850000D02*
X225800000Y-94150000D01*
X225800000Y-94150000D02*
X230100000Y-94150000D01*
X224590000Y-100300000D02*
X224590000Y-98700000D01*
X60490000Y-93995000D02*
X61740000Y-93995000D01*
X60790000Y-101805000D02*
X61790000Y-101805000D01*
X61790000Y-97005000D02*
X60790000Y-97005000D01*
X64100000Y-94295000D02*
X64100000Y-95305000D01*
X60790000Y-94295000D02*
X67410000Y-94295000D01*
X60490000Y-95245000D02*
X60490000Y-93995000D01*
X64100000Y-104515000D02*
X64100000Y-103505000D01*
X66700000Y-103505000D02*
X62400000Y-103505000D01*
X61790000Y-98605000D02*
X61790000Y-97005000D01*
X61190000Y-98605000D02*
X61790000Y-98605000D01*
X67410000Y-94295000D02*
X67410000Y-104515000D01*
X66700000Y-95305000D02*
X66700000Y-103505000D01*
X60790000Y-97005000D02*
X60790000Y-94295000D01*
X62400000Y-103505000D02*
X62400000Y-95305000D01*
X67410000Y-104515000D02*
X60790000Y-104515000D01*
X60790000Y-104515000D02*
X60790000Y-101805000D01*
X62400000Y-95305000D02*
X66700000Y-95305000D01*
X61190000Y-100205000D02*
X61190000Y-98605000D01*
X61790000Y-101805000D02*
X61790000Y-100205000D01*
X61790000Y-100205000D02*
X61190000Y-100205000D01*
X83290000Y-94185000D02*
X89910000Y-94185000D01*
X82990000Y-93885000D02*
X84240000Y-93885000D01*
X84900000Y-103395000D02*
X84900000Y-95195000D01*
X83290000Y-96895000D02*
X83290000Y-94185000D01*
X83290000Y-104405000D02*
X83290000Y-101695000D01*
X84900000Y-95195000D02*
X89200000Y-95195000D01*
X84290000Y-100095000D02*
X83690000Y-100095000D01*
X89910000Y-104405000D02*
X83290000Y-104405000D01*
X83290000Y-101695000D02*
X84290000Y-101695000D01*
X84290000Y-96895000D02*
X83290000Y-96895000D01*
X86600000Y-94185000D02*
X86600000Y-95195000D01*
X83690000Y-98495000D02*
X84290000Y-98495000D01*
X84290000Y-98495000D02*
X84290000Y-96895000D01*
X89200000Y-95195000D02*
X89200000Y-103395000D01*
X89910000Y-94185000D02*
X89910000Y-104405000D01*
X89200000Y-103395000D02*
X84900000Y-103395000D01*
X84290000Y-101695000D02*
X84290000Y-100095000D01*
X82990000Y-95135000D02*
X82990000Y-93885000D01*
X86600000Y-104405000D02*
X86600000Y-103395000D01*
X83690000Y-100095000D02*
X83690000Y-98495000D01*
%LPC*%
D13*
X206300000Y-99400000D03*
X48322695Y-99400000D03*
D14*
X197700000Y-100700000D03*
D15*
X197700000Y-98200000D03*
D16*
X227500000Y-95750000D03*
D17*
X227500000Y-98250000D03*
X227500000Y-100750000D03*
X227500000Y-103250000D03*
D16*
X64100000Y-96905000D03*
D17*
X64100000Y-99405000D03*
X64100000Y-101905000D03*
D16*
X86600000Y-96795000D03*
D17*
X86600000Y-99295000D03*
X86600000Y-101795000D03*
M02*
