G04 #@! TF.GenerationSoftware,KiCad,Pcbnew,(6.0.5)*
G04 #@! TF.CreationDate,2022-07-10T22:30:16+08:00*
G04 #@! TF.ProjectId,wacca_ws2813,77616363-615f-4777-9332-3831332e6b69,rev?*
G04 #@! TF.SameCoordinates,Original*
G04 #@! TF.FileFunction,Paste,Top*
G04 #@! TF.FilePolarity,Positive*
%FSLAX46Y46*%
G04 Gerber Fmt 4.6, Leading zero omitted, Abs format (unit mm)*
G04 Created by KiCad (PCBNEW (6.0.5)) date 2022-07-10 22:30:16*
%MOMM*%
%LPD*%
G01*
G04 APERTURE LIST*
G04 Aperture macros list*
%AMRoundRect*
0 Rectangle with rounded corners*
0 $1 Rounding radius*
0 $2 $3 $4 $5 $6 $7 $8 $9 X,Y pos of 4 corners*
0 Add a 4 corners polygon primitive as box body*
4,1,4,$2,$3,$4,$5,$6,$7,$8,$9,$2,$3,0*
0 Add four circle primitives for the rounded corners*
1,1,$1+$1,$2,$3*
1,1,$1+$1,$4,$5*
1,1,$1+$1,$6,$7*
1,1,$1+$1,$8,$9*
0 Add four rect primitives between the rounded corners*
20,1,$1+$1,$2,$3,$4,$5,0*
20,1,$1+$1,$4,$5,$6,$7,0*
20,1,$1+$1,$6,$7,$8,$9,0*
20,1,$1+$1,$8,$9,$2,$3,0*%
G04 Aperture macros list end*
%ADD10R,1.000000X1.500000*%
%ADD11RoundRect,0.250000X0.450000X-0.350000X0.450000X0.350000X-0.450000X0.350000X-0.450000X-0.350000X0*%
%ADD12RoundRect,0.250000X0.475000X-0.337500X0.475000X0.337500X-0.475000X0.337500X-0.475000X-0.337500X0*%
%ADD13R,0.650000X2.000000*%
%ADD14RoundRect,0.250000X-0.350000X-0.450000X0.350000X-0.450000X0.350000X0.450000X-0.350000X0.450000X0*%
G04 APERTURE END LIST*
D10*
X156100000Y-97050000D03*
X154500000Y-97050000D03*
X152900000Y-97050000D03*
X152900000Y-101950000D03*
X154500000Y-101950000D03*
X156100000Y-101950000D03*
D11*
X234800000Y-100400000D03*
X234800000Y-98400000D03*
D12*
X129700000Y-100537500D03*
X129700000Y-98462500D03*
D13*
X57150000Y-103010000D03*
X59050000Y-103010000D03*
X58100000Y-99590000D03*
D10*
X126000000Y-97050000D03*
X124400000Y-97050000D03*
X122800000Y-97050000D03*
X122800000Y-101950000D03*
X124400000Y-101950000D03*
X126000000Y-101950000D03*
D14*
X56200000Y-95800000D03*
X58200000Y-95800000D03*
D10*
X72800000Y-96950000D03*
X71200000Y-96950000D03*
X69600000Y-96950000D03*
X69600000Y-101850000D03*
X71200000Y-101850000D03*
X72800000Y-101850000D03*
D13*
X239450000Y-101110000D03*
X241350000Y-101110000D03*
X240400000Y-97690000D03*
D10*
X95900000Y-97050000D03*
X94300000Y-97050000D03*
X92700000Y-97050000D03*
X92700000Y-101950000D03*
X94300000Y-101950000D03*
X95900000Y-101950000D03*
X186200000Y-97050000D03*
X184600000Y-97050000D03*
X183000000Y-97050000D03*
X183000000Y-101950000D03*
X184600000Y-101950000D03*
X186200000Y-101950000D03*
D12*
X53400000Y-100337500D03*
X53400000Y-98262500D03*
X253000000Y-100437500D03*
X253000000Y-98362500D03*
D10*
X219300000Y-97050000D03*
X217700000Y-97050000D03*
X216100000Y-97050000D03*
X216100000Y-101950000D03*
X217700000Y-101950000D03*
X219300000Y-101950000D03*
D12*
X189800000Y-100537500D03*
X189800000Y-98462500D03*
D10*
X249400000Y-96950000D03*
X247800000Y-96950000D03*
X246200000Y-96950000D03*
X246200000Y-101850000D03*
X247800000Y-101850000D03*
X249400000Y-101850000D03*
D12*
X99500000Y-100637500D03*
X99500000Y-98562500D03*
D10*
X42600000Y-97050000D03*
X41000000Y-97050000D03*
X39400000Y-97050000D03*
X39400000Y-101950000D03*
X41000000Y-101950000D03*
X42600000Y-101950000D03*
D12*
X76400000Y-100437500D03*
X76400000Y-98362500D03*
X159700000Y-100537500D03*
X159700000Y-98462500D03*
X222900000Y-100537500D03*
X222900000Y-98462500D03*
M02*
