G04 #@! TF.GenerationSoftware,KiCad,Pcbnew,(6.0.5)*
G04 #@! TF.CreationDate,2022-07-10T22:30:16+08:00*
G04 #@! TF.ProjectId,wacca_ws2813,77616363-615f-4777-9332-3831332e6b69,rev?*
G04 #@! TF.SameCoordinates,Original*
G04 #@! TF.FileFunction,Copper,L1,Top*
G04 #@! TF.FilePolarity,Positive*
%FSLAX46Y46*%
G04 Gerber Fmt 4.6, Leading zero omitted, Abs format (unit mm)*
G04 Created by KiCad (PCBNEW (6.0.5)) date 2022-07-10 22:30:16*
%MOMM*%
%LPD*%
G01*
G04 APERTURE LIST*
G04 Aperture macros list*
%AMRoundRect*
0 Rectangle with rounded corners*
0 $1 Rounding radius*
0 $2 $3 $4 $5 $6 $7 $8 $9 X,Y pos of 4 corners*
0 Add a 4 corners polygon primitive as box body*
4,1,4,$2,$3,$4,$5,$6,$7,$8,$9,$2,$3,0*
0 Add four circle primitives for the rounded corners*
1,1,$1+$1,$2,$3*
1,1,$1+$1,$4,$5*
1,1,$1+$1,$6,$7*
1,1,$1+$1,$8,$9*
0 Add four rect primitives between the rounded corners*
20,1,$1+$1,$2,$3,$4,$5,0*
20,1,$1+$1,$4,$5,$6,$7,0*
20,1,$1+$1,$6,$7,$8,$9,0*
20,1,$1+$1,$8,$9,$2,$3,0*%
G04 Aperture macros list end*
G04 #@! TA.AperFunction,SMDPad,CuDef*
%ADD10R,1.000000X1.500000*%
G04 #@! TD*
G04 #@! TA.AperFunction,SMDPad,CuDef*
%ADD11RoundRect,0.250000X0.450000X-0.350000X0.450000X0.350000X-0.450000X0.350000X-0.450000X-0.350000X0*%
G04 #@! TD*
G04 #@! TA.AperFunction,SMDPad,CuDef*
%ADD12RoundRect,0.250000X0.475000X-0.337500X0.475000X0.337500X-0.475000X0.337500X-0.475000X-0.337500X0*%
G04 #@! TD*
G04 #@! TA.AperFunction,SMDPad,CuDef*
%ADD13R,0.650000X2.000000*%
G04 #@! TD*
G04 #@! TA.AperFunction,SMDPad,CuDef*
%ADD14RoundRect,0.250000X-0.350000X-0.450000X0.350000X-0.450000X0.350000X0.450000X-0.350000X0.450000X0*%
G04 #@! TD*
G04 #@! TA.AperFunction,ComponentPad*
%ADD15R,1.600000X1.600000*%
G04 #@! TD*
G04 #@! TA.AperFunction,ComponentPad*
%ADD16C,1.600000*%
G04 #@! TD*
G04 #@! TA.AperFunction,ComponentPad*
%ADD17RoundRect,0.250000X-0.725000X0.600000X-0.725000X-0.600000X0.725000X-0.600000X0.725000X0.600000X0*%
G04 #@! TD*
G04 #@! TA.AperFunction,ComponentPad*
%ADD18O,1.950000X1.700000*%
G04 #@! TD*
G04 #@! TA.AperFunction,ViaPad*
%ADD19C,0.800000*%
G04 #@! TD*
G04 #@! TA.AperFunction,Conductor*
%ADD20C,0.200000*%
G04 #@! TD*
G04 #@! TA.AperFunction,Conductor*
%ADD21C,0.250000*%
G04 #@! TD*
G04 APERTURE END LIST*
D10*
X156100000Y-97050000D03*
X154500000Y-97050000D03*
X152900000Y-97050000D03*
X152900000Y-101950000D03*
X154500000Y-101950000D03*
X156100000Y-101950000D03*
D11*
X234800000Y-100400000D03*
X234800000Y-98400000D03*
D12*
X129700000Y-100537500D03*
X129700000Y-98462500D03*
D13*
X57150000Y-103010000D03*
X59050000Y-103010000D03*
X58100000Y-99590000D03*
D10*
X126000000Y-97050000D03*
X124400000Y-97050000D03*
X122800000Y-97050000D03*
X122800000Y-101950000D03*
X124400000Y-101950000D03*
X126000000Y-101950000D03*
D14*
X56200000Y-95800000D03*
X58200000Y-95800000D03*
D10*
X72800000Y-96950000D03*
X71200000Y-96950000D03*
X69600000Y-96950000D03*
X69600000Y-101850000D03*
X71200000Y-101850000D03*
X72800000Y-101850000D03*
D13*
X239450000Y-101110000D03*
X241350000Y-101110000D03*
X240400000Y-97690000D03*
D10*
X95900000Y-97050000D03*
X94300000Y-97050000D03*
X92700000Y-97050000D03*
X92700000Y-101950000D03*
X94300000Y-101950000D03*
X95900000Y-101950000D03*
X186200000Y-97050000D03*
X184600000Y-97050000D03*
X183000000Y-97050000D03*
X183000000Y-101950000D03*
X184600000Y-101950000D03*
X186200000Y-101950000D03*
D12*
X53400000Y-100337500D03*
X53400000Y-98262500D03*
X253000000Y-100437500D03*
X253000000Y-98362500D03*
D10*
X219300000Y-97050000D03*
X217700000Y-97050000D03*
X216100000Y-97050000D03*
X216100000Y-101950000D03*
X217700000Y-101950000D03*
X219300000Y-101950000D03*
D12*
X189800000Y-100537500D03*
X189800000Y-98462500D03*
D10*
X249400000Y-96950000D03*
X247800000Y-96950000D03*
X246200000Y-96950000D03*
X246200000Y-101850000D03*
X247800000Y-101850000D03*
X249400000Y-101850000D03*
D12*
X99500000Y-100637500D03*
X99500000Y-98562500D03*
D10*
X42600000Y-97050000D03*
X41000000Y-97050000D03*
X39400000Y-97050000D03*
X39400000Y-101950000D03*
X41000000Y-101950000D03*
X42600000Y-101950000D03*
D12*
X76400000Y-100437500D03*
X76400000Y-98362500D03*
X159700000Y-100537500D03*
X159700000Y-98462500D03*
X222900000Y-100537500D03*
X222900000Y-98462500D03*
D15*
X197700000Y-100700000D03*
D16*
X197700000Y-98200000D03*
D17*
X227500000Y-95750000D03*
D18*
X227500000Y-98250000D03*
X227500000Y-100750000D03*
X227500000Y-103250000D03*
D17*
X64100000Y-96905000D03*
D18*
X64100000Y-99405000D03*
X64100000Y-101905000D03*
D17*
X86600000Y-96795000D03*
D18*
X86600000Y-99295000D03*
X86600000Y-101795000D03*
D19*
X132962500Y-100537500D03*
X53400000Y-103318750D03*
X71200000Y-94500000D03*
X76400000Y-102800000D03*
X253000000Y-103900000D03*
X59000000Y-105650000D03*
X164762500Y-100537500D03*
X192600000Y-100500000D03*
X241350000Y-103900000D03*
X102362500Y-100637500D03*
X173500000Y-105400000D03*
X173500000Y-100600000D03*
X72800000Y-105600000D03*
X92700000Y-105600000D03*
X69600000Y-99400000D03*
X39400000Y-105000000D03*
D20*
X94300000Y-97050000D02*
X94300000Y-97900000D01*
X218599520Y-98800000D02*
X220800000Y-98800000D01*
X192562500Y-100537500D02*
X192600000Y-100500000D01*
X159700000Y-100537500D02*
X164762500Y-100537500D01*
X220800000Y-98800000D02*
X222537500Y-100537500D01*
X124400000Y-97050000D02*
X124400000Y-97900000D01*
X184600000Y-98200000D02*
X185300000Y-98900000D01*
X50437500Y-103300000D02*
X53400000Y-100337500D01*
X226450000Y-98250000D02*
X227500000Y-98250000D01*
X99500000Y-100637500D02*
X102362500Y-100637500D01*
X43537500Y-100637500D02*
X46200000Y-103300000D01*
X155400000Y-98900000D02*
X158062500Y-98900000D01*
X94300000Y-97900000D02*
X95300000Y-98900000D01*
X127762500Y-98600000D02*
X129700000Y-100537500D01*
D21*
X241350000Y-101110000D02*
X241350000Y-103950000D01*
D20*
X154500000Y-97050000D02*
X154500000Y-98000000D01*
X158062500Y-98900000D02*
X159700000Y-100537500D01*
X222900000Y-100537500D02*
X224162500Y-100537500D01*
X53400000Y-100337500D02*
X53400000Y-103300000D01*
X41000000Y-98100000D02*
X43537500Y-100637500D01*
X76400000Y-100437500D02*
X76400000Y-102800000D01*
X124400000Y-97900000D02*
X125100000Y-98600000D01*
X251037500Y-100437500D02*
X253000000Y-100437500D01*
X247800000Y-97200000D02*
X251037500Y-100437500D01*
X217700000Y-97900480D02*
X218599520Y-98800000D01*
X129700000Y-100537500D02*
X132962500Y-100537500D01*
X154500000Y-98000000D02*
X155400000Y-98900000D01*
X185300000Y-98900000D02*
X188162500Y-98900000D01*
X224162500Y-100537500D02*
X226450000Y-98250000D01*
X71200000Y-96950000D02*
X71200000Y-94500000D01*
X184600000Y-97050000D02*
X184600000Y-98200000D01*
X253000000Y-100437500D02*
X253000000Y-103900000D01*
X189800000Y-100537500D02*
X192562500Y-100537500D01*
X95300000Y-98900000D02*
X97762500Y-98900000D01*
X188162500Y-98900000D02*
X189800000Y-100537500D01*
X247800000Y-96950000D02*
X247800000Y-97200000D01*
X41000000Y-97050000D02*
X41000000Y-98100000D01*
X46200000Y-103300000D02*
X50437500Y-103300000D01*
X59000000Y-103010000D02*
X59000000Y-105650000D01*
X125100000Y-98600000D02*
X127762500Y-98600000D01*
X97762500Y-98900000D02*
X99500000Y-100637500D01*
X217700000Y-97050000D02*
X217700000Y-97900480D01*
X222537500Y-100537500D02*
X222900000Y-100537500D01*
X234800000Y-106100000D02*
X234800000Y-100400000D01*
X89400000Y-106300000D02*
X90100000Y-107000000D01*
X90100000Y-107000000D02*
X233900000Y-107000000D01*
X89400000Y-100200000D02*
X89400000Y-106300000D01*
X88495000Y-99295000D02*
X89400000Y-100200000D01*
X233900000Y-107000000D02*
X234800000Y-106100000D01*
X86600000Y-99295000D02*
X88495000Y-99295000D01*
D21*
X240400000Y-97690000D02*
X242040000Y-97690000D01*
X242040000Y-97690000D02*
X246200000Y-101850000D01*
X233550000Y-105250000D02*
X233550000Y-99650000D01*
X219300000Y-105100000D02*
X220100000Y-105900000D01*
X233550000Y-99650000D02*
X234800000Y-98400000D01*
X220100000Y-105900000D02*
X232900000Y-105900000D01*
X235510000Y-97690000D02*
X240400000Y-97690000D01*
X232900000Y-105900000D02*
X233550000Y-105250000D01*
X219300000Y-101950000D02*
X219300000Y-105100000D01*
X234800000Y-98400000D02*
X235510000Y-97690000D01*
D20*
X40600000Y-94700000D02*
X55100000Y-94700000D01*
X39400000Y-95900000D02*
X40600000Y-94700000D01*
X39400000Y-97050000D02*
X39400000Y-95900000D01*
X58100000Y-97700000D02*
X58100000Y-99590000D01*
X56200000Y-95800000D02*
X58100000Y-97700000D01*
X55100000Y-94700000D02*
X56200000Y-95800000D01*
X58200000Y-95800000D02*
X61805000Y-99405000D01*
X61805000Y-99405000D02*
X64100000Y-99405000D01*
D21*
X246200000Y-96100000D02*
X246200000Y-96950000D01*
D20*
X232343753Y-97756247D02*
X234500000Y-95600000D01*
X232343753Y-104056247D02*
X232343753Y-97756247D01*
X186500000Y-103900000D02*
X215800000Y-103900000D01*
X221500000Y-104900000D02*
X231500000Y-104900000D01*
X220200000Y-99500000D02*
X220600000Y-99900000D01*
X216100000Y-100100000D02*
X216700000Y-99500000D01*
X220600000Y-104000000D02*
X221500000Y-104900000D01*
X216100000Y-101950000D02*
X216100000Y-103600000D01*
X245700000Y-95600000D02*
X246200000Y-96100000D01*
X186500000Y-103900000D02*
X186200000Y-103600000D01*
X231500000Y-104900000D02*
X232343753Y-104056247D01*
X220600000Y-99900000D02*
X220600000Y-104000000D01*
X216100000Y-101950000D02*
X216100000Y-100100000D01*
X215800000Y-103900000D02*
X216100000Y-103600000D01*
X234500000Y-95600000D02*
X245700000Y-95600000D01*
X216700000Y-99500000D02*
X220200000Y-99500000D01*
X186200000Y-103600000D02*
X186200000Y-101950000D01*
X156100000Y-103600000D02*
X156100000Y-101950000D01*
X183000000Y-100000000D02*
X183000000Y-101950000D01*
X187300000Y-100100000D02*
X186700000Y-99500000D01*
X187300000Y-102900000D02*
X187300000Y-100100000D01*
X182800000Y-103900000D02*
X183000000Y-103700000D01*
X215100000Y-103300000D02*
X215300489Y-103099511D01*
X187500000Y-103100000D02*
X187500000Y-103300000D01*
X215300489Y-97849511D02*
X215300489Y-103099511D01*
X183500000Y-99500000D02*
X183000000Y-100000000D01*
X156300000Y-103900000D02*
X182800000Y-103900000D01*
X187300000Y-102900000D02*
X187500000Y-103100000D01*
X156100000Y-103600000D02*
X156300000Y-103800000D01*
X183000000Y-101950000D02*
X183000000Y-103700000D01*
X187500000Y-103300000D02*
X215100000Y-103300000D01*
X186700000Y-99500000D02*
X183500000Y-99500000D01*
X156300000Y-103800000D02*
X156300000Y-103900000D01*
X216100000Y-97050000D02*
X215300489Y-97849511D01*
X152900000Y-99900000D02*
X152900000Y-101950000D01*
X182200489Y-97849511D02*
X182200489Y-103100489D01*
X181900489Y-103400489D02*
X157300489Y-103400489D01*
X126000000Y-101950000D02*
X126000000Y-103600000D01*
X157100000Y-100200000D02*
X156300000Y-99400000D01*
X156300000Y-99400000D02*
X153400000Y-99400000D01*
X152900000Y-103400000D02*
X152900000Y-101950000D01*
X182200489Y-103100489D02*
X181900489Y-103400489D01*
X183000000Y-97050000D02*
X182200489Y-97849511D01*
X126000000Y-103600000D02*
X126400000Y-104000000D01*
X126400000Y-104000000D02*
X152400000Y-104000000D01*
X157300489Y-103400489D02*
X157100000Y-103200000D01*
X152400000Y-104000000D02*
X152400000Y-103900000D01*
X152400000Y-103900000D02*
X152900000Y-103400000D01*
X153400000Y-99400000D02*
X152900000Y-99900000D01*
X157100000Y-103200000D02*
X157100000Y-100200000D01*
X96200000Y-103600000D02*
X122600000Y-103600000D01*
X95900000Y-103200000D02*
X96200000Y-103500000D01*
X127000000Y-103000000D02*
X127000000Y-99800000D01*
X151700000Y-103000000D02*
X151200000Y-103500000D01*
X127500000Y-103500000D02*
X151200000Y-103500000D01*
X126600000Y-99400000D02*
X123200000Y-99400000D01*
X151700000Y-97600000D02*
X151700000Y-103000000D01*
X127000000Y-103000000D02*
X127500000Y-103500000D01*
X123200000Y-99400000D02*
X122800000Y-99800000D01*
X122800000Y-101950000D02*
X122800000Y-103400000D01*
X95900000Y-103200000D02*
X95900000Y-101950000D01*
X122800000Y-99800000D02*
X122800000Y-101950000D01*
X152250000Y-97050000D02*
X151700000Y-97600000D01*
X127000000Y-99800000D02*
X126600000Y-99400000D01*
X122600000Y-103600000D02*
X122800000Y-103400000D01*
X152900000Y-97050000D02*
X152250000Y-97050000D01*
X96200000Y-103500000D02*
X96200000Y-103600000D01*
X121950489Y-97849511D02*
X121400000Y-98400000D01*
X72800000Y-105600000D02*
X72800000Y-101850000D01*
X92700000Y-100100000D02*
X92700000Y-101950000D01*
X92700000Y-101950000D02*
X92700000Y-105600000D01*
X121400000Y-102600000D02*
X121000000Y-103000000D01*
X121000000Y-103000000D02*
X96900000Y-103000000D01*
X122000489Y-97849511D02*
X121950489Y-97849511D01*
X121400000Y-98400000D02*
X121400000Y-102600000D01*
X93000000Y-99800000D02*
X92700000Y-100100000D01*
X96900000Y-103000000D02*
X96900000Y-100400000D01*
X122800000Y-97050000D02*
X122000489Y-97849511D01*
X96900000Y-100400000D02*
X96300000Y-99800000D01*
X96300000Y-99800000D02*
X93000000Y-99800000D01*
X69600000Y-101000000D02*
X71213569Y-99386431D01*
X42600000Y-107400000D02*
X43000000Y-107800000D01*
X92200000Y-92000000D02*
X75400000Y-92000000D01*
X69600000Y-107300000D02*
X69600000Y-101850000D01*
X43000000Y-107800000D02*
X69100000Y-107800000D01*
X75400000Y-92000000D02*
X74436431Y-92963569D01*
X92700000Y-97050000D02*
X92700000Y-92500000D01*
X69600000Y-101850000D02*
X69600000Y-101000000D01*
X69100000Y-107800000D02*
X69600000Y-107300000D01*
X74436431Y-98736431D02*
X73786431Y-99386431D01*
X42600000Y-101950000D02*
X42600000Y-107400000D01*
X73786431Y-99386431D02*
X71213569Y-99386431D01*
X92700000Y-92500000D02*
X92200000Y-92000000D01*
X74436431Y-92963569D02*
X74436431Y-98736431D01*
X39400000Y-101950000D02*
X39400000Y-105000000D01*
X69600000Y-96950000D02*
X69600000Y-99400000D01*
G04 #@! TA.AperFunction,Conductor*
G36*
X255733621Y-90928502D02*
G01*
X255780114Y-90982158D01*
X255791500Y-91034500D01*
X255791500Y-107765500D01*
X255771498Y-107833621D01*
X255717842Y-107880114D01*
X255665500Y-107891500D01*
X70168626Y-107891500D01*
X70100505Y-107871498D01*
X70054012Y-107817842D01*
X70043908Y-107747568D01*
X70068664Y-107688796D01*
X70126496Y-107613429D01*
X70126497Y-107613427D01*
X70131524Y-107606876D01*
X70192838Y-107458851D01*
X70196111Y-107433987D01*
X70199451Y-107408621D01*
X70208500Y-107339886D01*
X70208500Y-107339880D01*
X70212672Y-107308189D01*
X70213750Y-107300000D01*
X70209578Y-107268307D01*
X70208500Y-107251864D01*
X70208500Y-103189754D01*
X70228502Y-103121633D01*
X70282158Y-103075140D01*
X70290270Y-103071772D01*
X70338300Y-103053766D01*
X70338301Y-103053766D01*
X70346705Y-103050615D01*
X70346964Y-103051307D01*
X70409374Y-103037657D01*
X70453385Y-103050580D01*
X70453538Y-103050172D01*
X70459112Y-103052262D01*
X70461034Y-103052826D01*
X70461939Y-103053321D01*
X70582394Y-103098478D01*
X70597649Y-103102105D01*
X70648514Y-103107631D01*
X70655328Y-103108000D01*
X70927885Y-103108000D01*
X70943124Y-103103525D01*
X70944329Y-103102135D01*
X70946000Y-103094452D01*
X70946000Y-103089884D01*
X71454000Y-103089884D01*
X71458475Y-103105123D01*
X71459865Y-103106328D01*
X71467548Y-103107999D01*
X71744669Y-103107999D01*
X71751490Y-103107629D01*
X71802352Y-103102105D01*
X71817604Y-103098479D01*
X71938061Y-103053321D01*
X71938966Y-103052826D01*
X71939966Y-103052607D01*
X71946462Y-103050172D01*
X71946814Y-103051110D01*
X72008323Y-103037657D01*
X72053212Y-103050838D01*
X72053295Y-103050615D01*
X72061699Y-103053766D01*
X72061700Y-103053766D01*
X72109730Y-103071772D01*
X72166495Y-103114414D01*
X72191194Y-103180976D01*
X72191500Y-103189754D01*
X72191500Y-104869710D01*
X72171498Y-104937831D01*
X72159136Y-104954020D01*
X72065523Y-105057988D01*
X72060960Y-105063056D01*
X71965473Y-105228444D01*
X71906458Y-105410072D01*
X71905768Y-105416633D01*
X71905768Y-105416635D01*
X71892575Y-105542163D01*
X71886496Y-105600000D01*
X71887186Y-105606565D01*
X71901421Y-105742000D01*
X71906458Y-105789928D01*
X71965473Y-105971556D01*
X72060960Y-106136944D01*
X72065378Y-106141851D01*
X72065379Y-106141852D01*
X72171868Y-106260120D01*
X72188747Y-106278866D01*
X72343248Y-106391118D01*
X72349276Y-106393802D01*
X72349278Y-106393803D01*
X72511681Y-106466109D01*
X72517712Y-106468794D01*
X72611113Y-106488647D01*
X72698056Y-106507128D01*
X72698061Y-106507128D01*
X72704513Y-106508500D01*
X72895487Y-106508500D01*
X72901939Y-106507128D01*
X72901944Y-106507128D01*
X72988887Y-106488647D01*
X73082288Y-106468794D01*
X73088319Y-106466109D01*
X73250722Y-106393803D01*
X73250724Y-106393802D01*
X73256752Y-106391118D01*
X73411253Y-106278866D01*
X73428132Y-106260120D01*
X73534621Y-106141852D01*
X73534622Y-106141851D01*
X73539040Y-106136944D01*
X73634527Y-105971556D01*
X73693542Y-105789928D01*
X73698580Y-105742000D01*
X73712814Y-105606565D01*
X73713504Y-105600000D01*
X73707425Y-105542163D01*
X73694232Y-105416635D01*
X73694232Y-105416633D01*
X73693542Y-105410072D01*
X73634527Y-105228444D01*
X73539040Y-105063056D01*
X73534477Y-105057988D01*
X73440864Y-104954020D01*
X73410146Y-104890013D01*
X73408500Y-104869710D01*
X73408500Y-103189754D01*
X73428502Y-103121633D01*
X73482158Y-103075140D01*
X73490270Y-103071772D01*
X73538297Y-103053767D01*
X73546705Y-103050615D01*
X73663261Y-102963261D01*
X73750615Y-102846705D01*
X73801745Y-102710316D01*
X73808500Y-102648134D01*
X73808500Y-101051866D01*
X73801745Y-100989684D01*
X73750615Y-100853295D01*
X73663261Y-100736739D01*
X73546705Y-100649385D01*
X73410316Y-100598255D01*
X73348134Y-100591500D01*
X72251866Y-100591500D01*
X72189684Y-100598255D01*
X72170230Y-100605548D01*
X72061699Y-100646234D01*
X72061696Y-100646236D01*
X72053295Y-100649385D01*
X72053036Y-100648693D01*
X71990626Y-100662343D01*
X71946615Y-100649420D01*
X71946462Y-100649828D01*
X71940888Y-100647738D01*
X71938966Y-100647174D01*
X71938061Y-100646679D01*
X71817606Y-100601522D01*
X71802351Y-100597895D01*
X71751486Y-100592369D01*
X71744672Y-100592000D01*
X71472115Y-100592000D01*
X71456876Y-100596475D01*
X71455671Y-100597865D01*
X71454000Y-100605548D01*
X71454000Y-103089884D01*
X70946000Y-103089884D01*
X70946000Y-100610118D01*
X70945370Y-100607972D01*
X70945370Y-100536975D01*
X70977171Y-100483378D01*
X71428713Y-100031836D01*
X71491025Y-99997810D01*
X71517808Y-99994931D01*
X73738295Y-99994931D01*
X73754738Y-99996009D01*
X73786431Y-100000181D01*
X73794620Y-99999103D01*
X73826305Y-99994932D01*
X73826315Y-99994931D01*
X73826316Y-99994931D01*
X73845587Y-99992394D01*
X73933538Y-99980815D01*
X73937095Y-99980347D01*
X73937097Y-99980347D01*
X73945282Y-99979269D01*
X74093307Y-99917955D01*
X74099958Y-99912852D01*
X74188503Y-99844908D01*
X74188506Y-99844905D01*
X74213868Y-99825444D01*
X74220418Y-99820418D01*
X74239889Y-99795044D01*
X74250747Y-99782664D01*
X74832665Y-99200746D01*
X74845056Y-99189879D01*
X74863868Y-99175444D01*
X74870418Y-99170418D01*
X74894905Y-99138506D01*
X74894909Y-99138502D01*
X74967955Y-99043307D01*
X74989740Y-98990713D01*
X75034288Y-98935432D01*
X75101651Y-98913011D01*
X75170443Y-98930569D01*
X75218821Y-98982531D01*
X75225672Y-98999054D01*
X75231586Y-99016779D01*
X75237761Y-99029962D01*
X75323063Y-99167807D01*
X75332099Y-99179208D01*
X75446828Y-99293738D01*
X75455762Y-99300794D01*
X75496823Y-99358712D01*
X75500053Y-99429635D01*
X75464426Y-99491046D01*
X75456593Y-99497846D01*
X75450652Y-99501522D01*
X75325695Y-99626697D01*
X75321855Y-99632927D01*
X75321854Y-99632928D01*
X75239005Y-99767334D01*
X75232885Y-99777262D01*
X75206436Y-99857005D01*
X75184380Y-99923502D01*
X75177203Y-99945139D01*
X75176503Y-99951975D01*
X75176502Y-99951978D01*
X75175367Y-99963056D01*
X75166500Y-100049600D01*
X75166500Y-100825400D01*
X75166837Y-100828646D01*
X75166837Y-100828650D01*
X75176537Y-100922134D01*
X75177474Y-100931166D01*
X75179655Y-100937702D01*
X75179655Y-100937704D01*
X75221790Y-101063996D01*
X75233450Y-101098946D01*
X75326522Y-101249348D01*
X75331704Y-101254521D01*
X75335580Y-101258390D01*
X75451697Y-101374305D01*
X75457927Y-101378145D01*
X75457928Y-101378146D01*
X75595090Y-101462694D01*
X75602262Y-101467115D01*
X75683128Y-101493937D01*
X75705167Y-101501247D01*
X75763527Y-101541678D01*
X75790764Y-101607242D01*
X75791500Y-101620840D01*
X75791500Y-102069710D01*
X75771498Y-102137831D01*
X75759136Y-102154020D01*
X75706815Y-102212129D01*
X75660960Y-102263056D01*
X75638697Y-102301617D01*
X75568896Y-102422516D01*
X75565473Y-102428444D01*
X75506458Y-102610072D01*
X75505768Y-102616633D01*
X75505768Y-102616635D01*
X75490292Y-102763882D01*
X75486496Y-102800000D01*
X75487186Y-102806565D01*
X75505719Y-102982894D01*
X75506458Y-102989928D01*
X75565473Y-103171556D01*
X75568776Y-103177278D01*
X75568777Y-103177279D01*
X75583128Y-103202135D01*
X75660960Y-103336944D01*
X75665378Y-103341851D01*
X75665379Y-103341852D01*
X75689195Y-103368302D01*
X75788747Y-103478866D01*
X75849108Y-103522721D01*
X75911856Y-103568310D01*
X75943248Y-103591118D01*
X75949276Y-103593802D01*
X75949278Y-103593803D01*
X76052781Y-103639885D01*
X76117712Y-103668794D01*
X76211112Y-103688647D01*
X76298056Y-103707128D01*
X76298061Y-103707128D01*
X76304513Y-103708500D01*
X76495487Y-103708500D01*
X76501939Y-103707128D01*
X76501944Y-103707128D01*
X76588888Y-103688647D01*
X76682288Y-103668794D01*
X76747219Y-103639885D01*
X76850722Y-103593803D01*
X76850724Y-103593802D01*
X76856752Y-103591118D01*
X76888145Y-103568310D01*
X76950892Y-103522721D01*
X77011253Y-103478866D01*
X77110805Y-103368302D01*
X77134621Y-103341852D01*
X77134622Y-103341851D01*
X77139040Y-103336944D01*
X77216872Y-103202135D01*
X77231223Y-103177279D01*
X77231224Y-103177278D01*
X77234527Y-103171556D01*
X77293542Y-102989928D01*
X77294282Y-102982894D01*
X77312814Y-102806565D01*
X77313504Y-102800000D01*
X77309708Y-102763882D01*
X77294232Y-102616635D01*
X77294232Y-102616633D01*
X77293542Y-102610072D01*
X77234527Y-102428444D01*
X77231105Y-102422516D01*
X77161303Y-102301617D01*
X77139040Y-102263056D01*
X77093185Y-102212129D01*
X77040864Y-102154020D01*
X77010146Y-102090013D01*
X77008500Y-102069710D01*
X77008500Y-102063580D01*
X85143752Y-102063580D01*
X85168477Y-102181421D01*
X85171537Y-102191617D01*
X85252263Y-102396029D01*
X85256994Y-102405561D01*
X85371016Y-102593462D01*
X85377280Y-102602052D01*
X85521327Y-102768052D01*
X85528958Y-102775472D01*
X85698911Y-102914826D01*
X85707678Y-102920850D01*
X85898682Y-103029576D01*
X85908346Y-103034041D01*
X86114941Y-103109031D01*
X86125208Y-103111802D01*
X86328174Y-103148504D01*
X86341414Y-103147085D01*
X86346000Y-103132450D01*
X86346000Y-103128849D01*
X86854000Y-103128849D01*
X86858310Y-103143527D01*
X86870193Y-103145590D01*
X86949325Y-103138876D01*
X86959797Y-103137086D01*
X87172535Y-103081870D01*
X87182575Y-103078335D01*
X87382970Y-102988063D01*
X87392256Y-102982894D01*
X87574575Y-102860150D01*
X87582870Y-102853481D01*
X87741900Y-102701772D01*
X87748941Y-102693814D01*
X87880141Y-102517475D01*
X87885745Y-102508438D01*
X87985357Y-102312516D01*
X87989357Y-102302665D01*
X88054534Y-102092760D01*
X88056817Y-102082376D01*
X88058861Y-102066957D01*
X88056665Y-102052793D01*
X88043478Y-102049000D01*
X86872115Y-102049000D01*
X86856876Y-102053475D01*
X86855671Y-102054865D01*
X86854000Y-102062548D01*
X86854000Y-103128849D01*
X86346000Y-103128849D01*
X86346000Y-102067115D01*
X86341525Y-102051876D01*
X86340135Y-102050671D01*
X86332452Y-102049000D01*
X85158808Y-102049000D01*
X85145277Y-102052973D01*
X85143752Y-102063580D01*
X77008500Y-102063580D01*
X77008500Y-101620879D01*
X77028502Y-101552758D01*
X77082158Y-101506265D01*
X77094623Y-101501356D01*
X77191993Y-101468870D01*
X77191995Y-101468869D01*
X77198946Y-101466550D01*
X77349348Y-101373478D01*
X77358810Y-101364000D01*
X77469134Y-101253483D01*
X77474305Y-101248303D01*
X77514713Y-101182749D01*
X77563275Y-101103968D01*
X77563276Y-101103966D01*
X77567115Y-101097738D01*
X77613251Y-100958642D01*
X77620632Y-100936389D01*
X77620632Y-100936387D01*
X77622797Y-100929861D01*
X77624343Y-100914779D01*
X77627909Y-100879969D01*
X77633500Y-100825400D01*
X77633500Y-100049600D01*
X77630299Y-100018750D01*
X77623238Y-99950692D01*
X77623237Y-99950688D01*
X77622526Y-99943834D01*
X77620228Y-99936944D01*
X77568868Y-99783002D01*
X77566550Y-99776054D01*
X77473478Y-99625652D01*
X77458830Y-99611029D01*
X77379019Y-99531358D01*
X77348303Y-99500695D01*
X77343765Y-99497898D01*
X77303176Y-99440647D01*
X77299946Y-99369724D01*
X77335572Y-99308313D01*
X77344068Y-99300938D01*
X77354207Y-99292902D01*
X77468739Y-99178171D01*
X77477751Y-99166760D01*
X77562816Y-99028757D01*
X77568963Y-99015576D01*
X77620138Y-98861290D01*
X77623005Y-98847914D01*
X77632672Y-98753562D01*
X77633000Y-98747146D01*
X77633000Y-98634615D01*
X77628525Y-98619376D01*
X77627135Y-98618171D01*
X77619452Y-98616500D01*
X76272000Y-98616500D01*
X76203879Y-98596498D01*
X76157386Y-98542842D01*
X76146000Y-98490500D01*
X76146000Y-98090385D01*
X76654000Y-98090385D01*
X76658475Y-98105624D01*
X76659865Y-98106829D01*
X76667548Y-98108500D01*
X77614884Y-98108500D01*
X77630123Y-98104025D01*
X77631328Y-98102635D01*
X77632999Y-98094952D01*
X77632999Y-97977905D01*
X77632662Y-97971386D01*
X77622743Y-97875794D01*
X77619851Y-97862400D01*
X77568412Y-97708216D01*
X77562239Y-97695038D01*
X77476937Y-97557193D01*
X77467901Y-97545792D01*
X77353171Y-97431261D01*
X77341760Y-97422249D01*
X77203757Y-97337184D01*
X77190576Y-97331037D01*
X77036290Y-97279862D01*
X77022914Y-97276995D01*
X76928562Y-97267328D01*
X76922145Y-97267000D01*
X76672115Y-97267000D01*
X76656876Y-97271475D01*
X76655671Y-97272865D01*
X76654000Y-97280548D01*
X76654000Y-98090385D01*
X76146000Y-98090385D01*
X76146000Y-97285116D01*
X76141525Y-97269877D01*
X76140135Y-97268672D01*
X76132452Y-97267001D01*
X75877905Y-97267001D01*
X75871386Y-97267338D01*
X75775794Y-97277257D01*
X75762400Y-97280149D01*
X75608216Y-97331588D01*
X75595038Y-97337761D01*
X75457193Y-97423063D01*
X75445792Y-97432099D01*
X75331261Y-97546829D01*
X75322249Y-97558240D01*
X75278191Y-97629716D01*
X75225419Y-97677209D01*
X75155348Y-97688633D01*
X75090224Y-97660359D01*
X75050724Y-97601365D01*
X75044931Y-97563600D01*
X75044931Y-93267808D01*
X75064933Y-93199687D01*
X75081836Y-93178713D01*
X75615144Y-92645405D01*
X75677456Y-92611379D01*
X75704239Y-92608500D01*
X91895761Y-92608500D01*
X91963882Y-92628502D01*
X91984856Y-92645405D01*
X92054595Y-92715144D01*
X92088621Y-92777456D01*
X92091500Y-92804239D01*
X92091500Y-95710246D01*
X92071498Y-95778367D01*
X92017842Y-95824860D01*
X92009730Y-95828228D01*
X91963908Y-95845406D01*
X91953295Y-95849385D01*
X91836739Y-95936739D01*
X91749385Y-96053295D01*
X91698255Y-96189684D01*
X91691500Y-96251866D01*
X91691500Y-97848134D01*
X91698255Y-97910316D01*
X91749385Y-98046705D01*
X91836739Y-98163261D01*
X91953295Y-98250615D01*
X92089684Y-98301745D01*
X92151866Y-98308500D01*
X93248134Y-98308500D01*
X93310316Y-98301745D01*
X93398461Y-98268701D01*
X93438301Y-98253766D01*
X93438304Y-98253764D01*
X93446705Y-98250615D01*
X93447024Y-98251466D01*
X93508849Y-98237945D01*
X93553166Y-98250958D01*
X93553295Y-98250615D01*
X93557981Y-98252372D01*
X93557985Y-98252373D01*
X93561696Y-98253764D01*
X93561699Y-98253766D01*
X93601539Y-98268701D01*
X93689684Y-98301745D01*
X93751866Y-98308500D01*
X93790026Y-98308500D01*
X93858147Y-98328502D01*
X93866730Y-98334538D01*
X93891379Y-98353452D01*
X93903770Y-98364319D01*
X94515856Y-98976405D01*
X94549882Y-99038717D01*
X94544817Y-99109532D01*
X94502270Y-99166368D01*
X94435750Y-99191179D01*
X94426761Y-99191500D01*
X93048136Y-99191500D01*
X93031693Y-99190422D01*
X93000000Y-99186250D01*
X92991811Y-99187328D01*
X92960126Y-99191499D01*
X92960117Y-99191500D01*
X92960115Y-99191500D01*
X92960109Y-99191501D01*
X92960107Y-99191501D01*
X92860543Y-99204609D01*
X92849336Y-99206084D01*
X92849334Y-99206085D01*
X92841149Y-99207162D01*
X92693124Y-99268476D01*
X92686573Y-99273503D01*
X92686571Y-99273504D01*
X92641208Y-99308313D01*
X92597928Y-99341523D01*
X92597925Y-99341526D01*
X92566013Y-99366013D01*
X92560983Y-99372568D01*
X92546548Y-99391379D01*
X92535681Y-99403770D01*
X92303766Y-99635685D01*
X92291375Y-99646552D01*
X92266013Y-99666013D01*
X92241526Y-99697925D01*
X92241523Y-99697928D01*
X92224219Y-99720479D01*
X92175317Y-99784209D01*
X92168476Y-99793124D01*
X92107162Y-99941149D01*
X92104860Y-99958634D01*
X92091500Y-100060115D01*
X92091500Y-100060120D01*
X92086250Y-100100000D01*
X92087328Y-100108188D01*
X92090422Y-100131690D01*
X92091500Y-100148136D01*
X92091500Y-100610246D01*
X92071498Y-100678367D01*
X92017842Y-100724860D01*
X92009730Y-100728228D01*
X91963908Y-100745406D01*
X91953295Y-100749385D01*
X91836739Y-100836739D01*
X91749385Y-100953295D01*
X91698255Y-101089684D01*
X91691500Y-101151866D01*
X91691500Y-102748134D01*
X91698255Y-102810316D01*
X91749385Y-102946705D01*
X91836739Y-103063261D01*
X91953295Y-103150615D01*
X91961703Y-103153767D01*
X92009730Y-103171772D01*
X92066495Y-103214414D01*
X92091194Y-103280976D01*
X92091500Y-103289754D01*
X92091500Y-104869710D01*
X92071498Y-104937831D01*
X92059136Y-104954020D01*
X91965523Y-105057988D01*
X91960960Y-105063056D01*
X91865473Y-105228444D01*
X91806458Y-105410072D01*
X91805768Y-105416633D01*
X91805768Y-105416635D01*
X91792575Y-105542163D01*
X91786496Y-105600000D01*
X91787186Y-105606565D01*
X91801421Y-105742000D01*
X91806458Y-105789928D01*
X91865473Y-105971556D01*
X91960960Y-106136944D01*
X92000801Y-106181192D01*
X92031517Y-106245198D01*
X92022752Y-106315651D01*
X91977289Y-106370182D01*
X91907163Y-106391500D01*
X90404239Y-106391500D01*
X90336118Y-106371498D01*
X90315144Y-106354595D01*
X90045405Y-106084856D01*
X90011379Y-106022544D01*
X90008500Y-105995761D01*
X90008500Y-100248136D01*
X90009578Y-100231690D01*
X90012672Y-100208188D01*
X90013750Y-100200000D01*
X90008500Y-100160122D01*
X90008500Y-100160115D01*
X89999764Y-100093757D01*
X89993916Y-100049338D01*
X89992838Y-100041150D01*
X89931524Y-99893125D01*
X89894337Y-99844662D01*
X89858477Y-99797928D01*
X89858474Y-99797925D01*
X89833987Y-99766013D01*
X89826301Y-99760115D01*
X89808621Y-99746548D01*
X89796230Y-99735681D01*
X88959315Y-98898766D01*
X88948448Y-98886375D01*
X88934013Y-98867563D01*
X88928987Y-98861013D01*
X88897075Y-98836526D01*
X88897072Y-98836523D01*
X88874726Y-98819376D01*
X88808429Y-98768504D01*
X88808427Y-98768503D01*
X88801876Y-98763476D01*
X88653851Y-98702162D01*
X88645664Y-98701084D01*
X88645663Y-98701084D01*
X88634458Y-98699609D01*
X88603262Y-98695502D01*
X88534885Y-98686500D01*
X88534882Y-98686500D01*
X88534874Y-98686499D01*
X88503189Y-98682328D01*
X88495000Y-98681250D01*
X88463307Y-98685422D01*
X88446864Y-98686500D01*
X88015766Y-98686500D01*
X87947645Y-98666498D01*
X87908047Y-98625866D01*
X87901541Y-98615144D01*
X87826623Y-98491683D01*
X87776557Y-98433987D01*
X87679023Y-98321588D01*
X87679021Y-98321586D01*
X87675523Y-98317555D01*
X87639880Y-98288330D01*
X87599886Y-98229671D01*
X87597954Y-98158701D01*
X87634698Y-98097952D01*
X87653468Y-98083752D01*
X87793120Y-97997332D01*
X87799348Y-97993478D01*
X87924305Y-97868303D01*
X87930527Y-97858209D01*
X88013275Y-97723968D01*
X88013276Y-97723966D01*
X88017115Y-97717738D01*
X88056167Y-97600000D01*
X88070632Y-97556389D01*
X88070632Y-97556387D01*
X88072797Y-97549861D01*
X88073538Y-97542635D01*
X88079431Y-97485116D01*
X88083500Y-97445400D01*
X88083500Y-96144600D01*
X88077301Y-96084856D01*
X88073238Y-96045692D01*
X88073237Y-96045688D01*
X88072526Y-96038834D01*
X88016550Y-95871054D01*
X87923478Y-95720652D01*
X87798303Y-95595695D01*
X87739370Y-95559368D01*
X87653968Y-95506725D01*
X87653966Y-95506724D01*
X87647738Y-95502885D01*
X87567995Y-95476436D01*
X87486389Y-95449368D01*
X87486387Y-95449368D01*
X87479861Y-95447203D01*
X87473025Y-95446503D01*
X87473022Y-95446502D01*
X87429969Y-95442091D01*
X87375400Y-95436500D01*
X85824600Y-95436500D01*
X85821354Y-95436837D01*
X85821350Y-95436837D01*
X85725692Y-95446762D01*
X85725688Y-95446763D01*
X85718834Y-95447474D01*
X85712298Y-95449655D01*
X85712296Y-95449655D01*
X85663266Y-95466013D01*
X85551054Y-95503450D01*
X85400652Y-95596522D01*
X85275695Y-95721697D01*
X85271855Y-95727927D01*
X85271854Y-95727928D01*
X85189177Y-95862055D01*
X85182885Y-95872262D01*
X85169191Y-95913548D01*
X85146801Y-95981054D01*
X85127203Y-96040139D01*
X85126503Y-96046975D01*
X85126502Y-96046978D01*
X85122885Y-96082285D01*
X85116500Y-96144600D01*
X85116500Y-97445400D01*
X85116837Y-97448646D01*
X85116837Y-97448650D01*
X85126589Y-97542635D01*
X85127474Y-97551166D01*
X85129655Y-97557702D01*
X85129655Y-97557704D01*
X85163197Y-97658240D01*
X85183450Y-97718946D01*
X85276522Y-97869348D01*
X85401697Y-97994305D01*
X85407927Y-97998145D01*
X85407928Y-97998146D01*
X85422555Y-98007162D01*
X85547340Y-98084081D01*
X85594832Y-98136852D01*
X85606256Y-98206924D01*
X85577982Y-98272048D01*
X85568195Y-98282510D01*
X85543966Y-98305624D01*
X85453865Y-98391576D01*
X85450682Y-98395854D01*
X85444795Y-98403766D01*
X85316246Y-98576542D01*
X85313830Y-98581293D01*
X85313828Y-98581297D01*
X85284482Y-98639017D01*
X85211760Y-98782051D01*
X85210178Y-98787145D01*
X85210177Y-98787148D01*
X85162242Y-98941523D01*
X85143393Y-99002227D01*
X85142692Y-99007516D01*
X85115813Y-99210322D01*
X85113102Y-99230774D01*
X85113302Y-99236103D01*
X85113302Y-99236105D01*
X85116813Y-99329635D01*
X85121751Y-99461158D01*
X85169093Y-99686791D01*
X85171051Y-99691750D01*
X85171052Y-99691752D01*
X85248283Y-99887311D01*
X85253776Y-99901221D01*
X85256543Y-99905780D01*
X85256544Y-99905783D01*
X85314054Y-100000556D01*
X85373377Y-100098317D01*
X85376874Y-100102347D01*
X85518836Y-100265944D01*
X85524477Y-100272445D01*
X85528608Y-100275832D01*
X85698627Y-100415240D01*
X85698633Y-100415244D01*
X85702755Y-100418624D01*
X85707398Y-100421267D01*
X85734735Y-100436829D01*
X85784041Y-100487912D01*
X85797902Y-100557542D01*
X85771918Y-100623613D01*
X85742768Y-100650851D01*
X85625422Y-100729852D01*
X85617130Y-100736519D01*
X85458100Y-100888228D01*
X85451059Y-100896186D01*
X85319859Y-101072525D01*
X85314255Y-101081562D01*
X85214643Y-101277484D01*
X85210643Y-101287335D01*
X85145466Y-101497240D01*
X85143183Y-101507624D01*
X85141139Y-101523043D01*
X85143335Y-101537207D01*
X85156522Y-101541000D01*
X88041192Y-101541000D01*
X88054723Y-101537027D01*
X88056248Y-101526420D01*
X88031523Y-101408579D01*
X88028463Y-101398383D01*
X87947737Y-101193971D01*
X87943006Y-101184439D01*
X87828984Y-100996538D01*
X87822720Y-100987948D01*
X87678673Y-100821948D01*
X87671042Y-100814528D01*
X87501089Y-100675174D01*
X87492326Y-100669152D01*
X87465289Y-100653762D01*
X87415982Y-100602680D01*
X87402120Y-100533049D01*
X87428103Y-100466978D01*
X87457253Y-100439739D01*
X87516279Y-100400000D01*
X87579319Y-100357559D01*
X87746135Y-100198424D01*
X87751055Y-100191812D01*
X87792492Y-100136118D01*
X87883754Y-100013458D01*
X87904632Y-99972394D01*
X87953334Y-99920737D01*
X88016948Y-99903500D01*
X88190761Y-99903500D01*
X88258882Y-99923502D01*
X88279856Y-99940405D01*
X88754595Y-100415144D01*
X88788621Y-100477456D01*
X88791500Y-100504239D01*
X88791500Y-106251864D01*
X88790422Y-106268307D01*
X88786250Y-106300000D01*
X88791500Y-106339880D01*
X88791500Y-106339885D01*
X88799316Y-106399246D01*
X88800320Y-106406873D01*
X88800320Y-106406876D01*
X88804828Y-106441118D01*
X88807162Y-106458851D01*
X88868476Y-106606876D01*
X88873503Y-106613427D01*
X88873504Y-106613429D01*
X88941520Y-106702069D01*
X88941526Y-106702075D01*
X88966013Y-106733987D01*
X88972568Y-106739017D01*
X88991379Y-106753452D01*
X89003770Y-106764319D01*
X89635685Y-107396234D01*
X89646552Y-107408625D01*
X89666013Y-107433987D01*
X89672563Y-107439013D01*
X89697925Y-107458474D01*
X89697928Y-107458477D01*
X89767318Y-107511722D01*
X89786570Y-107526495D01*
X89786572Y-107526496D01*
X89793125Y-107531524D01*
X89941150Y-107592838D01*
X90060115Y-107608500D01*
X90060120Y-107608500D01*
X90060129Y-107608501D01*
X90091812Y-107612672D01*
X90100000Y-107613750D01*
X90131693Y-107609578D01*
X90148136Y-107608500D01*
X233851864Y-107608500D01*
X233868307Y-107609578D01*
X233900000Y-107613750D01*
X233908189Y-107612672D01*
X233939874Y-107608501D01*
X233939884Y-107608500D01*
X233939885Y-107608500D01*
X233939901Y-107608498D01*
X234039457Y-107595391D01*
X234050664Y-107593916D01*
X234050666Y-107593915D01*
X234058851Y-107592838D01*
X234206876Y-107531524D01*
X234232683Y-107511722D01*
X234302072Y-107458477D01*
X234302075Y-107458474D01*
X234312252Y-107450665D01*
X234333987Y-107433987D01*
X234339017Y-107427432D01*
X234353452Y-107408621D01*
X234364319Y-107396230D01*
X235196234Y-106564315D01*
X235208625Y-106553448D01*
X235227437Y-106539013D01*
X235233987Y-106533987D01*
X235258474Y-106502075D01*
X235258480Y-106502069D01*
X235326496Y-106413429D01*
X235326497Y-106413427D01*
X235331524Y-106406876D01*
X235384547Y-106278866D01*
X235386581Y-106273955D01*
X235389678Y-106266479D01*
X235389678Y-106266478D01*
X235392838Y-106258850D01*
X235408500Y-106139885D01*
X235408500Y-106139878D01*
X235413750Y-106100000D01*
X235409578Y-106068307D01*
X235408500Y-106051864D01*
X235408500Y-102154669D01*
X238617001Y-102154669D01*
X238617371Y-102161490D01*
X238622895Y-102212352D01*
X238626521Y-102227604D01*
X238671676Y-102348054D01*
X238680214Y-102363649D01*
X238756715Y-102465724D01*
X238769276Y-102478285D01*
X238871351Y-102554786D01*
X238886946Y-102563324D01*
X239007394Y-102608478D01*
X239022649Y-102612105D01*
X239073514Y-102617631D01*
X239080328Y-102618000D01*
X239177885Y-102618000D01*
X239193124Y-102613525D01*
X239194329Y-102612135D01*
X239196000Y-102604452D01*
X239196000Y-102599884D01*
X239704000Y-102599884D01*
X239708475Y-102615123D01*
X239709865Y-102616328D01*
X239717548Y-102617999D01*
X239819669Y-102617999D01*
X239826490Y-102617629D01*
X239877352Y-102612105D01*
X239892604Y-102608479D01*
X240013054Y-102563324D01*
X240028649Y-102554786D01*
X240130724Y-102478285D01*
X240143285Y-102465724D01*
X240219786Y-102363649D01*
X240228324Y-102348054D01*
X240273480Y-102227602D01*
X240277159Y-102212129D01*
X240312378Y-102150484D01*
X240375333Y-102117665D01*
X240446038Y-102124092D01*
X240502044Y-102167725D01*
X240522324Y-102212134D01*
X240522402Y-102212460D01*
X240523255Y-102220316D01*
X240574385Y-102356705D01*
X240661739Y-102473261D01*
X240668919Y-102478642D01*
X240675269Y-102484992D01*
X240673634Y-102486627D01*
X240708579Y-102533359D01*
X240716500Y-102577329D01*
X240716500Y-103197476D01*
X240696498Y-103265597D01*
X240684142Y-103281779D01*
X240610960Y-103363056D01*
X240566606Y-103439880D01*
X240532331Y-103499246D01*
X240515473Y-103528444D01*
X240456458Y-103710072D01*
X240455768Y-103716633D01*
X240455768Y-103716635D01*
X240440821Y-103858851D01*
X240436496Y-103900000D01*
X240437186Y-103906565D01*
X240454782Y-104073977D01*
X240456458Y-104089928D01*
X240515473Y-104271556D01*
X240518776Y-104277278D01*
X240518777Y-104277279D01*
X240536875Y-104308625D01*
X240610960Y-104436944D01*
X240615378Y-104441851D01*
X240615379Y-104441852D01*
X240683609Y-104517629D01*
X240738747Y-104578866D01*
X240893248Y-104691118D01*
X240899276Y-104693802D01*
X240899278Y-104693803D01*
X241061681Y-104766109D01*
X241067712Y-104768794D01*
X241161113Y-104788647D01*
X241248056Y-104807128D01*
X241248061Y-104807128D01*
X241254513Y-104808500D01*
X241445487Y-104808500D01*
X241451939Y-104807128D01*
X241451944Y-104807128D01*
X241538887Y-104788647D01*
X241632288Y-104768794D01*
X241638319Y-104766109D01*
X241800722Y-104693803D01*
X241800724Y-104693802D01*
X241806752Y-104691118D01*
X241961253Y-104578866D01*
X242016391Y-104517629D01*
X242084621Y-104441852D01*
X242084622Y-104441851D01*
X242089040Y-104436944D01*
X242163125Y-104308625D01*
X242181223Y-104277279D01*
X242181224Y-104277278D01*
X242184527Y-104271556D01*
X242243542Y-104089928D01*
X242245219Y-104073977D01*
X242262814Y-103906565D01*
X242263504Y-103900000D01*
X242259179Y-103858851D01*
X242244232Y-103716635D01*
X242244232Y-103716633D01*
X242243542Y-103710072D01*
X242184527Y-103528444D01*
X242167670Y-103499246D01*
X242133394Y-103439880D01*
X242089040Y-103363056D01*
X242015863Y-103281785D01*
X241985147Y-103217779D01*
X241983500Y-103197476D01*
X241983500Y-102577329D01*
X242003502Y-102509208D01*
X242025407Y-102485668D01*
X242024731Y-102484992D01*
X242031081Y-102478642D01*
X242038261Y-102473261D01*
X242125615Y-102356705D01*
X242176745Y-102220316D01*
X242182994Y-102162793D01*
X242183131Y-102161531D01*
X242183500Y-102158134D01*
X242183500Y-100061866D01*
X242176745Y-99999684D01*
X242125615Y-99863295D01*
X242038261Y-99746739D01*
X241921705Y-99659385D01*
X241785316Y-99608255D01*
X241723134Y-99601500D01*
X240976866Y-99601500D01*
X240914684Y-99608255D01*
X240778295Y-99659385D01*
X240661739Y-99746739D01*
X240574385Y-99863295D01*
X240523255Y-99999684D01*
X240522402Y-100007533D01*
X240522322Y-100007871D01*
X240487104Y-100069517D01*
X240424148Y-100102336D01*
X240353443Y-100095909D01*
X240297437Y-100052276D01*
X240277157Y-100007866D01*
X240273480Y-99992398D01*
X240228324Y-99871946D01*
X240219786Y-99856351D01*
X240143285Y-99754276D01*
X240130724Y-99741715D01*
X240028649Y-99665214D01*
X240013054Y-99656676D01*
X239892606Y-99611522D01*
X239877351Y-99607895D01*
X239826486Y-99602369D01*
X239819672Y-99602000D01*
X239722115Y-99602000D01*
X239706876Y-99606475D01*
X239705671Y-99607865D01*
X239704000Y-99615548D01*
X239704000Y-102599884D01*
X239196000Y-102599884D01*
X239196000Y-101382115D01*
X239191525Y-101366876D01*
X239190135Y-101365671D01*
X239182452Y-101364000D01*
X238635116Y-101364000D01*
X238619877Y-101368475D01*
X238618672Y-101369865D01*
X238617001Y-101377548D01*
X238617001Y-102154669D01*
X235408500Y-102154669D01*
X235408500Y-101587538D01*
X235428502Y-101519417D01*
X235482158Y-101472924D01*
X235494624Y-101468014D01*
X235566998Y-101443868D01*
X235573946Y-101441550D01*
X235724348Y-101348478D01*
X235849305Y-101223303D01*
X235876397Y-101179352D01*
X235938275Y-101078968D01*
X235938276Y-101078966D01*
X235942115Y-101072738D01*
X235976515Y-100969024D01*
X235995632Y-100911389D01*
X235995632Y-100911387D01*
X235997797Y-100904861D01*
X235998708Y-100895977D01*
X236004659Y-100837885D01*
X238617000Y-100837885D01*
X238621475Y-100853124D01*
X238622865Y-100854329D01*
X238630548Y-100856000D01*
X239177885Y-100856000D01*
X239193124Y-100851525D01*
X239194329Y-100850135D01*
X239196000Y-100842452D01*
X239196000Y-99620116D01*
X239191525Y-99604877D01*
X239190135Y-99603672D01*
X239182452Y-99602001D01*
X239080331Y-99602001D01*
X239073510Y-99602371D01*
X239022648Y-99607895D01*
X239007396Y-99611521D01*
X238886946Y-99656676D01*
X238871351Y-99665214D01*
X238769276Y-99741715D01*
X238756715Y-99754276D01*
X238680214Y-99856351D01*
X238671676Y-99871946D01*
X238626522Y-99992394D01*
X238622895Y-100007649D01*
X238617369Y-100058514D01*
X238617000Y-100065328D01*
X238617000Y-100837885D01*
X236004659Y-100837885D01*
X236004780Y-100836705D01*
X236008500Y-100800400D01*
X236008500Y-99999600D01*
X236008163Y-99996350D01*
X235998238Y-99900692D01*
X235998237Y-99900688D01*
X235997526Y-99893834D01*
X235990143Y-99871703D01*
X235943868Y-99733002D01*
X235941550Y-99726054D01*
X235848478Y-99575652D01*
X235761891Y-99489216D01*
X235727812Y-99426934D01*
X235732815Y-99356114D01*
X235761736Y-99311025D01*
X235844134Y-99228483D01*
X235849305Y-99223303D01*
X235858545Y-99208313D01*
X235938275Y-99078968D01*
X235938276Y-99078966D01*
X235942115Y-99072738D01*
X235978280Y-98963703D01*
X235995632Y-98911389D01*
X235995632Y-98911387D01*
X235997797Y-98904861D01*
X235998779Y-98895282D01*
X236003710Y-98847146D01*
X236008500Y-98800400D01*
X236008500Y-98449500D01*
X236028502Y-98381379D01*
X236082158Y-98334886D01*
X236134500Y-98323500D01*
X239440500Y-98323500D01*
X239508621Y-98343502D01*
X239555114Y-98397158D01*
X239566500Y-98449500D01*
X239566500Y-98738134D01*
X239573255Y-98800316D01*
X239624385Y-98936705D01*
X239711739Y-99053261D01*
X239828295Y-99140615D01*
X239964684Y-99191745D01*
X240026866Y-99198500D01*
X240773134Y-99198500D01*
X240835316Y-99191745D01*
X240971705Y-99140615D01*
X241088261Y-99053261D01*
X241175615Y-98936705D01*
X241226745Y-98800316D01*
X241233500Y-98738134D01*
X241233500Y-98449500D01*
X241253502Y-98381379D01*
X241307158Y-98334886D01*
X241359500Y-98323500D01*
X241725406Y-98323500D01*
X241793527Y-98343502D01*
X241814501Y-98360405D01*
X245154595Y-101700499D01*
X245188621Y-101762811D01*
X245191500Y-101789594D01*
X245191500Y-102648134D01*
X245198255Y-102710316D01*
X245249385Y-102846705D01*
X245336739Y-102963261D01*
X245453295Y-103050615D01*
X245589684Y-103101745D01*
X245651866Y-103108500D01*
X246748134Y-103108500D01*
X246810316Y-103101745D01*
X246857586Y-103084024D01*
X246938301Y-103053766D01*
X246938304Y-103053764D01*
X246946705Y-103050615D01*
X246946964Y-103051307D01*
X247009374Y-103037657D01*
X247053385Y-103050580D01*
X247053538Y-103050172D01*
X247059112Y-103052262D01*
X247061034Y-103052826D01*
X247061939Y-103053321D01*
X247182394Y-103098478D01*
X247197649Y-103102105D01*
X247248514Y-103107631D01*
X247255328Y-103108000D01*
X247527885Y-103108000D01*
X247543124Y-103103525D01*
X247544329Y-103102135D01*
X247546000Y-103094452D01*
X247546000Y-103089884D01*
X248054000Y-103089884D01*
X248058475Y-103105123D01*
X248059865Y-103106328D01*
X248067548Y-103107999D01*
X248344669Y-103107999D01*
X248351490Y-103107629D01*
X248402352Y-103102105D01*
X248417604Y-103098479D01*
X248538061Y-103053321D01*
X248539492Y-103052538D01*
X248541073Y-103052192D01*
X248546462Y-103050172D01*
X248546754Y-103050950D01*
X248608849Y-103037369D01*
X248653430Y-103050460D01*
X248653538Y-103050172D01*
X248657469Y-103051646D01*
X248660508Y-103052538D01*
X248661939Y-103053321D01*
X248782394Y-103098478D01*
X248797649Y-103102105D01*
X248848514Y-103107631D01*
X248855328Y-103108000D01*
X249127885Y-103108000D01*
X249143124Y-103103525D01*
X249144329Y-103102135D01*
X249146000Y-103094452D01*
X249146000Y-103089884D01*
X249654000Y-103089884D01*
X249658475Y-103105123D01*
X249659865Y-103106328D01*
X249667548Y-103107999D01*
X249944669Y-103107999D01*
X249951490Y-103107629D01*
X250002352Y-103102105D01*
X250017604Y-103098479D01*
X250138054Y-103053324D01*
X250153649Y-103044786D01*
X250255724Y-102968285D01*
X250268285Y-102955724D01*
X250344786Y-102853649D01*
X250353324Y-102838054D01*
X250398478Y-102717606D01*
X250402105Y-102702351D01*
X250407631Y-102651486D01*
X250408000Y-102644672D01*
X250408000Y-102122115D01*
X250403525Y-102106876D01*
X250402135Y-102105671D01*
X250394452Y-102104000D01*
X249672115Y-102104000D01*
X249656876Y-102108475D01*
X249655671Y-102109865D01*
X249654000Y-102117548D01*
X249654000Y-103089884D01*
X249146000Y-103089884D01*
X249146000Y-102122115D01*
X249141525Y-102106876D01*
X249140135Y-102105671D01*
X249132452Y-102104000D01*
X248072115Y-102104000D01*
X248056876Y-102108475D01*
X248055671Y-102109865D01*
X248054000Y-102117548D01*
X248054000Y-103089884D01*
X247546000Y-103089884D01*
X247546000Y-101577885D01*
X248054000Y-101577885D01*
X248058475Y-101593124D01*
X248059865Y-101594329D01*
X248067548Y-101596000D01*
X249127885Y-101596000D01*
X249143124Y-101591525D01*
X249144329Y-101590135D01*
X249146000Y-101582452D01*
X249146000Y-100610116D01*
X249141525Y-100594877D01*
X249140135Y-100593672D01*
X249132452Y-100592001D01*
X248855331Y-100592001D01*
X248848510Y-100592371D01*
X248797648Y-100597895D01*
X248782396Y-100601521D01*
X248661939Y-100646679D01*
X248660508Y-100647462D01*
X248658927Y-100647808D01*
X248653538Y-100649828D01*
X248653246Y-100649050D01*
X248591151Y-100662631D01*
X248546570Y-100649540D01*
X248546462Y-100649828D01*
X248542531Y-100648354D01*
X248539492Y-100647462D01*
X248538061Y-100646679D01*
X248417606Y-100601522D01*
X248402351Y-100597895D01*
X248351486Y-100592369D01*
X248344672Y-100592000D01*
X248072115Y-100592000D01*
X248056876Y-100596475D01*
X248055671Y-100597865D01*
X248054000Y-100605548D01*
X248054000Y-101577885D01*
X247546000Y-101577885D01*
X247546000Y-100610116D01*
X247541525Y-100594877D01*
X247540135Y-100593672D01*
X247532452Y-100592001D01*
X247255331Y-100592001D01*
X247248510Y-100592371D01*
X247197648Y-100597895D01*
X247182396Y-100601521D01*
X247061939Y-100646679D01*
X247061034Y-100647174D01*
X247060034Y-100647393D01*
X247053538Y-100649828D01*
X247053186Y-100648890D01*
X246991677Y-100662343D01*
X246946788Y-100649162D01*
X246946705Y-100649385D01*
X246943663Y-100648244D01*
X246943656Y-100648242D01*
X246938304Y-100646236D01*
X246938301Y-100646234D01*
X246829770Y-100605548D01*
X246810316Y-100598255D01*
X246748134Y-100591500D01*
X245889595Y-100591500D01*
X245821474Y-100571498D01*
X245800500Y-100554595D01*
X242543652Y-97297747D01*
X242536112Y-97289461D01*
X242532000Y-97282982D01*
X242525904Y-97277257D01*
X242482349Y-97236357D01*
X242479507Y-97233602D01*
X242459770Y-97213865D01*
X242456573Y-97211385D01*
X242447551Y-97203680D01*
X242441418Y-97197921D01*
X242415321Y-97173414D01*
X242408375Y-97169595D01*
X242408372Y-97169593D01*
X242397566Y-97163652D01*
X242381047Y-97152801D01*
X242372990Y-97146552D01*
X242365041Y-97140386D01*
X242357772Y-97137241D01*
X242357768Y-97137238D01*
X242324463Y-97122826D01*
X242313813Y-97117609D01*
X242275060Y-97096305D01*
X242255437Y-97091267D01*
X242236734Y-97084863D01*
X242225420Y-97079967D01*
X242225419Y-97079967D01*
X242218145Y-97076819D01*
X242210322Y-97075580D01*
X242210312Y-97075577D01*
X242174476Y-97069901D01*
X242162856Y-97067495D01*
X242127711Y-97058472D01*
X242127710Y-97058472D01*
X242120030Y-97056500D01*
X242099776Y-97056500D01*
X242080065Y-97054949D01*
X242067886Y-97053020D01*
X242060057Y-97051780D01*
X242030786Y-97054547D01*
X242016039Y-97055941D01*
X242004181Y-97056500D01*
X241359500Y-97056500D01*
X241291379Y-97036498D01*
X241244886Y-96982842D01*
X241233500Y-96930500D01*
X241233500Y-96641866D01*
X241226745Y-96579684D01*
X241175615Y-96443295D01*
X241150711Y-96410065D01*
X241125862Y-96343560D01*
X241140914Y-96274177D01*
X241191088Y-96223947D01*
X241251536Y-96208500D01*
X245065500Y-96208500D01*
X245133621Y-96228502D01*
X245180114Y-96282158D01*
X245191500Y-96334500D01*
X245191500Y-97748134D01*
X245198255Y-97810316D01*
X245249385Y-97946705D01*
X245336739Y-98063261D01*
X245453295Y-98150615D01*
X245589684Y-98201745D01*
X245651866Y-98208500D01*
X246748134Y-98208500D01*
X246810316Y-98201745D01*
X246873909Y-98177905D01*
X246938301Y-98153766D01*
X246938304Y-98153764D01*
X246946705Y-98150615D01*
X246947024Y-98151466D01*
X247008849Y-98137945D01*
X247053166Y-98150958D01*
X247053295Y-98150615D01*
X247057981Y-98152372D01*
X247057985Y-98152373D01*
X247061696Y-98153764D01*
X247061699Y-98153766D01*
X247126091Y-98177905D01*
X247189684Y-98201745D01*
X247251866Y-98208500D01*
X247895761Y-98208500D01*
X247963882Y-98228502D01*
X247984856Y-98245405D01*
X250127251Y-100387800D01*
X250161277Y-100450112D01*
X250156212Y-100520927D01*
X250113665Y-100577763D01*
X250047145Y-100602574D01*
X250009008Y-100599477D01*
X250002355Y-100597895D01*
X249951486Y-100592369D01*
X249944672Y-100592000D01*
X249672115Y-100592000D01*
X249656876Y-100596475D01*
X249655671Y-100597865D01*
X249654000Y-100605548D01*
X249654000Y-101577885D01*
X249658475Y-101593124D01*
X249659865Y-101594329D01*
X249667548Y-101596000D01*
X250389884Y-101596000D01*
X250405123Y-101591525D01*
X250406328Y-101590135D01*
X250407999Y-101582452D01*
X250407999Y-101055331D01*
X250407629Y-101048510D01*
X250401252Y-100989793D01*
X250402838Y-100989621D01*
X250406064Y-100927832D01*
X250447510Y-100870188D01*
X250513540Y-100844102D01*
X250583192Y-100857856D01*
X250602883Y-100872304D01*
X250603511Y-100871485D01*
X250603513Y-100871487D01*
X250635425Y-100895974D01*
X250635428Y-100895977D01*
X250681754Y-100931524D01*
X250730625Y-100969024D01*
X250878650Y-101030338D01*
X250997615Y-101046000D01*
X250997620Y-101046000D01*
X250997629Y-101046001D01*
X251029312Y-101050172D01*
X251037500Y-101051250D01*
X251069193Y-101047078D01*
X251085636Y-101046000D01*
X251730484Y-101046000D01*
X251798605Y-101066002D01*
X251837627Y-101105696D01*
X251926522Y-101249348D01*
X251931704Y-101254521D01*
X251935580Y-101258390D01*
X252051697Y-101374305D01*
X252057927Y-101378145D01*
X252057928Y-101378146D01*
X252195090Y-101462694D01*
X252202262Y-101467115D01*
X252283128Y-101493937D01*
X252305167Y-101501247D01*
X252363527Y-101541678D01*
X252390764Y-101607242D01*
X252391500Y-101620840D01*
X252391500Y-103169710D01*
X252371498Y-103237831D01*
X252359136Y-103254020D01*
X252271037Y-103351864D01*
X252260960Y-103363056D01*
X252216606Y-103439880D01*
X252182331Y-103499246D01*
X252165473Y-103528444D01*
X252106458Y-103710072D01*
X252105768Y-103716633D01*
X252105768Y-103716635D01*
X252090821Y-103858851D01*
X252086496Y-103900000D01*
X252087186Y-103906565D01*
X252104782Y-104073977D01*
X252106458Y-104089928D01*
X252165473Y-104271556D01*
X252168776Y-104277278D01*
X252168777Y-104277279D01*
X252186875Y-104308625D01*
X252260960Y-104436944D01*
X252265378Y-104441851D01*
X252265379Y-104441852D01*
X252333609Y-104517629D01*
X252388747Y-104578866D01*
X252543248Y-104691118D01*
X252549276Y-104693802D01*
X252549278Y-104693803D01*
X252711681Y-104766109D01*
X252717712Y-104768794D01*
X252811113Y-104788647D01*
X252898056Y-104807128D01*
X252898061Y-104807128D01*
X252904513Y-104808500D01*
X253095487Y-104808500D01*
X253101939Y-104807128D01*
X253101944Y-104807128D01*
X253188887Y-104788647D01*
X253282288Y-104768794D01*
X253288319Y-104766109D01*
X253450722Y-104693803D01*
X253450724Y-104693802D01*
X253456752Y-104691118D01*
X253611253Y-104578866D01*
X253666391Y-104517629D01*
X253734621Y-104441852D01*
X253734622Y-104441851D01*
X253739040Y-104436944D01*
X253813125Y-104308625D01*
X253831223Y-104277279D01*
X253831224Y-104277278D01*
X253834527Y-104271556D01*
X253893542Y-104089928D01*
X253895219Y-104073977D01*
X253912814Y-103906565D01*
X253913504Y-103900000D01*
X253909179Y-103858851D01*
X253894232Y-103716635D01*
X253894232Y-103716633D01*
X253893542Y-103710072D01*
X253834527Y-103528444D01*
X253817670Y-103499246D01*
X253783394Y-103439880D01*
X253739040Y-103363056D01*
X253728963Y-103351864D01*
X253640864Y-103254020D01*
X253610146Y-103190013D01*
X253608500Y-103169710D01*
X253608500Y-101620879D01*
X253628502Y-101552758D01*
X253682158Y-101506265D01*
X253694623Y-101501356D01*
X253791993Y-101468870D01*
X253791995Y-101468869D01*
X253798946Y-101466550D01*
X253949348Y-101373478D01*
X253958810Y-101364000D01*
X254069134Y-101253483D01*
X254074305Y-101248303D01*
X254114713Y-101182749D01*
X254163275Y-101103968D01*
X254163276Y-101103966D01*
X254167115Y-101097738D01*
X254213251Y-100958642D01*
X254220632Y-100936389D01*
X254220632Y-100936387D01*
X254222797Y-100929861D01*
X254224343Y-100914779D01*
X254227909Y-100879969D01*
X254233500Y-100825400D01*
X254233500Y-100049600D01*
X254230299Y-100018750D01*
X254223238Y-99950692D01*
X254223237Y-99950688D01*
X254222526Y-99943834D01*
X254220228Y-99936944D01*
X254168868Y-99783002D01*
X254166550Y-99776054D01*
X254073478Y-99625652D01*
X254058830Y-99611029D01*
X253979019Y-99531358D01*
X253948303Y-99500695D01*
X253943765Y-99497898D01*
X253903176Y-99440647D01*
X253899946Y-99369724D01*
X253935572Y-99308313D01*
X253944068Y-99300938D01*
X253954207Y-99292902D01*
X254068739Y-99178171D01*
X254077751Y-99166760D01*
X254162816Y-99028757D01*
X254168963Y-99015576D01*
X254220138Y-98861290D01*
X254223005Y-98847914D01*
X254232672Y-98753562D01*
X254233000Y-98747146D01*
X254233000Y-98634615D01*
X254228525Y-98619376D01*
X254227135Y-98618171D01*
X254219452Y-98616500D01*
X251785116Y-98616500D01*
X251769877Y-98620975D01*
X251768672Y-98622365D01*
X251767001Y-98630048D01*
X251767001Y-98747095D01*
X251767338Y-98753614D01*
X251777257Y-98849206D01*
X251780149Y-98862600D01*
X251831588Y-99016784D01*
X251837761Y-99029962D01*
X251923063Y-99167807D01*
X251932099Y-99179208D01*
X252046828Y-99293738D01*
X252055762Y-99300794D01*
X252096823Y-99358712D01*
X252100053Y-99429635D01*
X252064426Y-99491046D01*
X252056593Y-99497846D01*
X252050652Y-99501522D01*
X251925695Y-99626697D01*
X251921855Y-99632927D01*
X251921854Y-99632928D01*
X251837906Y-99769116D01*
X251785133Y-99816610D01*
X251730646Y-99829000D01*
X251341739Y-99829000D01*
X251273618Y-99808998D01*
X251252644Y-99792095D01*
X249882353Y-98421804D01*
X249848327Y-98359492D01*
X249853392Y-98288677D01*
X249895939Y-98231841D01*
X249957839Y-98207446D01*
X249982562Y-98204760D01*
X250010316Y-98201745D01*
X250146705Y-98150615D01*
X250227070Y-98090385D01*
X251767000Y-98090385D01*
X251771475Y-98105624D01*
X251772865Y-98106829D01*
X251780548Y-98108500D01*
X252727885Y-98108500D01*
X252743124Y-98104025D01*
X252744329Y-98102635D01*
X252746000Y-98094952D01*
X252746000Y-98090385D01*
X253254000Y-98090385D01*
X253258475Y-98105624D01*
X253259865Y-98106829D01*
X253267548Y-98108500D01*
X254214884Y-98108500D01*
X254230123Y-98104025D01*
X254231328Y-98102635D01*
X254232999Y-98094952D01*
X254232999Y-97977905D01*
X254232662Y-97971386D01*
X254222743Y-97875794D01*
X254219851Y-97862400D01*
X254168412Y-97708216D01*
X254162239Y-97695038D01*
X254076937Y-97557193D01*
X254067901Y-97545792D01*
X253953171Y-97431261D01*
X253941760Y-97422249D01*
X253803757Y-97337184D01*
X253790576Y-97331037D01*
X253636290Y-97279862D01*
X253622914Y-97276995D01*
X253528562Y-97267328D01*
X253522145Y-97267000D01*
X253272115Y-97267000D01*
X253256876Y-97271475D01*
X253255671Y-97272865D01*
X253254000Y-97280548D01*
X253254000Y-98090385D01*
X252746000Y-98090385D01*
X252746000Y-97285116D01*
X252741525Y-97269877D01*
X252740135Y-97268672D01*
X252732452Y-97267001D01*
X252477905Y-97267001D01*
X252471386Y-97267338D01*
X252375794Y-97277257D01*
X252362400Y-97280149D01*
X252208216Y-97331588D01*
X252195038Y-97337761D01*
X252057193Y-97423063D01*
X252045792Y-97432099D01*
X251931261Y-97546829D01*
X251922249Y-97558240D01*
X251837184Y-97696243D01*
X251831037Y-97709424D01*
X251779862Y-97863710D01*
X251776995Y-97877086D01*
X251767328Y-97971438D01*
X251767000Y-97977855D01*
X251767000Y-98090385D01*
X250227070Y-98090385D01*
X250263261Y-98063261D01*
X250350615Y-97946705D01*
X250401745Y-97810316D01*
X250408500Y-97748134D01*
X250408500Y-96151866D01*
X250401745Y-96089684D01*
X250350615Y-95953295D01*
X250263261Y-95836739D01*
X250146705Y-95749385D01*
X250010316Y-95698255D01*
X249948134Y-95691500D01*
X248851866Y-95691500D01*
X248789684Y-95698255D01*
X248757698Y-95710246D01*
X248661699Y-95746234D01*
X248661696Y-95746236D01*
X248653295Y-95749385D01*
X248652976Y-95748534D01*
X248591151Y-95762055D01*
X248546834Y-95749042D01*
X248546705Y-95749385D01*
X248542019Y-95747628D01*
X248542015Y-95747627D01*
X248538304Y-95746236D01*
X248538301Y-95746234D01*
X248442302Y-95710246D01*
X248410316Y-95698255D01*
X248348134Y-95691500D01*
X247251866Y-95691500D01*
X247189684Y-95698255D01*
X247157698Y-95710246D01*
X247061699Y-95746234D01*
X247061696Y-95746236D01*
X247053295Y-95749385D01*
X247052976Y-95748534D01*
X246991151Y-95762055D01*
X246946834Y-95749042D01*
X246946705Y-95749385D01*
X246942019Y-95747628D01*
X246942015Y-95747627D01*
X246938304Y-95746236D01*
X246938301Y-95746234D01*
X246842302Y-95710246D01*
X246810316Y-95698255D01*
X246748134Y-95691500D01*
X246744718Y-95691500D01*
X246741320Y-95691316D01*
X246741374Y-95690313D01*
X246677295Y-95671498D01*
X246665101Y-95662585D01*
X246548252Y-95565919D01*
X246548247Y-95565916D01*
X246542144Y-95560867D01*
X246522888Y-95551806D01*
X246487443Y-95526894D01*
X246164315Y-95203766D01*
X246153448Y-95191375D01*
X246139013Y-95172563D01*
X246133987Y-95166013D01*
X246102075Y-95141526D01*
X246102069Y-95141520D01*
X246013429Y-95073504D01*
X246013427Y-95073503D01*
X246006876Y-95068476D01*
X245858851Y-95007162D01*
X245850664Y-95006084D01*
X245850663Y-95006084D01*
X245838630Y-95004500D01*
X245739885Y-94991500D01*
X245739876Y-94991499D01*
X245708190Y-94987328D01*
X245708189Y-94987328D01*
X245700000Y-94986250D01*
X245668307Y-94990422D01*
X245651864Y-94991500D01*
X234548136Y-94991500D01*
X234531693Y-94990422D01*
X234500000Y-94986250D01*
X234491811Y-94987328D01*
X234460126Y-94991499D01*
X234460117Y-94991500D01*
X234460115Y-94991500D01*
X234460109Y-94991501D01*
X234460107Y-94991501D01*
X234361370Y-95004500D01*
X234349337Y-95006084D01*
X234349336Y-95006084D01*
X234341149Y-95007162D01*
X234193124Y-95068476D01*
X234156798Y-95096350D01*
X234097937Y-95141515D01*
X234097921Y-95141529D01*
X234072566Y-95160984D01*
X234072563Y-95160987D01*
X234066013Y-95166013D01*
X234060983Y-95172568D01*
X234046548Y-95191379D01*
X234035681Y-95203770D01*
X231947519Y-97291932D01*
X231935128Y-97302799D01*
X231909766Y-97322260D01*
X231885279Y-97354172D01*
X231885276Y-97354175D01*
X231885270Y-97354183D01*
X231817745Y-97442183D01*
X231812229Y-97449371D01*
X231750915Y-97597396D01*
X231750070Y-97603814D01*
X231735253Y-97716362D01*
X231735253Y-97716367D01*
X231730003Y-97756247D01*
X231731081Y-97764435D01*
X231734175Y-97787937D01*
X231735253Y-97804383D01*
X231735253Y-103752008D01*
X231715251Y-103820129D01*
X231698348Y-103841104D01*
X231284855Y-104254596D01*
X231222543Y-104288621D01*
X231195760Y-104291500D01*
X228793575Y-104291500D01*
X228725454Y-104271498D01*
X228678961Y-104217842D01*
X228668857Y-104147568D01*
X228692486Y-104090287D01*
X228780141Y-103972475D01*
X228785745Y-103963438D01*
X228885357Y-103767516D01*
X228889357Y-103757665D01*
X228954534Y-103547760D01*
X228956817Y-103537376D01*
X228958861Y-103521957D01*
X228956665Y-103507793D01*
X228943478Y-103504000D01*
X226058808Y-103504000D01*
X226045277Y-103507973D01*
X226043752Y-103518580D01*
X226068477Y-103636421D01*
X226071537Y-103646617D01*
X226152263Y-103851029D01*
X226156994Y-103860561D01*
X226271016Y-104048462D01*
X226277280Y-104057052D01*
X226299727Y-104082920D01*
X226329266Y-104147480D01*
X226319212Y-104217761D01*
X226272757Y-104271449D01*
X226204561Y-104291500D01*
X221804239Y-104291500D01*
X221736118Y-104271498D01*
X221715144Y-104254595D01*
X221245405Y-103784856D01*
X221211379Y-103722544D01*
X221208500Y-103695761D01*
X221208500Y-102978043D01*
X226041139Y-102978043D01*
X226043335Y-102992207D01*
X226056522Y-102996000D01*
X227227885Y-102996000D01*
X227243124Y-102991525D01*
X227244329Y-102990135D01*
X227246000Y-102982452D01*
X227246000Y-102977885D01*
X227754000Y-102977885D01*
X227758475Y-102993124D01*
X227759865Y-102994329D01*
X227767548Y-102996000D01*
X228941192Y-102996000D01*
X228954723Y-102992027D01*
X228956248Y-102981420D01*
X228931523Y-102863579D01*
X228928463Y-102853383D01*
X228847737Y-102648971D01*
X228843006Y-102639439D01*
X228728984Y-102451538D01*
X228722720Y-102442948D01*
X228578673Y-102276948D01*
X228571042Y-102269528D01*
X228401089Y-102130174D01*
X228392323Y-102124150D01*
X228364801Y-102108483D01*
X228315496Y-102057400D01*
X228301635Y-101987770D01*
X228327619Y-101921699D01*
X228356768Y-101894462D01*
X228474575Y-101815150D01*
X228482870Y-101808481D01*
X228641900Y-101656772D01*
X228648941Y-101648814D01*
X228780141Y-101472475D01*
X228785745Y-101463438D01*
X228885357Y-101267516D01*
X228889357Y-101257665D01*
X228954534Y-101047760D01*
X228956817Y-101037376D01*
X228958861Y-101021957D01*
X228956665Y-101007793D01*
X228943478Y-101004000D01*
X227772115Y-101004000D01*
X227756876Y-101008475D01*
X227755671Y-101009865D01*
X227754000Y-101017548D01*
X227754000Y-102977885D01*
X227246000Y-102977885D01*
X227246000Y-101022115D01*
X227241525Y-101006876D01*
X227240135Y-101005671D01*
X227232452Y-101004000D01*
X226058808Y-101004000D01*
X226045277Y-101007973D01*
X226043752Y-101018580D01*
X226068477Y-101136421D01*
X226071537Y-101146617D01*
X226152263Y-101351029D01*
X226156994Y-101360561D01*
X226271016Y-101548462D01*
X226277280Y-101557052D01*
X226421327Y-101723052D01*
X226428958Y-101730472D01*
X226598911Y-101869826D01*
X226607677Y-101875850D01*
X226635199Y-101891517D01*
X226684504Y-101942600D01*
X226698365Y-102012230D01*
X226672381Y-102078301D01*
X226643232Y-102105538D01*
X226525425Y-102184850D01*
X226517130Y-102191519D01*
X226358100Y-102343228D01*
X226351059Y-102351186D01*
X226219859Y-102527525D01*
X226214255Y-102536562D01*
X226114643Y-102732484D01*
X226110643Y-102742335D01*
X226045466Y-102952240D01*
X226043183Y-102962624D01*
X226041139Y-102978043D01*
X221208500Y-102978043D01*
X221208500Y-100373239D01*
X221228502Y-100305118D01*
X221282158Y-100258625D01*
X221352432Y-100248521D01*
X221417012Y-100278015D01*
X221423595Y-100284144D01*
X221629595Y-100490144D01*
X221663621Y-100552456D01*
X221666500Y-100579239D01*
X221666500Y-100925400D01*
X221666837Y-100928646D01*
X221666837Y-100928650D01*
X221676537Y-101022134D01*
X221677474Y-101031166D01*
X221679655Y-101037702D01*
X221679655Y-101037704D01*
X221710560Y-101130338D01*
X221733450Y-101198946D01*
X221826522Y-101349348D01*
X221831704Y-101354521D01*
X221847075Y-101369865D01*
X221951697Y-101474305D01*
X221957927Y-101478145D01*
X221957928Y-101478146D01*
X222095090Y-101562694D01*
X222102262Y-101567115D01*
X222134733Y-101577885D01*
X222263611Y-101620632D01*
X222263613Y-101620632D01*
X222270139Y-101622797D01*
X222276975Y-101623497D01*
X222276978Y-101623498D01*
X222320031Y-101627909D01*
X222374600Y-101633500D01*
X223425400Y-101633500D01*
X223428646Y-101633163D01*
X223428650Y-101633163D01*
X223524308Y-101623238D01*
X223524312Y-101623237D01*
X223531166Y-101622526D01*
X223537702Y-101620345D01*
X223537704Y-101620345D01*
X223669806Y-101576272D01*
X223698946Y-101566550D01*
X223849348Y-101473478D01*
X223854803Y-101468014D01*
X223969134Y-101353483D01*
X223974305Y-101348303D01*
X224007900Y-101293803D01*
X224059522Y-101210056D01*
X224112294Y-101162563D01*
X224162210Y-101151212D01*
X224162500Y-101151250D01*
X224170689Y-101150172D01*
X224202374Y-101146001D01*
X224202384Y-101146000D01*
X224202385Y-101146000D01*
X224202393Y-101145999D01*
X224313164Y-101131416D01*
X224313166Y-101131415D01*
X224315061Y-101131166D01*
X224321351Y-101130338D01*
X224328977Y-101127179D01*
X224328978Y-101127179D01*
X224378809Y-101106538D01*
X224469376Y-101069024D01*
X224487284Y-101055283D01*
X224564572Y-100995977D01*
X224564575Y-100995974D01*
X224596487Y-100971487D01*
X224603995Y-100961703D01*
X224615952Y-100946121D01*
X224626819Y-100933730D01*
X226293555Y-99266994D01*
X226355867Y-99232968D01*
X226426682Y-99238033D01*
X226462539Y-99258654D01*
X226514108Y-99300938D01*
X226598627Y-99370240D01*
X226598633Y-99370244D01*
X226602755Y-99373624D01*
X226607398Y-99376267D01*
X226634735Y-99391829D01*
X226684041Y-99442912D01*
X226697902Y-99512542D01*
X226671918Y-99578613D01*
X226642768Y-99605851D01*
X226525422Y-99684852D01*
X226517130Y-99691519D01*
X226358100Y-99843228D01*
X226351059Y-99851186D01*
X226219859Y-100027525D01*
X226214255Y-100036562D01*
X226114643Y-100232484D01*
X226110643Y-100242335D01*
X226045466Y-100452240D01*
X226043183Y-100462624D01*
X226041139Y-100478043D01*
X226043335Y-100492207D01*
X226056522Y-100496000D01*
X228941192Y-100496000D01*
X228954723Y-100492027D01*
X228956248Y-100481420D01*
X228931523Y-100363579D01*
X228928463Y-100353383D01*
X228847737Y-100148971D01*
X228843006Y-100139439D01*
X228728984Y-99951538D01*
X228722720Y-99942948D01*
X228578673Y-99776948D01*
X228571042Y-99769528D01*
X228401089Y-99630174D01*
X228392326Y-99624152D01*
X228365289Y-99608762D01*
X228315982Y-99557680D01*
X228302120Y-99488049D01*
X228328103Y-99421978D01*
X228357253Y-99394739D01*
X228420031Y-99352474D01*
X228479319Y-99312559D01*
X228483627Y-99308450D01*
X228562752Y-99232968D01*
X228646135Y-99153424D01*
X228783754Y-98968458D01*
X228787399Y-98961290D01*
X228845432Y-98847146D01*
X228888240Y-98762949D01*
X228892508Y-98749206D01*
X228955024Y-98547871D01*
X228956607Y-98542773D01*
X228963535Y-98490500D01*
X228986198Y-98319511D01*
X228986198Y-98319506D01*
X228986898Y-98314226D01*
X228986462Y-98302598D01*
X228981540Y-98171498D01*
X228978249Y-98083842D01*
X228976832Y-98077086D01*
X228932002Y-97863428D01*
X228930907Y-97858209D01*
X228928452Y-97851993D01*
X228848185Y-97648744D01*
X228848184Y-97648742D01*
X228846224Y-97643779D01*
X228839137Y-97632099D01*
X228729390Y-97451243D01*
X228726623Y-97446683D01*
X228695222Y-97410496D01*
X228579023Y-97276588D01*
X228579021Y-97276586D01*
X228575523Y-97272555D01*
X228539880Y-97243330D01*
X228499886Y-97184671D01*
X228497954Y-97113701D01*
X228534698Y-97052952D01*
X228553468Y-97038752D01*
X228693120Y-96952332D01*
X228699348Y-96948478D01*
X228824305Y-96823303D01*
X228828146Y-96817072D01*
X228913275Y-96678968D01*
X228913276Y-96678966D01*
X228917115Y-96672738D01*
X228972797Y-96504861D01*
X228983500Y-96400400D01*
X228983500Y-95099600D01*
X228983163Y-95096350D01*
X228973238Y-95000692D01*
X228973237Y-95000688D01*
X228972526Y-94993834D01*
X228960880Y-94958925D01*
X228918868Y-94833002D01*
X228916550Y-94826054D01*
X228823478Y-94675652D01*
X228698303Y-94550695D01*
X228692072Y-94546854D01*
X228553968Y-94461725D01*
X228553966Y-94461724D01*
X228547738Y-94457885D01*
X228387254Y-94404655D01*
X228386389Y-94404368D01*
X228386387Y-94404368D01*
X228379861Y-94402203D01*
X228373025Y-94401503D01*
X228373022Y-94401502D01*
X228329969Y-94397091D01*
X228275400Y-94391500D01*
X226724600Y-94391500D01*
X226721354Y-94391837D01*
X226721350Y-94391837D01*
X226625692Y-94401762D01*
X226625688Y-94401763D01*
X226618834Y-94402474D01*
X226612298Y-94404655D01*
X226612296Y-94404655D01*
X226480194Y-94448728D01*
X226451054Y-94458450D01*
X226300652Y-94551522D01*
X226175695Y-94676697D01*
X226171855Y-94682927D01*
X226171854Y-94682928D01*
X226131948Y-94747668D01*
X226082885Y-94827262D01*
X226067984Y-94872188D01*
X226039215Y-94958925D01*
X226027203Y-94995139D01*
X226026503Y-95001975D01*
X226026502Y-95001978D01*
X226023324Y-95033002D01*
X226016500Y-95099600D01*
X226016500Y-96400400D01*
X226016837Y-96403646D01*
X226016837Y-96403650D01*
X226020951Y-96443295D01*
X226027474Y-96506166D01*
X226029655Y-96512702D01*
X226029655Y-96512704D01*
X226055951Y-96591523D01*
X226083450Y-96673946D01*
X226176522Y-96824348D01*
X226181704Y-96829521D01*
X226201523Y-96849305D01*
X226301697Y-96949305D01*
X226447340Y-97039081D01*
X226494832Y-97091852D01*
X226506256Y-97161924D01*
X226477982Y-97227048D01*
X226468195Y-97237510D01*
X226435529Y-97268672D01*
X226353865Y-97346576D01*
X226350682Y-97350854D01*
X226306307Y-97410496D01*
X226216246Y-97531542D01*
X226213830Y-97536293D01*
X226213828Y-97536297D01*
X226177277Y-97608188D01*
X226121580Y-97717738D01*
X226120130Y-97720589D01*
X226084517Y-97763446D01*
X226047948Y-97791507D01*
X226047942Y-97791512D01*
X226047929Y-97791522D01*
X226047925Y-97791526D01*
X226016013Y-97816013D01*
X226010983Y-97822568D01*
X225996548Y-97841379D01*
X225985681Y-97853770D01*
X224132718Y-99706733D01*
X224070406Y-99740759D01*
X223999591Y-99735694D01*
X223954606Y-99706811D01*
X223853491Y-99605872D01*
X223853482Y-99605865D01*
X223848303Y-99600695D01*
X223843765Y-99597898D01*
X223803176Y-99540647D01*
X223799946Y-99469724D01*
X223835572Y-99408313D01*
X223844068Y-99400938D01*
X223854207Y-99392902D01*
X223968739Y-99278171D01*
X223977751Y-99266760D01*
X224062816Y-99128757D01*
X224068963Y-99115576D01*
X224120138Y-98961290D01*
X224123005Y-98947914D01*
X224132672Y-98853562D01*
X224133000Y-98847146D01*
X224133000Y-98734615D01*
X224128525Y-98719376D01*
X224127135Y-98718171D01*
X224119452Y-98716500D01*
X221685115Y-98716500D01*
X221673307Y-98719967D01*
X221602311Y-98719967D01*
X221548715Y-98688166D01*
X221264315Y-98403766D01*
X221253448Y-98391375D01*
X221239013Y-98372563D01*
X221233987Y-98366013D01*
X221202075Y-98341526D01*
X221202072Y-98341523D01*
X221195016Y-98336109D01*
X221113429Y-98273504D01*
X221113427Y-98273503D01*
X221106876Y-98268476D01*
X220958851Y-98207162D01*
X220950664Y-98206084D01*
X220950663Y-98206084D01*
X220939458Y-98204609D01*
X220888687Y-98197925D01*
X220839885Y-98191500D01*
X220839882Y-98191500D01*
X220839874Y-98191499D01*
X220831411Y-98190385D01*
X221667000Y-98190385D01*
X221671475Y-98205624D01*
X221672865Y-98206829D01*
X221680548Y-98208500D01*
X222627885Y-98208500D01*
X222643124Y-98204025D01*
X222644329Y-98202635D01*
X222646000Y-98194952D01*
X222646000Y-98190385D01*
X223154000Y-98190385D01*
X223158475Y-98205624D01*
X223159865Y-98206829D01*
X223167548Y-98208500D01*
X224114884Y-98208500D01*
X224130123Y-98204025D01*
X224131328Y-98202635D01*
X224132999Y-98194952D01*
X224132999Y-98077905D01*
X224132662Y-98071386D01*
X224122743Y-97975794D01*
X224119851Y-97962400D01*
X224068412Y-97808216D01*
X224062239Y-97795038D01*
X223976937Y-97657193D01*
X223967901Y-97645792D01*
X223853171Y-97531261D01*
X223841760Y-97522249D01*
X223703757Y-97437184D01*
X223690576Y-97431037D01*
X223536290Y-97379862D01*
X223522914Y-97376995D01*
X223428562Y-97367328D01*
X223422145Y-97367000D01*
X223172115Y-97367000D01*
X223156876Y-97371475D01*
X223155671Y-97372865D01*
X223154000Y-97380548D01*
X223154000Y-98190385D01*
X222646000Y-98190385D01*
X222646000Y-97385116D01*
X222641525Y-97369877D01*
X222640135Y-97368672D01*
X222632452Y-97367001D01*
X222377905Y-97367001D01*
X222371386Y-97367338D01*
X222275794Y-97377257D01*
X222262400Y-97380149D01*
X222108216Y-97431588D01*
X222095038Y-97437761D01*
X221957193Y-97523063D01*
X221945792Y-97532099D01*
X221831261Y-97646829D01*
X221822249Y-97658240D01*
X221737184Y-97796243D01*
X221731037Y-97809424D01*
X221679862Y-97963710D01*
X221676995Y-97977086D01*
X221667328Y-98071438D01*
X221667000Y-98077855D01*
X221667000Y-98190385D01*
X220831411Y-98190385D01*
X220808189Y-98187328D01*
X220800000Y-98186250D01*
X220768307Y-98190422D01*
X220751864Y-98191500D01*
X220378132Y-98191500D01*
X220310011Y-98171498D01*
X220263518Y-98117842D01*
X220253414Y-98047568D01*
X220260150Y-98021270D01*
X220265843Y-98006084D01*
X220301745Y-97910316D01*
X220308500Y-97848134D01*
X220308500Y-96251866D01*
X220301745Y-96189684D01*
X220250615Y-96053295D01*
X220163261Y-95936739D01*
X220046705Y-95849385D01*
X219910316Y-95798255D01*
X219848134Y-95791500D01*
X218751866Y-95791500D01*
X218689684Y-95798255D01*
X218660787Y-95809088D01*
X218561699Y-95846234D01*
X218561696Y-95846236D01*
X218553295Y-95849385D01*
X218552976Y-95848534D01*
X218491151Y-95862055D01*
X218446834Y-95849042D01*
X218446705Y-95849385D01*
X218442019Y-95847628D01*
X218442015Y-95847627D01*
X218438304Y-95846236D01*
X218438301Y-95846234D01*
X218339213Y-95809088D01*
X218310316Y-95798255D01*
X218248134Y-95791500D01*
X217151866Y-95791500D01*
X217089684Y-95798255D01*
X217060787Y-95809088D01*
X216961699Y-95846234D01*
X216961696Y-95846236D01*
X216953295Y-95849385D01*
X216952976Y-95848534D01*
X216891151Y-95862055D01*
X216846834Y-95849042D01*
X216846705Y-95849385D01*
X216842019Y-95847628D01*
X216842015Y-95847627D01*
X216838304Y-95846236D01*
X216838301Y-95846234D01*
X216739213Y-95809088D01*
X216710316Y-95798255D01*
X216648134Y-95791500D01*
X215551866Y-95791500D01*
X215489684Y-95798255D01*
X215353295Y-95849385D01*
X215236739Y-95936739D01*
X215149385Y-96053295D01*
X215098255Y-96189684D01*
X215091500Y-96251866D01*
X215091500Y-97145761D01*
X215071498Y-97213882D01*
X215054595Y-97234856D01*
X214904255Y-97385196D01*
X214891864Y-97396063D01*
X214866502Y-97415524D01*
X214842015Y-97447436D01*
X214842012Y-97447439D01*
X214833724Y-97458240D01*
X214775939Y-97533547D01*
X214768965Y-97542635D01*
X214707651Y-97690660D01*
X214706573Y-97698847D01*
X214706573Y-97698848D01*
X214705098Y-97710053D01*
X214691989Y-97809625D01*
X214691989Y-97809631D01*
X214688589Y-97835461D01*
X214686739Y-97849511D01*
X214690471Y-97877855D01*
X214690911Y-97881201D01*
X214691989Y-97897647D01*
X214691989Y-102565500D01*
X214671987Y-102633621D01*
X214618331Y-102680114D01*
X214565989Y-102691500D01*
X209826000Y-102691500D01*
X209757879Y-102671498D01*
X209711386Y-102617842D01*
X209700000Y-102565500D01*
X209700000Y-95950000D01*
X202900000Y-95950000D01*
X202900000Y-102565500D01*
X202879998Y-102633621D01*
X202826342Y-102680114D01*
X202774000Y-102691500D01*
X188034500Y-102691500D01*
X187966379Y-102671498D01*
X187919886Y-102617842D01*
X187908500Y-102565500D01*
X187908500Y-100148136D01*
X187909578Y-100131690D01*
X187912672Y-100108188D01*
X187913750Y-100100000D01*
X187908500Y-100060120D01*
X187908500Y-100060115D01*
X187895140Y-99958634D01*
X187892838Y-99941149D01*
X187831524Y-99793124D01*
X187824684Y-99784209D01*
X187802848Y-99755753D01*
X187777247Y-99689533D01*
X187791511Y-99619984D01*
X187841113Y-99569188D01*
X187910302Y-99553272D01*
X187977113Y-99577289D01*
X187991905Y-99589954D01*
X188529595Y-100127644D01*
X188563621Y-100189956D01*
X188566500Y-100216739D01*
X188566500Y-100925400D01*
X188566837Y-100928646D01*
X188566837Y-100928650D01*
X188576537Y-101022134D01*
X188577474Y-101031166D01*
X188579655Y-101037702D01*
X188579655Y-101037704D01*
X188610560Y-101130338D01*
X188633450Y-101198946D01*
X188726522Y-101349348D01*
X188731704Y-101354521D01*
X188747075Y-101369865D01*
X188851697Y-101474305D01*
X188857927Y-101478145D01*
X188857928Y-101478146D01*
X188995090Y-101562694D01*
X189002262Y-101567115D01*
X189034733Y-101577885D01*
X189163611Y-101620632D01*
X189163613Y-101620632D01*
X189170139Y-101622797D01*
X189176975Y-101623497D01*
X189176978Y-101623498D01*
X189220031Y-101627909D01*
X189274600Y-101633500D01*
X190325400Y-101633500D01*
X190328646Y-101633163D01*
X190328650Y-101633163D01*
X190424308Y-101623238D01*
X190424312Y-101623237D01*
X190431166Y-101622526D01*
X190437702Y-101620345D01*
X190437704Y-101620345D01*
X190569806Y-101576272D01*
X190598946Y-101566550D01*
X190628706Y-101548134D01*
X196391500Y-101548134D01*
X196398255Y-101610316D01*
X196449385Y-101746705D01*
X196536739Y-101863261D01*
X196653295Y-101950615D01*
X196789684Y-102001745D01*
X196851866Y-102008500D01*
X198548134Y-102008500D01*
X198610316Y-102001745D01*
X198746705Y-101950615D01*
X198863261Y-101863261D01*
X198950615Y-101746705D01*
X199001745Y-101610316D01*
X199008500Y-101548134D01*
X199008500Y-99851866D01*
X199001745Y-99789684D01*
X198950615Y-99653295D01*
X198863261Y-99536739D01*
X198746705Y-99449385D01*
X198610316Y-99398255D01*
X198561040Y-99392902D01*
X198551514Y-99391867D01*
X198551511Y-99391867D01*
X198548134Y-99391500D01*
X198544815Y-99391500D01*
X198477890Y-99367847D01*
X198442196Y-99321844D01*
X198440266Y-99322859D01*
X198434558Y-99312000D01*
X198434368Y-99311755D01*
X198434347Y-99311597D01*
X198414356Y-99273566D01*
X197712812Y-98572022D01*
X197698868Y-98564408D01*
X197697035Y-98564539D01*
X197690420Y-98568790D01*
X196984923Y-99274287D01*
X196962129Y-99316029D01*
X196959953Y-99326029D01*
X196909747Y-99376227D01*
X196856186Y-99391451D01*
X196855281Y-99391500D01*
X196851866Y-99391500D01*
X196848470Y-99391869D01*
X196848468Y-99391869D01*
X196838960Y-99392902D01*
X196789684Y-99398255D01*
X196653295Y-99449385D01*
X196536739Y-99536739D01*
X196449385Y-99653295D01*
X196398255Y-99789684D01*
X196391500Y-99851866D01*
X196391500Y-101548134D01*
X190628706Y-101548134D01*
X190749348Y-101473478D01*
X190754803Y-101468014D01*
X190869134Y-101353483D01*
X190874305Y-101348303D01*
X190886439Y-101328618D01*
X190962094Y-101205884D01*
X191014867Y-101158390D01*
X191069354Y-101146000D01*
X191904910Y-101146000D01*
X191973031Y-101166002D01*
X191986256Y-101176100D01*
X191988747Y-101178866D01*
X191994089Y-101182747D01*
X191994091Y-101182749D01*
X192124273Y-101277332D01*
X192143248Y-101291118D01*
X192149276Y-101293802D01*
X192149278Y-101293803D01*
X192311681Y-101366109D01*
X192317712Y-101368794D01*
X192405641Y-101387484D01*
X192498056Y-101407128D01*
X192498061Y-101407128D01*
X192504513Y-101408500D01*
X192695487Y-101408500D01*
X192701939Y-101407128D01*
X192701944Y-101407128D01*
X192794359Y-101387484D01*
X192882288Y-101368794D01*
X192888319Y-101366109D01*
X193050722Y-101293803D01*
X193050724Y-101293802D01*
X193056752Y-101291118D01*
X193211253Y-101178866D01*
X193240847Y-101145999D01*
X193334621Y-101041852D01*
X193334622Y-101041851D01*
X193339040Y-101036944D01*
X193421286Y-100894490D01*
X193431223Y-100877279D01*
X193431224Y-100877278D01*
X193434527Y-100871556D01*
X193493542Y-100689928D01*
X193494574Y-100680114D01*
X193512814Y-100506565D01*
X193513504Y-100500000D01*
X193509970Y-100466379D01*
X193494232Y-100316635D01*
X193494232Y-100316633D01*
X193493542Y-100310072D01*
X193434527Y-100128444D01*
X193424675Y-100111379D01*
X193370613Y-100017742D01*
X193339040Y-99963056D01*
X193329066Y-99951978D01*
X193215675Y-99826045D01*
X193215674Y-99826044D01*
X193211253Y-99821134D01*
X193096718Y-99737919D01*
X193062094Y-99712763D01*
X193062093Y-99712762D01*
X193056752Y-99708882D01*
X193050724Y-99706198D01*
X193050722Y-99706197D01*
X192888319Y-99633891D01*
X192888318Y-99633891D01*
X192882288Y-99631206D01*
X192776698Y-99608762D01*
X192701944Y-99592872D01*
X192701939Y-99592872D01*
X192695487Y-99591500D01*
X192504513Y-99591500D01*
X192498061Y-99592872D01*
X192498056Y-99592872D01*
X192423302Y-99608762D01*
X192317712Y-99631206D01*
X192311682Y-99633891D01*
X192311681Y-99633891D01*
X192149278Y-99706197D01*
X192149276Y-99706198D01*
X192143248Y-99708882D01*
X192137907Y-99712762D01*
X192137906Y-99712763D01*
X192103282Y-99737919D01*
X191988747Y-99821134D01*
X191929175Y-99887296D01*
X191929162Y-99887310D01*
X191868716Y-99924550D01*
X191835526Y-99929000D01*
X191069516Y-99929000D01*
X191001395Y-99908998D01*
X190962372Y-99869303D01*
X190958768Y-99863478D01*
X190873478Y-99725652D01*
X190853661Y-99705869D01*
X190769161Y-99621517D01*
X190748303Y-99600695D01*
X190743765Y-99597898D01*
X190703176Y-99540647D01*
X190699946Y-99469724D01*
X190735572Y-99408313D01*
X190744068Y-99400938D01*
X190754207Y-99392902D01*
X190868739Y-99278171D01*
X190877751Y-99266760D01*
X190962816Y-99128757D01*
X190968963Y-99115576D01*
X191020138Y-98961290D01*
X191023005Y-98947914D01*
X191032672Y-98853562D01*
X191033000Y-98847146D01*
X191033000Y-98734615D01*
X191028525Y-98719376D01*
X191027135Y-98718171D01*
X191019452Y-98716500D01*
X189672000Y-98716500D01*
X189603879Y-98696498D01*
X189557386Y-98642842D01*
X189546000Y-98590500D01*
X189546000Y-98190385D01*
X190054000Y-98190385D01*
X190058475Y-98205624D01*
X190059865Y-98206829D01*
X190067548Y-98208500D01*
X191014884Y-98208500D01*
X191025185Y-98205475D01*
X196387483Y-98205475D01*
X196406472Y-98422519D01*
X196408375Y-98433312D01*
X196464764Y-98643761D01*
X196468510Y-98654053D01*
X196560586Y-98851511D01*
X196566069Y-98861006D01*
X196602509Y-98913048D01*
X196612988Y-98921424D01*
X196626434Y-98914356D01*
X197327978Y-98212812D01*
X197334356Y-98201132D01*
X198064408Y-98201132D01*
X198064539Y-98202965D01*
X198068790Y-98209580D01*
X198774287Y-98915077D01*
X198786062Y-98921507D01*
X198798077Y-98912211D01*
X198833931Y-98861006D01*
X198839414Y-98851511D01*
X198931490Y-98654053D01*
X198935236Y-98643761D01*
X198991625Y-98433312D01*
X198993528Y-98422519D01*
X199012517Y-98205475D01*
X199012517Y-98194525D01*
X198993528Y-97977481D01*
X198991625Y-97966688D01*
X198935236Y-97756239D01*
X198931490Y-97745947D01*
X198839414Y-97548489D01*
X198833931Y-97538994D01*
X198797491Y-97486952D01*
X198787012Y-97478576D01*
X198773566Y-97485644D01*
X198072022Y-98187188D01*
X198064408Y-98201132D01*
X197334356Y-98201132D01*
X197335592Y-98198868D01*
X197335461Y-98197035D01*
X197331210Y-98190420D01*
X196625713Y-97484923D01*
X196613938Y-97478493D01*
X196601923Y-97487789D01*
X196566069Y-97538994D01*
X196560586Y-97548489D01*
X196468510Y-97745947D01*
X196464764Y-97756239D01*
X196408375Y-97966688D01*
X196406472Y-97977481D01*
X196387483Y-98194525D01*
X196387483Y-98205475D01*
X191025185Y-98205475D01*
X191030123Y-98204025D01*
X191031328Y-98202635D01*
X191032999Y-98194952D01*
X191032999Y-98077905D01*
X191032662Y-98071386D01*
X191022743Y-97975794D01*
X191019851Y-97962400D01*
X190968412Y-97808216D01*
X190962239Y-97795038D01*
X190876937Y-97657193D01*
X190867901Y-97645792D01*
X190753171Y-97531261D01*
X190741760Y-97522249D01*
X190603757Y-97437184D01*
X190590576Y-97431037D01*
X190436290Y-97379862D01*
X190422914Y-97376995D01*
X190328562Y-97367328D01*
X190322145Y-97367000D01*
X190072115Y-97367000D01*
X190056876Y-97371475D01*
X190055671Y-97372865D01*
X190054000Y-97380548D01*
X190054000Y-98190385D01*
X189546000Y-98190385D01*
X189546000Y-97385116D01*
X189541525Y-97369877D01*
X189540135Y-97368672D01*
X189532452Y-97367001D01*
X189277905Y-97367001D01*
X189271386Y-97367338D01*
X189175794Y-97377257D01*
X189162400Y-97380149D01*
X189008216Y-97431588D01*
X188995038Y-97437761D01*
X188857193Y-97523063D01*
X188845792Y-97532099D01*
X188731261Y-97646829D01*
X188722249Y-97658240D01*
X188637184Y-97796243D01*
X188631037Y-97809424D01*
X188579862Y-97963710D01*
X188576995Y-97977086D01*
X188567328Y-98071438D01*
X188567000Y-98077855D01*
X188567000Y-98220341D01*
X188546998Y-98288462D01*
X188493342Y-98334955D01*
X188423068Y-98345059D01*
X188392786Y-98336751D01*
X188321351Y-98307162D01*
X188313164Y-98306084D01*
X188313163Y-98306084D01*
X188286333Y-98302552D01*
X188202393Y-98291501D01*
X188202391Y-98291501D01*
X188202385Y-98291500D01*
X188202383Y-98291500D01*
X188202374Y-98291499D01*
X188170689Y-98287328D01*
X188162500Y-98286250D01*
X188130807Y-98290422D01*
X188114364Y-98291500D01*
X187219042Y-98291500D01*
X187150921Y-98271498D01*
X187104428Y-98217842D01*
X187094324Y-98147568D01*
X187118216Y-98089935D01*
X187145229Y-98053892D01*
X187145230Y-98053890D01*
X187150615Y-98046705D01*
X187201745Y-97910316D01*
X187208500Y-97848134D01*
X187208500Y-97112988D01*
X196978576Y-97112988D01*
X196985644Y-97126434D01*
X197687188Y-97827978D01*
X197701132Y-97835592D01*
X197702965Y-97835461D01*
X197709580Y-97831210D01*
X198415077Y-97125713D01*
X198421507Y-97113938D01*
X198412211Y-97101923D01*
X198361006Y-97066069D01*
X198351511Y-97060586D01*
X198154053Y-96968510D01*
X198143761Y-96964764D01*
X197933312Y-96908375D01*
X197922519Y-96906472D01*
X197705475Y-96887483D01*
X197694525Y-96887483D01*
X197477481Y-96906472D01*
X197466688Y-96908375D01*
X197256239Y-96964764D01*
X197245947Y-96968510D01*
X197048489Y-97060586D01*
X197038994Y-97066069D01*
X196986952Y-97102509D01*
X196978576Y-97112988D01*
X187208500Y-97112988D01*
X187208500Y-96251866D01*
X187201745Y-96189684D01*
X187150615Y-96053295D01*
X187063261Y-95936739D01*
X186946705Y-95849385D01*
X186810316Y-95798255D01*
X186748134Y-95791500D01*
X185651866Y-95791500D01*
X185589684Y-95798255D01*
X185560787Y-95809088D01*
X185461699Y-95846234D01*
X185461696Y-95846236D01*
X185453295Y-95849385D01*
X185452976Y-95848534D01*
X185391151Y-95862055D01*
X185346834Y-95849042D01*
X185346705Y-95849385D01*
X185342019Y-95847628D01*
X185342015Y-95847627D01*
X185338304Y-95846236D01*
X185338301Y-95846234D01*
X185239213Y-95809088D01*
X185210316Y-95798255D01*
X185148134Y-95791500D01*
X184051866Y-95791500D01*
X183989684Y-95798255D01*
X183960787Y-95809088D01*
X183861699Y-95846234D01*
X183861696Y-95846236D01*
X183853295Y-95849385D01*
X183852976Y-95848534D01*
X183791151Y-95862055D01*
X183746834Y-95849042D01*
X183746705Y-95849385D01*
X183742019Y-95847628D01*
X183742015Y-95847627D01*
X183738304Y-95846236D01*
X183738301Y-95846234D01*
X183639213Y-95809088D01*
X183610316Y-95798255D01*
X183548134Y-95791500D01*
X182451866Y-95791500D01*
X182389684Y-95798255D01*
X182253295Y-95849385D01*
X182136739Y-95936739D01*
X182049385Y-96053295D01*
X181998255Y-96189684D01*
X181991500Y-96251866D01*
X181991500Y-97145761D01*
X181971498Y-97213882D01*
X181954595Y-97234856D01*
X181804255Y-97385196D01*
X181791864Y-97396063D01*
X181766502Y-97415524D01*
X181742015Y-97447436D01*
X181742012Y-97447439D01*
X181733724Y-97458240D01*
X181675939Y-97533547D01*
X181668965Y-97542635D01*
X181607651Y-97690660D01*
X181606573Y-97698847D01*
X181606573Y-97698848D01*
X181605098Y-97710053D01*
X181591989Y-97809625D01*
X181591989Y-97809631D01*
X181588589Y-97835461D01*
X181586739Y-97849511D01*
X181590471Y-97877855D01*
X181590911Y-97881201D01*
X181591989Y-97897647D01*
X181591989Y-102665989D01*
X181571987Y-102734110D01*
X181518331Y-102780603D01*
X181465989Y-102791989D01*
X157834500Y-102791989D01*
X157766379Y-102771987D01*
X157719886Y-102718331D01*
X157708500Y-102665989D01*
X157708500Y-100248136D01*
X157709578Y-100231690D01*
X157712125Y-100212347D01*
X157713750Y-100200000D01*
X157710989Y-100179023D01*
X157708500Y-100160120D01*
X157708500Y-100160115D01*
X157694578Y-100054364D01*
X157694273Y-100052049D01*
X157692838Y-100041149D01*
X157631524Y-99893124D01*
X157558478Y-99797929D01*
X157558474Y-99797925D01*
X157554790Y-99793124D01*
X157539016Y-99772566D01*
X157539013Y-99772563D01*
X157533987Y-99766013D01*
X157526301Y-99760115D01*
X157508621Y-99746548D01*
X157496230Y-99735681D01*
X157484144Y-99723595D01*
X157450118Y-99661283D01*
X157455183Y-99590468D01*
X157497730Y-99533632D01*
X157564250Y-99508821D01*
X157573239Y-99508500D01*
X157758261Y-99508500D01*
X157826382Y-99528502D01*
X157847356Y-99545405D01*
X158429595Y-100127644D01*
X158463621Y-100189956D01*
X158466500Y-100216739D01*
X158466500Y-100925400D01*
X158466837Y-100928646D01*
X158466837Y-100928650D01*
X158476537Y-101022134D01*
X158477474Y-101031166D01*
X158479655Y-101037702D01*
X158479655Y-101037704D01*
X158510560Y-101130338D01*
X158533450Y-101198946D01*
X158626522Y-101349348D01*
X158631704Y-101354521D01*
X158647075Y-101369865D01*
X158751697Y-101474305D01*
X158757927Y-101478145D01*
X158757928Y-101478146D01*
X158895090Y-101562694D01*
X158902262Y-101567115D01*
X158934733Y-101577885D01*
X159063611Y-101620632D01*
X159063613Y-101620632D01*
X159070139Y-101622797D01*
X159076975Y-101623497D01*
X159076978Y-101623498D01*
X159120031Y-101627909D01*
X159174600Y-101633500D01*
X160225400Y-101633500D01*
X160228646Y-101633163D01*
X160228650Y-101633163D01*
X160324308Y-101623238D01*
X160324312Y-101623237D01*
X160331166Y-101622526D01*
X160337702Y-101620345D01*
X160337704Y-101620345D01*
X160469806Y-101576272D01*
X160498946Y-101566550D01*
X160649348Y-101473478D01*
X160654803Y-101468014D01*
X160769134Y-101353483D01*
X160774305Y-101348303D01*
X160786439Y-101328618D01*
X160862094Y-101205884D01*
X160914867Y-101158390D01*
X160969354Y-101146000D01*
X164031790Y-101146000D01*
X164099911Y-101166002D01*
X164125426Y-101187689D01*
X164151247Y-101216366D01*
X164160795Y-101223303D01*
X164294224Y-101320245D01*
X164305748Y-101328618D01*
X164311776Y-101331302D01*
X164311778Y-101331303D01*
X164469121Y-101401356D01*
X164480212Y-101406294D01*
X164573613Y-101426147D01*
X164660556Y-101444628D01*
X164660561Y-101444628D01*
X164667013Y-101446000D01*
X164857987Y-101446000D01*
X164864439Y-101444628D01*
X164864444Y-101444628D01*
X164951388Y-101426147D01*
X165044788Y-101406294D01*
X165055879Y-101401356D01*
X165213222Y-101331303D01*
X165213224Y-101331302D01*
X165219252Y-101328618D01*
X165230777Y-101320245D01*
X165328357Y-101249348D01*
X165373753Y-101216366D01*
X165419101Y-101166002D01*
X165497121Y-101079352D01*
X165497122Y-101079351D01*
X165501540Y-101074444D01*
X165575317Y-100946659D01*
X165593723Y-100914779D01*
X165593724Y-100914778D01*
X165597027Y-100909056D01*
X165656042Y-100727428D01*
X165657827Y-100710451D01*
X165675314Y-100544065D01*
X165676004Y-100537500D01*
X165666325Y-100445405D01*
X165656732Y-100354135D01*
X165656732Y-100354133D01*
X165656042Y-100347572D01*
X165597027Y-100165944D01*
X165574915Y-100127644D01*
X165556592Y-100095909D01*
X165501540Y-100000556D01*
X165496475Y-99994930D01*
X165378175Y-99863545D01*
X165378174Y-99863544D01*
X165373753Y-99858634D01*
X165246272Y-99766013D01*
X165224594Y-99750263D01*
X165224593Y-99750262D01*
X165219252Y-99746382D01*
X165213224Y-99743698D01*
X165213222Y-99743697D01*
X165050819Y-99671391D01*
X165050818Y-99671391D01*
X165044788Y-99668706D01*
X164938478Y-99646109D01*
X164864444Y-99630372D01*
X164864439Y-99630372D01*
X164857987Y-99629000D01*
X164667013Y-99629000D01*
X164660561Y-99630372D01*
X164660556Y-99630372D01*
X164586522Y-99646109D01*
X164480212Y-99668706D01*
X164474182Y-99671391D01*
X164474181Y-99671391D01*
X164311778Y-99743697D01*
X164311776Y-99743698D01*
X164305748Y-99746382D01*
X164300407Y-99750262D01*
X164300406Y-99750263D01*
X164188332Y-99831690D01*
X164151247Y-99858634D01*
X164146834Y-99863536D01*
X164146832Y-99863537D01*
X164125426Y-99887311D01*
X164064980Y-99924550D01*
X164031790Y-99929000D01*
X160969516Y-99929000D01*
X160901395Y-99908998D01*
X160862372Y-99869303D01*
X160858768Y-99863478D01*
X160773478Y-99725652D01*
X160753661Y-99705869D01*
X160669161Y-99621517D01*
X160648303Y-99600695D01*
X160643765Y-99597898D01*
X160603176Y-99540647D01*
X160599946Y-99469724D01*
X160635572Y-99408313D01*
X160644068Y-99400938D01*
X160654207Y-99392902D01*
X160768739Y-99278171D01*
X160777751Y-99266760D01*
X160862816Y-99128757D01*
X160868963Y-99115576D01*
X160920138Y-98961290D01*
X160923005Y-98947914D01*
X160932672Y-98853562D01*
X160933000Y-98847146D01*
X160933000Y-98734615D01*
X160928525Y-98719376D01*
X160927135Y-98718171D01*
X160919452Y-98716500D01*
X159572000Y-98716500D01*
X159503879Y-98696498D01*
X159457386Y-98642842D01*
X159446000Y-98590500D01*
X159446000Y-98190385D01*
X159954000Y-98190385D01*
X159958475Y-98205624D01*
X159959865Y-98206829D01*
X159967548Y-98208500D01*
X160914884Y-98208500D01*
X160930123Y-98204025D01*
X160931328Y-98202635D01*
X160932999Y-98194952D01*
X160932999Y-98077905D01*
X160932662Y-98071386D01*
X160922743Y-97975794D01*
X160919851Y-97962400D01*
X160868412Y-97808216D01*
X160862239Y-97795038D01*
X160776937Y-97657193D01*
X160767901Y-97645792D01*
X160653171Y-97531261D01*
X160641760Y-97522249D01*
X160503757Y-97437184D01*
X160490576Y-97431037D01*
X160336290Y-97379862D01*
X160322914Y-97376995D01*
X160228562Y-97367328D01*
X160222145Y-97367000D01*
X159972115Y-97367000D01*
X159956876Y-97371475D01*
X159955671Y-97372865D01*
X159954000Y-97380548D01*
X159954000Y-98190385D01*
X159446000Y-98190385D01*
X159446000Y-97385116D01*
X159441525Y-97369877D01*
X159440135Y-97368672D01*
X159432452Y-97367001D01*
X159177905Y-97367001D01*
X159171386Y-97367338D01*
X159075794Y-97377257D01*
X159062400Y-97380149D01*
X158908216Y-97431588D01*
X158895038Y-97437761D01*
X158757193Y-97523063D01*
X158745792Y-97532099D01*
X158631261Y-97646829D01*
X158622249Y-97658240D01*
X158537184Y-97796243D01*
X158531037Y-97809424D01*
X158479862Y-97963710D01*
X158476995Y-97977086D01*
X158467328Y-98071438D01*
X158467000Y-98077855D01*
X158467000Y-98220341D01*
X158446998Y-98288462D01*
X158393342Y-98334955D01*
X158323068Y-98345059D01*
X158292786Y-98336751D01*
X158221351Y-98307162D01*
X158213164Y-98306084D01*
X158213163Y-98306084D01*
X158186333Y-98302552D01*
X158102393Y-98291501D01*
X158102391Y-98291501D01*
X158102385Y-98291500D01*
X158102383Y-98291500D01*
X158102374Y-98291499D01*
X158070689Y-98287328D01*
X158062500Y-98286250D01*
X158030807Y-98290422D01*
X158014364Y-98291500D01*
X157119042Y-98291500D01*
X157050921Y-98271498D01*
X157004428Y-98217842D01*
X156994324Y-98147568D01*
X157018216Y-98089935D01*
X157045229Y-98053892D01*
X157045230Y-98053890D01*
X157050615Y-98046705D01*
X157101745Y-97910316D01*
X157108500Y-97848134D01*
X157108500Y-96251866D01*
X157101745Y-96189684D01*
X157050615Y-96053295D01*
X156963261Y-95936739D01*
X156846705Y-95849385D01*
X156710316Y-95798255D01*
X156648134Y-95791500D01*
X155551866Y-95791500D01*
X155489684Y-95798255D01*
X155460787Y-95809088D01*
X155361699Y-95846234D01*
X155361696Y-95846236D01*
X155353295Y-95849385D01*
X155352976Y-95848534D01*
X155291151Y-95862055D01*
X155246834Y-95849042D01*
X155246705Y-95849385D01*
X155242019Y-95847628D01*
X155242015Y-95847627D01*
X155238304Y-95846236D01*
X155238301Y-95846234D01*
X155139213Y-95809088D01*
X155110316Y-95798255D01*
X155048134Y-95791500D01*
X153951866Y-95791500D01*
X153889684Y-95798255D01*
X153860787Y-95809088D01*
X153761699Y-95846234D01*
X153761696Y-95846236D01*
X153753295Y-95849385D01*
X153752976Y-95848534D01*
X153691151Y-95862055D01*
X153646834Y-95849042D01*
X153646705Y-95849385D01*
X153642019Y-95847628D01*
X153642015Y-95847627D01*
X153638304Y-95846236D01*
X153638301Y-95846234D01*
X153539213Y-95809088D01*
X153510316Y-95798255D01*
X153448134Y-95791500D01*
X152351866Y-95791500D01*
X152289684Y-95798255D01*
X152153295Y-95849385D01*
X152036739Y-95936739D01*
X151949385Y-96053295D01*
X151898255Y-96189684D01*
X151891500Y-96251866D01*
X151891500Y-96495954D01*
X151871498Y-96564075D01*
X151842207Y-96595913D01*
X151816013Y-96616013D01*
X151810983Y-96622568D01*
X151796548Y-96641379D01*
X151785681Y-96653770D01*
X151303766Y-97135685D01*
X151291375Y-97146552D01*
X151266013Y-97166013D01*
X151241526Y-97197925D01*
X151241523Y-97197928D01*
X151241517Y-97197936D01*
X151174621Y-97285116D01*
X151168476Y-97293124D01*
X151107162Y-97441149D01*
X151105724Y-97452072D01*
X151091500Y-97560115D01*
X151091500Y-97560120D01*
X151086250Y-97600000D01*
X151090366Y-97631261D01*
X151090422Y-97631690D01*
X151091500Y-97648136D01*
X151091500Y-102695761D01*
X151071498Y-102763882D01*
X151054595Y-102784856D01*
X150984856Y-102854595D01*
X150922544Y-102888621D01*
X150895761Y-102891500D01*
X127804239Y-102891500D01*
X127736118Y-102871498D01*
X127715144Y-102854595D01*
X127645405Y-102784856D01*
X127611379Y-102722544D01*
X127608500Y-102695761D01*
X127608500Y-99848136D01*
X127609578Y-99831690D01*
X127612672Y-99808188D01*
X127613750Y-99800000D01*
X127608500Y-99760122D01*
X127608500Y-99760115D01*
X127592838Y-99641150D01*
X127589433Y-99632928D01*
X127587573Y-99628439D01*
X127579984Y-99557849D01*
X127611764Y-99494362D01*
X127672822Y-99458135D01*
X127743773Y-99460669D01*
X127793077Y-99491126D01*
X128429595Y-100127644D01*
X128463621Y-100189956D01*
X128466500Y-100216739D01*
X128466500Y-100925400D01*
X128466837Y-100928646D01*
X128466837Y-100928650D01*
X128476537Y-101022134D01*
X128477474Y-101031166D01*
X128479655Y-101037702D01*
X128479655Y-101037704D01*
X128510560Y-101130338D01*
X128533450Y-101198946D01*
X128626522Y-101349348D01*
X128631704Y-101354521D01*
X128647075Y-101369865D01*
X128751697Y-101474305D01*
X128757927Y-101478145D01*
X128757928Y-101478146D01*
X128895090Y-101562694D01*
X128902262Y-101567115D01*
X128934733Y-101577885D01*
X129063611Y-101620632D01*
X129063613Y-101620632D01*
X129070139Y-101622797D01*
X129076975Y-101623497D01*
X129076978Y-101623498D01*
X129120031Y-101627909D01*
X129174600Y-101633500D01*
X130225400Y-101633500D01*
X130228646Y-101633163D01*
X130228650Y-101633163D01*
X130324308Y-101623238D01*
X130324312Y-101623237D01*
X130331166Y-101622526D01*
X130337702Y-101620345D01*
X130337704Y-101620345D01*
X130469806Y-101576272D01*
X130498946Y-101566550D01*
X130649348Y-101473478D01*
X130654803Y-101468014D01*
X130769134Y-101353483D01*
X130774305Y-101348303D01*
X130786439Y-101328618D01*
X130862094Y-101205884D01*
X130914867Y-101158390D01*
X130969354Y-101146000D01*
X132231790Y-101146000D01*
X132299911Y-101166002D01*
X132325426Y-101187689D01*
X132351247Y-101216366D01*
X132360795Y-101223303D01*
X132494224Y-101320245D01*
X132505748Y-101328618D01*
X132511776Y-101331302D01*
X132511778Y-101331303D01*
X132669121Y-101401356D01*
X132680212Y-101406294D01*
X132773613Y-101426147D01*
X132860556Y-101444628D01*
X132860561Y-101444628D01*
X132867013Y-101446000D01*
X133057987Y-101446000D01*
X133064439Y-101444628D01*
X133064444Y-101444628D01*
X133151388Y-101426147D01*
X133244788Y-101406294D01*
X133255879Y-101401356D01*
X133413222Y-101331303D01*
X133413224Y-101331302D01*
X133419252Y-101328618D01*
X133430777Y-101320245D01*
X133528357Y-101249348D01*
X133573753Y-101216366D01*
X133619101Y-101166002D01*
X133697121Y-101079352D01*
X133697122Y-101079351D01*
X133701540Y-101074444D01*
X133775317Y-100946659D01*
X133793723Y-100914779D01*
X133793724Y-100914778D01*
X133797027Y-100909056D01*
X133856042Y-100727428D01*
X133857827Y-100710451D01*
X133875314Y-100544065D01*
X133876004Y-100537500D01*
X133866325Y-100445405D01*
X133856732Y-100354135D01*
X133856732Y-100354133D01*
X133856042Y-100347572D01*
X133797027Y-100165944D01*
X133774915Y-100127644D01*
X133756592Y-100095909D01*
X133701540Y-100000556D01*
X133696475Y-99994930D01*
X133578175Y-99863545D01*
X133578174Y-99863544D01*
X133573753Y-99858634D01*
X133446272Y-99766013D01*
X133424594Y-99750263D01*
X133424593Y-99750262D01*
X133419252Y-99746382D01*
X133413224Y-99743698D01*
X133413222Y-99743697D01*
X133250819Y-99671391D01*
X133250818Y-99671391D01*
X133244788Y-99668706D01*
X133138478Y-99646109D01*
X133064444Y-99630372D01*
X133064439Y-99630372D01*
X133057987Y-99629000D01*
X132867013Y-99629000D01*
X132860561Y-99630372D01*
X132860556Y-99630372D01*
X132786522Y-99646109D01*
X132680212Y-99668706D01*
X132674182Y-99671391D01*
X132674181Y-99671391D01*
X132511778Y-99743697D01*
X132511776Y-99743698D01*
X132505748Y-99746382D01*
X132500407Y-99750262D01*
X132500406Y-99750263D01*
X132388332Y-99831690D01*
X132351247Y-99858634D01*
X132346834Y-99863536D01*
X132346832Y-99863537D01*
X132325426Y-99887311D01*
X132264980Y-99924550D01*
X132231790Y-99929000D01*
X130969516Y-99929000D01*
X130901395Y-99908998D01*
X130862372Y-99869303D01*
X130858768Y-99863478D01*
X130773478Y-99725652D01*
X130753661Y-99705869D01*
X130669161Y-99621517D01*
X130648303Y-99600695D01*
X130643765Y-99597898D01*
X130603176Y-99540647D01*
X130599946Y-99469724D01*
X130635572Y-99408313D01*
X130644068Y-99400938D01*
X130654207Y-99392902D01*
X130768739Y-99278171D01*
X130777751Y-99266760D01*
X130862816Y-99128757D01*
X130868963Y-99115576D01*
X130920138Y-98961290D01*
X130923005Y-98947914D01*
X130932672Y-98853562D01*
X130933000Y-98847146D01*
X130933000Y-98734615D01*
X130928525Y-98719376D01*
X130927135Y-98718171D01*
X130919452Y-98716500D01*
X129572000Y-98716500D01*
X129503879Y-98696498D01*
X129457386Y-98642842D01*
X129446000Y-98590500D01*
X129446000Y-98190385D01*
X129954000Y-98190385D01*
X129958475Y-98205624D01*
X129959865Y-98206829D01*
X129967548Y-98208500D01*
X130914884Y-98208500D01*
X130930123Y-98204025D01*
X130931328Y-98202635D01*
X130932999Y-98194952D01*
X130932999Y-98077905D01*
X130932662Y-98071386D01*
X130922743Y-97975794D01*
X130919851Y-97962400D01*
X130868412Y-97808216D01*
X130862239Y-97795038D01*
X130776937Y-97657193D01*
X130767901Y-97645792D01*
X130653171Y-97531261D01*
X130641760Y-97522249D01*
X130503757Y-97437184D01*
X130490576Y-97431037D01*
X130336290Y-97379862D01*
X130322914Y-97376995D01*
X130228562Y-97367328D01*
X130222145Y-97367000D01*
X129972115Y-97367000D01*
X129956876Y-97371475D01*
X129955671Y-97372865D01*
X129954000Y-97380548D01*
X129954000Y-98190385D01*
X129446000Y-98190385D01*
X129446000Y-97385116D01*
X129441525Y-97369877D01*
X129440135Y-97368672D01*
X129432452Y-97367001D01*
X129177905Y-97367001D01*
X129171386Y-97367338D01*
X129075794Y-97377257D01*
X129062400Y-97380149D01*
X128908216Y-97431588D01*
X128895038Y-97437761D01*
X128757193Y-97523063D01*
X128745792Y-97532099D01*
X128631261Y-97646829D01*
X128622249Y-97658240D01*
X128537184Y-97796243D01*
X128531037Y-97809424D01*
X128479862Y-97963710D01*
X128476995Y-97977086D01*
X128467328Y-98071438D01*
X128467000Y-98077855D01*
X128467000Y-98139761D01*
X128446998Y-98207882D01*
X128393342Y-98254375D01*
X128323068Y-98264479D01*
X128258488Y-98234985D01*
X128251905Y-98228856D01*
X128226815Y-98203766D01*
X128215948Y-98191375D01*
X128201513Y-98172563D01*
X128196487Y-98166013D01*
X128164575Y-98141526D01*
X128164572Y-98141523D01*
X128158485Y-98136852D01*
X128075929Y-98073504D01*
X128075927Y-98073503D01*
X128069376Y-98068476D01*
X127921351Y-98007162D01*
X127913164Y-98006084D01*
X127913163Y-98006084D01*
X127901958Y-98004609D01*
X127863910Y-97999600D01*
X127802385Y-97991500D01*
X127802382Y-97991500D01*
X127802374Y-97991499D01*
X127770689Y-97987328D01*
X127762500Y-97986250D01*
X127730807Y-97990422D01*
X127714364Y-97991500D01*
X127133355Y-97991500D01*
X127065234Y-97971498D01*
X127018741Y-97917842D01*
X127008586Y-97854963D01*
X127007947Y-97854928D01*
X127008106Y-97851993D01*
X127008091Y-97851900D01*
X127008131Y-97851533D01*
X127008131Y-97851529D01*
X127008500Y-97848134D01*
X127008500Y-96251866D01*
X127001745Y-96189684D01*
X126950615Y-96053295D01*
X126863261Y-95936739D01*
X126746705Y-95849385D01*
X126610316Y-95798255D01*
X126548134Y-95791500D01*
X125451866Y-95791500D01*
X125389684Y-95798255D01*
X125360787Y-95809088D01*
X125261699Y-95846234D01*
X125261696Y-95846236D01*
X125253295Y-95849385D01*
X125252976Y-95848534D01*
X125191151Y-95862055D01*
X125146834Y-95849042D01*
X125146705Y-95849385D01*
X125142019Y-95847628D01*
X125142015Y-95847627D01*
X125138304Y-95846236D01*
X125138301Y-95846234D01*
X125039213Y-95809088D01*
X125010316Y-95798255D01*
X124948134Y-95791500D01*
X123851866Y-95791500D01*
X123789684Y-95798255D01*
X123760787Y-95809088D01*
X123661699Y-95846234D01*
X123661696Y-95846236D01*
X123653295Y-95849385D01*
X123652976Y-95848534D01*
X123591151Y-95862055D01*
X123546834Y-95849042D01*
X123546705Y-95849385D01*
X123542019Y-95847628D01*
X123542015Y-95847627D01*
X123538304Y-95846236D01*
X123538301Y-95846234D01*
X123439213Y-95809088D01*
X123410316Y-95798255D01*
X123348134Y-95791500D01*
X122251866Y-95791500D01*
X122189684Y-95798255D01*
X122053295Y-95849385D01*
X121936739Y-95936739D01*
X121849385Y-96053295D01*
X121798255Y-96189684D01*
X121791500Y-96251866D01*
X121791500Y-97145761D01*
X121771498Y-97213882D01*
X121754595Y-97234856D01*
X121708882Y-97280569D01*
X121668005Y-97307883D01*
X121651240Y-97314827D01*
X121651235Y-97314830D01*
X121643613Y-97317987D01*
X121637063Y-97323013D01*
X121562083Y-97380548D01*
X121548417Y-97391034D01*
X121548414Y-97391037D01*
X121516502Y-97415524D01*
X121511472Y-97422079D01*
X121497037Y-97440890D01*
X121486170Y-97453281D01*
X121003766Y-97935685D01*
X120991375Y-97946552D01*
X120966013Y-97966013D01*
X120941526Y-97997925D01*
X120941523Y-97997928D01*
X120933567Y-98008296D01*
X120875416Y-98084080D01*
X120868476Y-98093124D01*
X120824633Y-98198971D01*
X120821240Y-98207162D01*
X120811018Y-98231841D01*
X120807162Y-98241150D01*
X120806084Y-98249338D01*
X120791500Y-98360115D01*
X120791500Y-98360120D01*
X120787417Y-98391139D01*
X120786250Y-98400000D01*
X120790409Y-98431588D01*
X120790422Y-98431690D01*
X120791500Y-98448136D01*
X120791500Y-102265500D01*
X120771498Y-102333621D01*
X120717842Y-102380114D01*
X120665500Y-102391500D01*
X97634500Y-102391500D01*
X97566379Y-102371498D01*
X97519886Y-102317842D01*
X97508500Y-102265500D01*
X97508500Y-100448136D01*
X97509578Y-100431690D01*
X97510649Y-100423559D01*
X97513750Y-100400000D01*
X97508500Y-100360120D01*
X97508500Y-100360115D01*
X97495119Y-100258477D01*
X97492838Y-100241149D01*
X97431524Y-100093124D01*
X97423110Y-100082158D01*
X97362266Y-100002866D01*
X97358477Y-99997928D01*
X97358474Y-99997925D01*
X97333987Y-99966013D01*
X97324371Y-99958634D01*
X97308621Y-99946548D01*
X97296230Y-99935681D01*
X97084144Y-99723595D01*
X97050118Y-99661283D01*
X97055183Y-99590468D01*
X97097730Y-99533632D01*
X97164250Y-99508821D01*
X97173239Y-99508500D01*
X97458261Y-99508500D01*
X97526382Y-99528502D01*
X97547356Y-99545405D01*
X98229595Y-100227644D01*
X98263621Y-100289956D01*
X98266500Y-100316739D01*
X98266500Y-101025400D01*
X98266837Y-101028646D01*
X98266837Y-101028650D01*
X98274919Y-101106538D01*
X98277474Y-101131166D01*
X98279655Y-101137702D01*
X98279655Y-101137704D01*
X98308213Y-101223303D01*
X98333450Y-101298946D01*
X98426522Y-101449348D01*
X98431704Y-101454521D01*
X98480878Y-101503609D01*
X98551697Y-101574305D01*
X98557927Y-101578145D01*
X98557928Y-101578146D01*
X98695090Y-101662694D01*
X98702262Y-101667115D01*
X98782005Y-101693564D01*
X98863611Y-101720632D01*
X98863613Y-101720632D01*
X98870139Y-101722797D01*
X98876975Y-101723497D01*
X98876978Y-101723498D01*
X98920031Y-101727909D01*
X98974600Y-101733500D01*
X100025400Y-101733500D01*
X100028646Y-101733163D01*
X100028650Y-101733163D01*
X100124308Y-101723238D01*
X100124312Y-101723237D01*
X100131166Y-101722526D01*
X100137702Y-101720345D01*
X100137704Y-101720345D01*
X100269806Y-101676272D01*
X100298946Y-101666550D01*
X100449348Y-101573478D01*
X100574305Y-101448303D01*
X100586439Y-101428618D01*
X100662094Y-101305884D01*
X100714867Y-101258390D01*
X100769354Y-101246000D01*
X101631790Y-101246000D01*
X101699911Y-101266002D01*
X101725426Y-101287689D01*
X101728514Y-101291118D01*
X101751247Y-101316366D01*
X101762769Y-101324737D01*
X101876170Y-101407128D01*
X101905748Y-101428618D01*
X101911776Y-101431302D01*
X101911778Y-101431303D01*
X102074181Y-101503609D01*
X102080212Y-101506294D01*
X102173612Y-101526147D01*
X102260556Y-101544628D01*
X102260561Y-101544628D01*
X102267013Y-101546000D01*
X102457987Y-101546000D01*
X102464439Y-101544628D01*
X102464444Y-101544628D01*
X102551387Y-101526147D01*
X102644788Y-101506294D01*
X102650819Y-101503609D01*
X102813222Y-101431303D01*
X102813224Y-101431302D01*
X102819252Y-101428618D01*
X102973753Y-101316366D01*
X102983829Y-101305176D01*
X103097121Y-101179352D01*
X103097122Y-101179351D01*
X103101540Y-101174444D01*
X103175697Y-101046000D01*
X103193723Y-101014779D01*
X103193724Y-101014778D01*
X103197027Y-101009056D01*
X103256042Y-100827428D01*
X103262734Y-100763762D01*
X103275314Y-100644065D01*
X103276004Y-100637500D01*
X103273126Y-100610116D01*
X103256732Y-100454135D01*
X103256732Y-100454133D01*
X103256042Y-100447572D01*
X103197027Y-100265944D01*
X103192802Y-100258625D01*
X103146839Y-100179016D01*
X103101540Y-100100556D01*
X103084975Y-100082158D01*
X102978175Y-99963545D01*
X102978174Y-99963544D01*
X102973753Y-99958634D01*
X102842531Y-99863295D01*
X102824594Y-99850263D01*
X102824593Y-99850262D01*
X102819252Y-99846382D01*
X102813224Y-99843698D01*
X102813222Y-99843697D01*
X102650819Y-99771391D01*
X102650818Y-99771391D01*
X102644788Y-99768706D01*
X102541442Y-99746739D01*
X102464444Y-99730372D01*
X102464439Y-99730372D01*
X102457987Y-99729000D01*
X102267013Y-99729000D01*
X102260561Y-99730372D01*
X102260556Y-99730372D01*
X102183558Y-99746739D01*
X102080212Y-99768706D01*
X102074182Y-99771391D01*
X102074181Y-99771391D01*
X101911778Y-99843697D01*
X101911776Y-99843698D01*
X101905748Y-99846382D01*
X101900407Y-99850262D01*
X101900406Y-99850263D01*
X101788971Y-99931226D01*
X101751247Y-99958634D01*
X101746834Y-99963536D01*
X101746832Y-99963537D01*
X101725426Y-99987311D01*
X101664980Y-100024550D01*
X101631790Y-100029000D01*
X100769516Y-100029000D01*
X100701395Y-100008998D01*
X100662372Y-99969303D01*
X100658507Y-99963056D01*
X100573478Y-99825652D01*
X100448303Y-99700695D01*
X100443765Y-99697898D01*
X100403176Y-99640647D01*
X100399946Y-99569724D01*
X100435572Y-99508313D01*
X100444068Y-99500938D01*
X100454207Y-99492902D01*
X100568739Y-99378171D01*
X100577751Y-99366760D01*
X100662816Y-99228757D01*
X100668963Y-99215576D01*
X100720138Y-99061290D01*
X100723005Y-99047914D01*
X100732672Y-98953562D01*
X100733000Y-98947146D01*
X100733000Y-98834615D01*
X100728525Y-98819376D01*
X100727135Y-98818171D01*
X100719452Y-98816500D01*
X99372000Y-98816500D01*
X99303879Y-98796498D01*
X99257386Y-98742842D01*
X99246000Y-98690500D01*
X99246000Y-98290385D01*
X99754000Y-98290385D01*
X99758475Y-98305624D01*
X99759865Y-98306829D01*
X99767548Y-98308500D01*
X100714884Y-98308500D01*
X100730123Y-98304025D01*
X100731328Y-98302635D01*
X100732999Y-98294952D01*
X100732999Y-98177905D01*
X100732662Y-98171386D01*
X100722743Y-98075794D01*
X100719851Y-98062400D01*
X100668412Y-97908216D01*
X100662239Y-97895038D01*
X100576937Y-97757193D01*
X100567901Y-97745792D01*
X100453171Y-97631261D01*
X100441760Y-97622249D01*
X100303757Y-97537184D01*
X100290576Y-97531037D01*
X100136290Y-97479862D01*
X100122914Y-97476995D01*
X100028562Y-97467328D01*
X100022145Y-97467000D01*
X99772115Y-97467000D01*
X99756876Y-97471475D01*
X99755671Y-97472865D01*
X99754000Y-97480548D01*
X99754000Y-98290385D01*
X99246000Y-98290385D01*
X99246000Y-97485116D01*
X99241525Y-97469877D01*
X99240135Y-97468672D01*
X99232452Y-97467001D01*
X98977905Y-97467001D01*
X98971386Y-97467338D01*
X98875794Y-97477257D01*
X98862400Y-97480149D01*
X98708216Y-97531588D01*
X98695038Y-97537761D01*
X98557193Y-97623063D01*
X98545792Y-97632099D01*
X98431261Y-97746829D01*
X98422249Y-97758240D01*
X98337184Y-97896243D01*
X98331037Y-97909424D01*
X98279862Y-98063710D01*
X98276995Y-98077086D01*
X98267328Y-98171438D01*
X98267000Y-98177855D01*
X98267000Y-98265581D01*
X98246998Y-98333702D01*
X98193342Y-98380195D01*
X98123068Y-98390299D01*
X98077998Y-98374699D01*
X98075930Y-98373505D01*
X98069376Y-98368476D01*
X97921351Y-98307162D01*
X97913164Y-98306084D01*
X97913163Y-98306084D01*
X97886333Y-98302552D01*
X97802393Y-98291501D01*
X97802391Y-98291501D01*
X97802385Y-98291500D01*
X97802383Y-98291500D01*
X97802374Y-98291499D01*
X97770689Y-98287328D01*
X97762500Y-98286250D01*
X97730807Y-98290422D01*
X97714364Y-98291500D01*
X96919042Y-98291500D01*
X96850921Y-98271498D01*
X96804428Y-98217842D01*
X96794324Y-98147568D01*
X96818216Y-98089935D01*
X96845229Y-98053892D01*
X96845230Y-98053890D01*
X96850615Y-98046705D01*
X96901745Y-97910316D01*
X96908500Y-97848134D01*
X96908500Y-96251866D01*
X96901745Y-96189684D01*
X96850615Y-96053295D01*
X96763261Y-95936739D01*
X96646705Y-95849385D01*
X96510316Y-95798255D01*
X96448134Y-95791500D01*
X95351866Y-95791500D01*
X95289684Y-95798255D01*
X95260787Y-95809088D01*
X95161699Y-95846234D01*
X95161696Y-95846236D01*
X95153295Y-95849385D01*
X95152976Y-95848534D01*
X95091151Y-95862055D01*
X95046834Y-95849042D01*
X95046705Y-95849385D01*
X95042019Y-95847628D01*
X95042015Y-95847627D01*
X95038304Y-95846236D01*
X95038301Y-95846234D01*
X94939213Y-95809088D01*
X94910316Y-95798255D01*
X94848134Y-95791500D01*
X93751866Y-95791500D01*
X93689684Y-95798255D01*
X93660787Y-95809088D01*
X93561699Y-95846234D01*
X93561696Y-95846236D01*
X93553295Y-95849385D01*
X93552976Y-95848534D01*
X93491151Y-95862055D01*
X93446834Y-95849042D01*
X93446705Y-95849385D01*
X93442020Y-95847628D01*
X93442012Y-95847626D01*
X93438304Y-95846236D01*
X93438301Y-95846234D01*
X93390270Y-95828228D01*
X93333505Y-95785586D01*
X93308806Y-95719024D01*
X93308500Y-95710246D01*
X93308500Y-92548136D01*
X93309578Y-92531690D01*
X93312672Y-92508188D01*
X93313750Y-92500000D01*
X93308500Y-92460120D01*
X93308500Y-92460115D01*
X93292838Y-92341150D01*
X93292838Y-92341149D01*
X93231524Y-92193124D01*
X93158478Y-92097929D01*
X93158474Y-92097925D01*
X93158471Y-92097921D01*
X93139016Y-92072566D01*
X93139013Y-92072563D01*
X93133987Y-92066013D01*
X93127432Y-92060983D01*
X93108621Y-92046548D01*
X93096230Y-92035681D01*
X92664315Y-91603766D01*
X92653448Y-91591375D01*
X92639013Y-91572563D01*
X92633987Y-91566013D01*
X92602075Y-91541526D01*
X92602072Y-91541523D01*
X92602064Y-91541517D01*
X92513429Y-91473504D01*
X92513427Y-91473503D01*
X92506876Y-91468476D01*
X92358851Y-91407162D01*
X92350664Y-91406084D01*
X92350663Y-91406084D01*
X92339458Y-91404609D01*
X92308262Y-91400502D01*
X92239885Y-91391500D01*
X92239882Y-91391500D01*
X92239874Y-91391499D01*
X92208189Y-91387328D01*
X92200000Y-91386250D01*
X92168307Y-91390422D01*
X92151864Y-91391500D01*
X75448136Y-91391500D01*
X75431690Y-91390422D01*
X75408188Y-91387328D01*
X75400000Y-91386250D01*
X75391812Y-91387328D01*
X75360129Y-91391499D01*
X75360120Y-91391500D01*
X75360115Y-91391500D01*
X75241150Y-91407162D01*
X75093125Y-91468476D01*
X75093123Y-91468477D01*
X75093124Y-91468477D01*
X74997928Y-91541523D01*
X74997925Y-91541526D01*
X74966013Y-91566013D01*
X74960983Y-91572568D01*
X74946548Y-91591379D01*
X74935681Y-91603770D01*
X74040197Y-92499254D01*
X74027806Y-92510121D01*
X74002444Y-92529582D01*
X73977957Y-92561494D01*
X73977954Y-92561497D01*
X73977948Y-92561505D01*
X73913569Y-92645405D01*
X73904907Y-92656693D01*
X73843593Y-92804718D01*
X73843593Y-92804719D01*
X73827931Y-92923684D01*
X73827931Y-92923689D01*
X73822681Y-92963569D01*
X73823759Y-92971757D01*
X73826853Y-92995259D01*
X73827931Y-93011705D01*
X73827931Y-95708262D01*
X73807929Y-95776383D01*
X73754273Y-95822876D01*
X73683999Y-95832980D01*
X73626366Y-95809088D01*
X73611649Y-95798058D01*
X73546705Y-95749385D01*
X73410316Y-95698255D01*
X73348134Y-95691500D01*
X72251866Y-95691500D01*
X72189684Y-95698255D01*
X72157698Y-95710246D01*
X72061699Y-95746234D01*
X72061696Y-95746236D01*
X72053295Y-95749385D01*
X72052976Y-95748534D01*
X71991151Y-95762055D01*
X71946834Y-95749042D01*
X71946705Y-95749385D01*
X71942020Y-95747628D01*
X71942012Y-95747626D01*
X71938304Y-95746236D01*
X71938301Y-95746234D01*
X71890270Y-95728228D01*
X71833505Y-95685586D01*
X71808806Y-95619024D01*
X71808500Y-95610246D01*
X71808500Y-95230290D01*
X71828502Y-95162169D01*
X71840864Y-95145980D01*
X71934621Y-95041852D01*
X71934622Y-95041851D01*
X71939040Y-95036944D01*
X71997314Y-94936010D01*
X72031223Y-94877279D01*
X72031224Y-94877278D01*
X72034527Y-94871556D01*
X72093542Y-94689928D01*
X72095043Y-94675652D01*
X72112814Y-94506565D01*
X72113504Y-94500000D01*
X72093542Y-94310072D01*
X72034527Y-94128444D01*
X72021618Y-94106084D01*
X71942341Y-93968774D01*
X71939040Y-93963056D01*
X71811253Y-93821134D01*
X71656752Y-93708882D01*
X71650724Y-93706198D01*
X71650722Y-93706197D01*
X71488319Y-93633891D01*
X71488318Y-93633891D01*
X71482288Y-93631206D01*
X71388887Y-93611353D01*
X71301944Y-93592872D01*
X71301939Y-93592872D01*
X71295487Y-93591500D01*
X71104513Y-93591500D01*
X71098061Y-93592872D01*
X71098056Y-93592872D01*
X71011113Y-93611353D01*
X70917712Y-93631206D01*
X70911682Y-93633891D01*
X70911681Y-93633891D01*
X70749278Y-93706197D01*
X70749276Y-93706198D01*
X70743248Y-93708882D01*
X70588747Y-93821134D01*
X70460960Y-93963056D01*
X70457659Y-93968774D01*
X70378383Y-94106084D01*
X70365473Y-94128444D01*
X70306458Y-94310072D01*
X70286496Y-94500000D01*
X70287186Y-94506565D01*
X70304958Y-94675652D01*
X70306458Y-94689928D01*
X70365473Y-94871556D01*
X70368776Y-94877278D01*
X70368777Y-94877279D01*
X70402686Y-94936010D01*
X70460960Y-95036944D01*
X70465378Y-95041851D01*
X70465379Y-95041852D01*
X70559136Y-95145980D01*
X70589854Y-95209987D01*
X70591500Y-95230290D01*
X70591500Y-95610246D01*
X70571498Y-95678367D01*
X70517842Y-95724860D01*
X70509730Y-95728228D01*
X70461699Y-95746234D01*
X70461696Y-95746236D01*
X70453295Y-95749385D01*
X70452976Y-95748534D01*
X70391151Y-95762055D01*
X70346834Y-95749042D01*
X70346705Y-95749385D01*
X70342019Y-95747628D01*
X70342015Y-95747627D01*
X70338304Y-95746236D01*
X70338301Y-95746234D01*
X70242302Y-95710246D01*
X70210316Y-95698255D01*
X70148134Y-95691500D01*
X69051866Y-95691500D01*
X68989684Y-95698255D01*
X68853295Y-95749385D01*
X68736739Y-95836739D01*
X68649385Y-95953295D01*
X68598255Y-96089684D01*
X68591500Y-96151866D01*
X68591500Y-97748134D01*
X68598255Y-97810316D01*
X68649385Y-97946705D01*
X68736739Y-98063261D01*
X68853295Y-98150615D01*
X68861703Y-98153767D01*
X68909730Y-98171772D01*
X68966495Y-98214414D01*
X68991194Y-98280976D01*
X68991500Y-98289754D01*
X68991500Y-98669710D01*
X68971498Y-98737831D01*
X68959136Y-98754020D01*
X68869508Y-98853562D01*
X68860960Y-98863056D01*
X68822332Y-98929962D01*
X68779719Y-99003770D01*
X68765473Y-99028444D01*
X68706458Y-99210072D01*
X68705768Y-99216633D01*
X68705768Y-99216635D01*
X68691911Y-99348478D01*
X68686496Y-99400000D01*
X68687186Y-99406565D01*
X68705130Y-99577289D01*
X68706458Y-99589928D01*
X68765473Y-99771556D01*
X68768776Y-99777278D01*
X68768777Y-99777279D01*
X68793719Y-99820479D01*
X68860960Y-99936944D01*
X68865378Y-99941851D01*
X68865379Y-99941852D01*
X68971868Y-100060120D01*
X68988747Y-100078866D01*
X69055884Y-100127644D01*
X69130916Y-100182158D01*
X69143248Y-100191118D01*
X69149274Y-100193801D01*
X69149281Y-100193805D01*
X69256058Y-100241344D01*
X69310154Y-100287324D01*
X69330804Y-100355251D01*
X69311452Y-100423559D01*
X69293905Y-100445546D01*
X69203766Y-100535685D01*
X69191384Y-100546545D01*
X69166729Y-100565464D01*
X69100511Y-100591063D01*
X69090027Y-100591500D01*
X69051866Y-100591500D01*
X68989684Y-100598255D01*
X68853295Y-100649385D01*
X68736739Y-100736739D01*
X68649385Y-100853295D01*
X68598255Y-100989684D01*
X68591500Y-101051866D01*
X68591500Y-102648134D01*
X68598255Y-102710316D01*
X68649385Y-102846705D01*
X68736739Y-102963261D01*
X68853295Y-103050615D01*
X68861703Y-103053767D01*
X68909730Y-103071772D01*
X68966495Y-103114414D01*
X68991194Y-103180976D01*
X68991500Y-103189754D01*
X68991500Y-106995761D01*
X68971498Y-107063882D01*
X68954595Y-107084856D01*
X68884856Y-107154595D01*
X68822544Y-107188621D01*
X68795761Y-107191500D01*
X43334500Y-107191500D01*
X43266379Y-107171498D01*
X43219886Y-107117842D01*
X43208500Y-107065500D01*
X43208500Y-103289754D01*
X43228502Y-103221633D01*
X43282158Y-103175140D01*
X43290270Y-103171772D01*
X43338297Y-103153767D01*
X43346705Y-103150615D01*
X43463261Y-103063261D01*
X43550615Y-102946705D01*
X43601745Y-102810316D01*
X43608500Y-102748134D01*
X43608500Y-101873239D01*
X43628502Y-101805118D01*
X43682158Y-101758625D01*
X43752432Y-101748521D01*
X43817012Y-101778015D01*
X43823595Y-101784144D01*
X44785790Y-102746339D01*
X44819816Y-102808651D01*
X44822695Y-102835434D01*
X44822695Y-102900000D01*
X44860132Y-102898372D01*
X44879212Y-102897543D01*
X44948138Y-102914567D01*
X44973780Y-102934329D01*
X45735685Y-103696234D01*
X45746552Y-103708625D01*
X45766013Y-103733987D01*
X45772563Y-103739013D01*
X45797921Y-103758471D01*
X45797937Y-103758485D01*
X45832305Y-103784856D01*
X45893124Y-103831524D01*
X46041149Y-103892838D01*
X46200000Y-103913751D01*
X46231699Y-103909578D01*
X46248144Y-103908500D01*
X50389364Y-103908500D01*
X50405807Y-103909578D01*
X50437500Y-103913750D01*
X50445689Y-103912672D01*
X50477374Y-103908501D01*
X50477384Y-103908500D01*
X50477385Y-103908500D01*
X50489721Y-103906876D01*
X50576957Y-103895391D01*
X50588164Y-103893916D01*
X50588166Y-103893915D01*
X50596351Y-103892838D01*
X50744376Y-103831524D01*
X50750930Y-103826495D01*
X50839569Y-103758480D01*
X50839575Y-103758474D01*
X50864934Y-103739015D01*
X50871487Y-103733987D01*
X50887262Y-103713429D01*
X50890952Y-103708621D01*
X50901819Y-103696230D01*
X52576405Y-102021644D01*
X52638717Y-101987618D01*
X52709532Y-101992683D01*
X52766368Y-102035230D01*
X52791179Y-102101750D01*
X52791500Y-102110739D01*
X52791500Y-102588460D01*
X52771498Y-102656581D01*
X52759136Y-102672770D01*
X52686785Y-102753124D01*
X52660960Y-102781806D01*
X52619635Y-102853383D01*
X52572901Y-102934329D01*
X52565473Y-102947194D01*
X52506458Y-103128822D01*
X52505768Y-103135383D01*
X52505768Y-103135385D01*
X52492075Y-103265671D01*
X52486496Y-103318750D01*
X52487186Y-103325315D01*
X52505467Y-103499246D01*
X52506458Y-103508678D01*
X52565473Y-103690306D01*
X52568776Y-103696028D01*
X52568777Y-103696029D01*
X52590692Y-103733987D01*
X52660960Y-103855694D01*
X52665378Y-103860601D01*
X52665379Y-103860602D01*
X52709477Y-103909578D01*
X52788747Y-103997616D01*
X52943248Y-104109868D01*
X52949276Y-104112552D01*
X52949278Y-104112553D01*
X53111681Y-104184859D01*
X53117712Y-104187544D01*
X53208657Y-104206875D01*
X53298056Y-104225878D01*
X53298061Y-104225878D01*
X53304513Y-104227250D01*
X53495487Y-104227250D01*
X53501939Y-104225878D01*
X53501944Y-104225878D01*
X53591343Y-104206875D01*
X53682288Y-104187544D01*
X53688319Y-104184859D01*
X53850722Y-104112553D01*
X53850724Y-104112552D01*
X53856752Y-104109868D01*
X53932727Y-104054669D01*
X56317001Y-104054669D01*
X56317371Y-104061490D01*
X56322895Y-104112352D01*
X56326521Y-104127604D01*
X56371676Y-104248054D01*
X56380214Y-104263649D01*
X56456715Y-104365724D01*
X56469276Y-104378285D01*
X56571351Y-104454786D01*
X56586946Y-104463324D01*
X56707394Y-104508478D01*
X56722649Y-104512105D01*
X56773514Y-104517631D01*
X56780328Y-104518000D01*
X56877885Y-104518000D01*
X56893124Y-104513525D01*
X56894329Y-104512135D01*
X56896000Y-104504452D01*
X56896000Y-104499884D01*
X57404000Y-104499884D01*
X57408475Y-104515123D01*
X57409865Y-104516328D01*
X57417548Y-104517999D01*
X57519669Y-104517999D01*
X57526490Y-104517629D01*
X57577352Y-104512105D01*
X57592604Y-104508479D01*
X57713054Y-104463324D01*
X57728649Y-104454786D01*
X57830724Y-104378285D01*
X57843285Y-104365724D01*
X57919786Y-104263649D01*
X57928324Y-104248054D01*
X57973480Y-104127602D01*
X57977159Y-104112129D01*
X58012378Y-104050484D01*
X58075333Y-104017665D01*
X58146038Y-104024092D01*
X58202044Y-104067725D01*
X58222324Y-104112134D01*
X58222402Y-104112460D01*
X58223255Y-104120316D01*
X58274385Y-104256705D01*
X58308387Y-104302074D01*
X58361739Y-104373261D01*
X58360135Y-104374463D01*
X58388621Y-104426630D01*
X58391500Y-104453413D01*
X58391500Y-104919710D01*
X58371498Y-104987831D01*
X58359136Y-105004020D01*
X58265525Y-105107986D01*
X58260960Y-105113056D01*
X58165473Y-105278444D01*
X58106458Y-105460072D01*
X58105768Y-105466633D01*
X58105768Y-105466635D01*
X58091751Y-105600000D01*
X58086496Y-105650000D01*
X58106458Y-105839928D01*
X58165473Y-106021556D01*
X58260960Y-106186944D01*
X58265378Y-106191851D01*
X58265379Y-106191852D01*
X58376848Y-106315651D01*
X58388747Y-106328866D01*
X58474429Y-106391118D01*
X58505138Y-106413429D01*
X58543248Y-106441118D01*
X58549276Y-106443802D01*
X58549278Y-106443803D01*
X58694591Y-106508500D01*
X58717712Y-106518794D01*
X58811112Y-106538647D01*
X58898056Y-106557128D01*
X58898061Y-106557128D01*
X58904513Y-106558500D01*
X59095487Y-106558500D01*
X59101939Y-106557128D01*
X59101944Y-106557128D01*
X59188888Y-106538647D01*
X59282288Y-106518794D01*
X59305409Y-106508500D01*
X59450722Y-106443803D01*
X59450724Y-106443802D01*
X59456752Y-106441118D01*
X59494863Y-106413429D01*
X59525571Y-106391118D01*
X59611253Y-106328866D01*
X59623152Y-106315651D01*
X59734621Y-106191852D01*
X59734622Y-106191851D01*
X59739040Y-106186944D01*
X59834527Y-106021556D01*
X59893542Y-105839928D01*
X59913504Y-105650000D01*
X59908249Y-105600000D01*
X59894232Y-105466635D01*
X59894232Y-105466633D01*
X59893542Y-105460072D01*
X59834527Y-105278444D01*
X59739040Y-105113056D01*
X59734475Y-105107986D01*
X59640864Y-105004020D01*
X59610146Y-104940013D01*
X59608500Y-104919710D01*
X59608500Y-104533539D01*
X59628502Y-104465418D01*
X59658935Y-104432713D01*
X59731080Y-104378643D01*
X59731081Y-104378642D01*
X59738261Y-104373261D01*
X59825615Y-104256705D01*
X59876745Y-104120316D01*
X59883500Y-104058134D01*
X59883500Y-102173580D01*
X62643752Y-102173580D01*
X62668477Y-102291421D01*
X62671537Y-102301617D01*
X62752263Y-102506029D01*
X62756994Y-102515561D01*
X62871016Y-102703462D01*
X62877280Y-102712052D01*
X63021327Y-102878052D01*
X63028958Y-102885472D01*
X63198911Y-103024826D01*
X63207678Y-103030850D01*
X63398682Y-103139576D01*
X63408346Y-103144041D01*
X63614941Y-103219031D01*
X63625208Y-103221802D01*
X63828174Y-103258504D01*
X63841414Y-103257085D01*
X63846000Y-103242450D01*
X63846000Y-103238849D01*
X64354000Y-103238849D01*
X64358310Y-103253527D01*
X64370193Y-103255590D01*
X64449325Y-103248876D01*
X64459797Y-103247086D01*
X64672535Y-103191870D01*
X64682575Y-103188335D01*
X64882970Y-103098063D01*
X64892256Y-103092894D01*
X65074575Y-102970150D01*
X65082870Y-102963481D01*
X65241900Y-102811772D01*
X65248941Y-102803814D01*
X65380141Y-102627475D01*
X65385745Y-102618438D01*
X65485357Y-102422516D01*
X65489357Y-102412665D01*
X65554534Y-102202760D01*
X65556817Y-102192376D01*
X65558861Y-102176957D01*
X65556665Y-102162793D01*
X65543478Y-102159000D01*
X64372115Y-102159000D01*
X64356876Y-102163475D01*
X64355671Y-102164865D01*
X64354000Y-102172548D01*
X64354000Y-103238849D01*
X63846000Y-103238849D01*
X63846000Y-102177115D01*
X63841525Y-102161876D01*
X63840135Y-102160671D01*
X63832452Y-102159000D01*
X62658808Y-102159000D01*
X62645277Y-102162973D01*
X62643752Y-102173580D01*
X59883500Y-102173580D01*
X59883500Y-101961866D01*
X59876745Y-101899684D01*
X59825615Y-101763295D01*
X59738261Y-101646739D01*
X59621705Y-101559385D01*
X59485316Y-101508255D01*
X59423134Y-101501500D01*
X58676866Y-101501500D01*
X58614684Y-101508255D01*
X58478295Y-101559385D01*
X58361739Y-101646739D01*
X58274385Y-101763295D01*
X58223255Y-101899684D01*
X58222402Y-101907533D01*
X58222322Y-101907871D01*
X58187104Y-101969517D01*
X58124148Y-102002336D01*
X58053443Y-101995909D01*
X57997437Y-101952276D01*
X57977157Y-101907866D01*
X57973480Y-101892398D01*
X57928324Y-101771946D01*
X57919786Y-101756351D01*
X57843285Y-101654276D01*
X57830724Y-101641715D01*
X57728649Y-101565214D01*
X57713054Y-101556676D01*
X57592606Y-101511522D01*
X57577351Y-101507895D01*
X57526486Y-101502369D01*
X57519672Y-101502000D01*
X57422115Y-101502000D01*
X57406876Y-101506475D01*
X57405671Y-101507865D01*
X57404000Y-101515548D01*
X57404000Y-104499884D01*
X56896000Y-104499884D01*
X56896000Y-103282115D01*
X56891525Y-103266876D01*
X56890135Y-103265671D01*
X56882452Y-103264000D01*
X56335116Y-103264000D01*
X56319877Y-103268475D01*
X56318672Y-103269865D01*
X56317001Y-103277548D01*
X56317001Y-104054669D01*
X53932727Y-104054669D01*
X54011253Y-103997616D01*
X54090523Y-103909578D01*
X54134621Y-103860602D01*
X54134622Y-103860601D01*
X54139040Y-103855694D01*
X54209308Y-103733987D01*
X54231223Y-103696029D01*
X54231224Y-103696028D01*
X54234527Y-103690306D01*
X54293542Y-103508678D01*
X54294534Y-103499246D01*
X54312814Y-103325315D01*
X54313504Y-103318750D01*
X54307925Y-103265671D01*
X54294232Y-103135385D01*
X54294232Y-103135383D01*
X54293542Y-103128822D01*
X54234527Y-102947194D01*
X54227100Y-102934329D01*
X54180365Y-102853383D01*
X54139040Y-102781806D01*
X54113215Y-102753124D01*
X54099494Y-102737885D01*
X56317000Y-102737885D01*
X56321475Y-102753124D01*
X56322865Y-102754329D01*
X56330548Y-102756000D01*
X56877885Y-102756000D01*
X56893124Y-102751525D01*
X56894329Y-102750135D01*
X56896000Y-102742452D01*
X56896000Y-101520116D01*
X56891525Y-101504877D01*
X56890135Y-101503672D01*
X56882452Y-101502001D01*
X56780331Y-101502001D01*
X56773510Y-101502371D01*
X56722648Y-101507895D01*
X56707396Y-101511521D01*
X56586946Y-101556676D01*
X56571351Y-101565214D01*
X56469276Y-101641715D01*
X56456715Y-101654276D01*
X56380214Y-101756351D01*
X56371676Y-101771946D01*
X56326522Y-101892394D01*
X56322895Y-101907649D01*
X56317369Y-101958514D01*
X56317000Y-101965328D01*
X56317000Y-102737885D01*
X54099494Y-102737885D01*
X54040864Y-102672770D01*
X54010146Y-102608763D01*
X54008500Y-102588460D01*
X54008500Y-101520879D01*
X54028502Y-101452758D01*
X54082158Y-101406265D01*
X54094623Y-101401356D01*
X54191993Y-101368870D01*
X54191995Y-101368869D01*
X54198946Y-101366550D01*
X54349348Y-101273478D01*
X54474305Y-101148303D01*
X54484714Y-101131416D01*
X54563275Y-101003968D01*
X54563276Y-101003966D01*
X54567115Y-100997738D01*
X54608719Y-100872304D01*
X54620632Y-100836389D01*
X54620632Y-100836387D01*
X54622797Y-100829861D01*
X54623638Y-100821658D01*
X54631039Y-100749420D01*
X54633500Y-100725400D01*
X54633500Y-99949600D01*
X54632360Y-99938611D01*
X54623238Y-99850692D01*
X54623237Y-99850688D01*
X54622526Y-99843834D01*
X54618475Y-99831690D01*
X54568868Y-99683002D01*
X54566550Y-99676054D01*
X54473478Y-99525652D01*
X54453661Y-99505869D01*
X54353486Y-99405869D01*
X54348303Y-99400695D01*
X54343765Y-99397898D01*
X54303176Y-99340647D01*
X54299946Y-99269724D01*
X54335572Y-99208313D01*
X54344068Y-99200938D01*
X54354207Y-99192902D01*
X54468739Y-99078171D01*
X54477751Y-99066760D01*
X54562816Y-98928757D01*
X54568963Y-98915576D01*
X54620138Y-98761290D01*
X54623005Y-98747914D01*
X54632672Y-98653562D01*
X54633000Y-98647146D01*
X54633000Y-98534615D01*
X54628525Y-98519376D01*
X54627135Y-98518171D01*
X54619452Y-98516500D01*
X52185116Y-98516500D01*
X52169877Y-98520975D01*
X52168672Y-98522365D01*
X52167001Y-98530048D01*
X52167001Y-98647095D01*
X52167338Y-98653614D01*
X52177257Y-98749206D01*
X52180149Y-98762600D01*
X52231588Y-98916784D01*
X52237761Y-98929962D01*
X52323063Y-99067807D01*
X52332099Y-99079208D01*
X52446828Y-99193738D01*
X52455762Y-99200794D01*
X52496823Y-99258712D01*
X52500053Y-99329635D01*
X52464426Y-99391046D01*
X52456593Y-99397846D01*
X52450652Y-99401522D01*
X52445479Y-99406704D01*
X52402872Y-99449385D01*
X52325695Y-99526697D01*
X52321855Y-99532927D01*
X52321854Y-99532928D01*
X52239005Y-99667334D01*
X52232885Y-99677262D01*
X52226028Y-99697936D01*
X52183667Y-99825652D01*
X52177203Y-99845139D01*
X52176503Y-99851975D01*
X52176502Y-99851978D01*
X52176079Y-99856109D01*
X52166500Y-99949600D01*
X52166500Y-100658261D01*
X52146498Y-100726382D01*
X52129595Y-100747356D01*
X51964318Y-100912633D01*
X51902006Y-100946659D01*
X51831191Y-100941594D01*
X51774355Y-100899047D01*
X51749544Y-100832527D01*
X51749237Y-100821658D01*
X51749344Y-100814528D01*
X51779304Y-98807162D01*
X51791495Y-97990385D01*
X52167000Y-97990385D01*
X52171475Y-98005624D01*
X52172865Y-98006829D01*
X52180548Y-98008500D01*
X53127885Y-98008500D01*
X53143124Y-98004025D01*
X53144329Y-98002635D01*
X53146000Y-97994952D01*
X53146000Y-97990385D01*
X53654000Y-97990385D01*
X53658475Y-98005624D01*
X53659865Y-98006829D01*
X53667548Y-98008500D01*
X54614884Y-98008500D01*
X54630123Y-98004025D01*
X54631328Y-98002635D01*
X54632999Y-97994952D01*
X54632999Y-97877905D01*
X54632662Y-97871386D01*
X54622743Y-97775794D01*
X54619851Y-97762400D01*
X54568412Y-97608216D01*
X54562239Y-97595038D01*
X54476937Y-97457193D01*
X54467901Y-97445792D01*
X54353171Y-97331261D01*
X54341760Y-97322249D01*
X54203757Y-97237184D01*
X54190576Y-97231037D01*
X54036290Y-97179862D01*
X54022914Y-97176995D01*
X53928562Y-97167328D01*
X53922145Y-97167000D01*
X53672115Y-97167000D01*
X53656876Y-97171475D01*
X53655671Y-97172865D01*
X53654000Y-97180548D01*
X53654000Y-97990385D01*
X53146000Y-97990385D01*
X53146000Y-97185116D01*
X53141525Y-97169877D01*
X53140135Y-97168672D01*
X53132452Y-97167001D01*
X52877905Y-97167001D01*
X52871386Y-97167338D01*
X52775794Y-97177257D01*
X52762400Y-97180149D01*
X52608216Y-97231588D01*
X52595038Y-97237761D01*
X52457193Y-97323063D01*
X52445792Y-97332099D01*
X52331261Y-97446829D01*
X52322249Y-97458240D01*
X52237184Y-97596243D01*
X52231037Y-97609424D01*
X52179862Y-97763710D01*
X52176995Y-97777086D01*
X52167328Y-97871438D01*
X52167000Y-97877855D01*
X52167000Y-97990385D01*
X51791495Y-97990385D01*
X51822425Y-95918112D01*
X51822425Y-95918111D01*
X51822695Y-95900000D01*
X44822695Y-95900000D01*
X44822695Y-100757956D01*
X44802693Y-100826077D01*
X44749037Y-100872570D01*
X44678763Y-100882674D01*
X44614183Y-100853180D01*
X44607600Y-100847051D01*
X43939572Y-100179023D01*
X43939568Y-100179020D01*
X43112751Y-99352203D01*
X42284144Y-98523595D01*
X42250118Y-98461283D01*
X42255183Y-98390467D01*
X42297730Y-98333632D01*
X42364250Y-98308821D01*
X42373239Y-98308500D01*
X43148134Y-98308500D01*
X43210316Y-98301745D01*
X43346705Y-98250615D01*
X43463261Y-98163261D01*
X43550615Y-98046705D01*
X43601745Y-97910316D01*
X43608500Y-97848134D01*
X43608500Y-96251866D01*
X43601745Y-96189684D01*
X43550615Y-96053295D01*
X43463261Y-95936739D01*
X43346705Y-95849385D01*
X43210316Y-95798255D01*
X43148134Y-95791500D01*
X42051866Y-95791500D01*
X41989684Y-95798255D01*
X41960787Y-95809088D01*
X41861699Y-95846234D01*
X41861696Y-95846236D01*
X41853295Y-95849385D01*
X41852976Y-95848534D01*
X41791151Y-95862055D01*
X41746834Y-95849042D01*
X41746705Y-95849385D01*
X41742019Y-95847628D01*
X41742015Y-95847627D01*
X41738304Y-95846236D01*
X41738301Y-95846234D01*
X41639213Y-95809088D01*
X41610316Y-95798255D01*
X41548134Y-95791500D01*
X40673239Y-95791500D01*
X40605118Y-95771498D01*
X40558625Y-95717842D01*
X40548521Y-95647568D01*
X40578015Y-95582988D01*
X40584144Y-95576405D01*
X40815144Y-95345405D01*
X40877456Y-95311379D01*
X40904239Y-95308500D01*
X54795761Y-95308500D01*
X54863882Y-95328502D01*
X54884856Y-95345405D01*
X55054595Y-95515144D01*
X55088621Y-95577456D01*
X55091500Y-95604239D01*
X55091500Y-96300400D01*
X55091837Y-96303646D01*
X55091837Y-96303650D01*
X55101537Y-96397134D01*
X55102474Y-96406166D01*
X55158450Y-96573946D01*
X55251522Y-96724348D01*
X55376697Y-96849305D01*
X55382927Y-96853145D01*
X55382928Y-96853146D01*
X55469439Y-96906472D01*
X55527262Y-96942115D01*
X55560520Y-96953146D01*
X55688611Y-96995632D01*
X55688613Y-96995632D01*
X55695139Y-96997797D01*
X55701975Y-96998497D01*
X55701978Y-96998498D01*
X55745031Y-97002909D01*
X55799600Y-97008500D01*
X56495761Y-97008500D01*
X56563882Y-97028502D01*
X56584856Y-97045405D01*
X57454595Y-97915144D01*
X57488621Y-97977456D01*
X57491500Y-98004239D01*
X57491500Y-98103934D01*
X57471498Y-98172055D01*
X57441068Y-98204758D01*
X57411739Y-98226739D01*
X57324385Y-98343295D01*
X57273255Y-98479684D01*
X57266500Y-98541866D01*
X57266500Y-100638134D01*
X57273255Y-100700316D01*
X57324385Y-100836705D01*
X57411739Y-100953261D01*
X57528295Y-101040615D01*
X57664684Y-101091745D01*
X57726866Y-101098500D01*
X58473134Y-101098500D01*
X58535316Y-101091745D01*
X58671705Y-101040615D01*
X58788261Y-100953261D01*
X58875615Y-100836705D01*
X58926745Y-100700316D01*
X58933500Y-100638134D01*
X58933500Y-98541866D01*
X58926745Y-98479684D01*
X58875615Y-98343295D01*
X58788261Y-98226739D01*
X58758933Y-98204759D01*
X58716420Y-98147900D01*
X58708500Y-98103934D01*
X58708500Y-97748134D01*
X58709577Y-97731696D01*
X58713750Y-97700000D01*
X58708500Y-97660120D01*
X58708500Y-97660115D01*
X58708115Y-97657193D01*
X58693915Y-97549328D01*
X58693914Y-97549325D01*
X58692838Y-97541150D01*
X58692569Y-97540500D01*
X58688878Y-97531588D01*
X58661057Y-97464423D01*
X58653468Y-97393833D01*
X58685247Y-97330346D01*
X58746306Y-97294119D01*
X58817257Y-97296653D01*
X58866561Y-97327110D01*
X61340685Y-99801234D01*
X61351552Y-99813625D01*
X61371013Y-99838987D01*
X61377563Y-99844013D01*
X61402921Y-99863471D01*
X61402937Y-99863485D01*
X61445646Y-99896256D01*
X61498124Y-99936524D01*
X61646149Y-99997838D01*
X61654334Y-99998915D01*
X61654336Y-99998916D01*
X61660172Y-99999684D01*
X61728671Y-100008702D01*
X61765115Y-100013500D01*
X61765116Y-100013500D01*
X61765126Y-100013501D01*
X61796811Y-100017672D01*
X61805000Y-100018750D01*
X61836693Y-100014578D01*
X61853136Y-100013500D01*
X62684234Y-100013500D01*
X62752355Y-100033502D01*
X62791952Y-100074133D01*
X62873377Y-100208317D01*
X62876874Y-100212347D01*
X63020148Y-100377456D01*
X63024477Y-100382445D01*
X63028608Y-100385832D01*
X63198627Y-100525240D01*
X63198633Y-100525244D01*
X63202755Y-100528624D01*
X63207398Y-100531267D01*
X63234735Y-100546829D01*
X63284041Y-100597912D01*
X63297902Y-100667542D01*
X63271918Y-100733613D01*
X63242768Y-100760851D01*
X63125422Y-100839852D01*
X63117130Y-100846519D01*
X62958100Y-100998228D01*
X62951059Y-101006186D01*
X62819859Y-101182525D01*
X62814255Y-101191562D01*
X62714643Y-101387484D01*
X62710643Y-101397335D01*
X62645466Y-101607240D01*
X62643183Y-101617624D01*
X62641139Y-101633043D01*
X62643335Y-101647207D01*
X62656522Y-101651000D01*
X65541192Y-101651000D01*
X65554723Y-101647027D01*
X65556248Y-101636420D01*
X65531523Y-101518579D01*
X65528463Y-101508383D01*
X65447737Y-101303971D01*
X65443006Y-101294439D01*
X65328984Y-101106538D01*
X65322719Y-101097947D01*
X65178673Y-100931948D01*
X65171042Y-100924528D01*
X65001089Y-100785174D01*
X64992326Y-100779152D01*
X64965289Y-100763762D01*
X64915982Y-100712680D01*
X64902120Y-100643049D01*
X64928103Y-100576978D01*
X64957253Y-100549739D01*
X65024836Y-100504239D01*
X65079319Y-100467559D01*
X65084493Y-100462624D01*
X65173771Y-100377456D01*
X65246135Y-100308424D01*
X65383754Y-100123458D01*
X65389896Y-100111379D01*
X65445066Y-100002866D01*
X65488240Y-99917949D01*
X65491020Y-99908998D01*
X65555024Y-99702871D01*
X65556607Y-99697773D01*
X65558754Y-99681572D01*
X65586198Y-99474511D01*
X65586198Y-99474506D01*
X65586898Y-99469226D01*
X65585453Y-99430721D01*
X65581689Y-99330462D01*
X65578249Y-99238842D01*
X65576076Y-99228483D01*
X65553459Y-99120692D01*
X65530907Y-99013209D01*
X65528659Y-99007516D01*
X65448185Y-98803744D01*
X65448184Y-98803742D01*
X65446224Y-98798779D01*
X65441807Y-98791499D01*
X65329390Y-98606243D01*
X65326623Y-98601683D01*
X65289129Y-98558475D01*
X65179023Y-98431588D01*
X65179021Y-98431586D01*
X65175523Y-98427555D01*
X65139880Y-98398330D01*
X65099886Y-98339671D01*
X65097954Y-98268701D01*
X65134698Y-98207952D01*
X65153468Y-98193752D01*
X65293120Y-98107332D01*
X65299348Y-98103478D01*
X65424305Y-97978303D01*
X65440488Y-97952049D01*
X65513275Y-97833968D01*
X65513276Y-97833966D01*
X65517115Y-97827738D01*
X65552655Y-97720589D01*
X65570632Y-97666389D01*
X65570632Y-97666387D01*
X65572797Y-97659861D01*
X65573999Y-97648136D01*
X65577965Y-97609424D01*
X65583500Y-97555400D01*
X65583500Y-96254600D01*
X65582546Y-96245405D01*
X65573238Y-96155692D01*
X65573237Y-96155688D01*
X65572526Y-96148834D01*
X65570047Y-96141402D01*
X65518868Y-95988002D01*
X65516550Y-95981054D01*
X65423478Y-95830652D01*
X65298303Y-95705695D01*
X65292072Y-95701854D01*
X65153968Y-95616725D01*
X65153966Y-95616724D01*
X65147738Y-95612885D01*
X65037754Y-95576405D01*
X64986389Y-95559368D01*
X64986387Y-95559368D01*
X64979861Y-95557203D01*
X64973025Y-95556503D01*
X64973022Y-95556502D01*
X64927206Y-95551808D01*
X64875400Y-95546500D01*
X63324600Y-95546500D01*
X63321354Y-95546837D01*
X63321350Y-95546837D01*
X63225692Y-95556762D01*
X63225688Y-95556763D01*
X63218834Y-95557474D01*
X63212298Y-95559655D01*
X63212296Y-95559655D01*
X63142359Y-95582988D01*
X63051054Y-95613450D01*
X62900652Y-95706522D01*
X62775695Y-95831697D01*
X62771855Y-95837927D01*
X62771854Y-95837928D01*
X62694421Y-95963548D01*
X62682885Y-95982262D01*
X62627203Y-96150139D01*
X62616500Y-96254600D01*
X62616500Y-97555400D01*
X62616837Y-97558646D01*
X62616837Y-97558650D01*
X62625879Y-97645792D01*
X62627474Y-97661166D01*
X62629655Y-97667702D01*
X62629655Y-97667704D01*
X62661248Y-97762400D01*
X62683450Y-97828946D01*
X62776522Y-97979348D01*
X62781704Y-97984521D01*
X62805725Y-98008500D01*
X62901697Y-98104305D01*
X62907927Y-98108145D01*
X62907928Y-98108146D01*
X62912028Y-98110673D01*
X63047340Y-98194081D01*
X63094832Y-98246852D01*
X63106256Y-98316924D01*
X63077982Y-98382048D01*
X63068195Y-98392510D01*
X63041000Y-98418453D01*
X62953865Y-98501576D01*
X62950682Y-98505854D01*
X62937482Y-98523595D01*
X62816246Y-98686542D01*
X62799553Y-98719376D01*
X62795369Y-98727605D01*
X62746666Y-98779263D01*
X62683052Y-98796500D01*
X62109239Y-98796500D01*
X62041118Y-98776498D01*
X62020144Y-98759595D01*
X59345405Y-96084856D01*
X59311379Y-96022544D01*
X59308500Y-95995761D01*
X59308500Y-95299600D01*
X59297526Y-95193834D01*
X59292533Y-95178866D01*
X59243868Y-95033002D01*
X59241550Y-95026054D01*
X59148478Y-94875652D01*
X59023303Y-94750695D01*
X58903257Y-94676697D01*
X58878968Y-94661725D01*
X58878966Y-94661724D01*
X58872738Y-94657885D01*
X58712254Y-94604655D01*
X58711389Y-94604368D01*
X58711387Y-94604368D01*
X58704861Y-94602203D01*
X58698025Y-94601503D01*
X58698022Y-94601502D01*
X58654969Y-94597091D01*
X58600400Y-94591500D01*
X57799600Y-94591500D01*
X57796354Y-94591837D01*
X57796350Y-94591837D01*
X57700692Y-94601762D01*
X57700688Y-94601763D01*
X57693834Y-94602474D01*
X57687298Y-94604655D01*
X57687296Y-94604655D01*
X57555194Y-94648728D01*
X57526054Y-94658450D01*
X57375652Y-94751522D01*
X57370479Y-94756704D01*
X57289216Y-94838109D01*
X57226934Y-94872188D01*
X57156114Y-94867185D01*
X57111025Y-94838264D01*
X57028483Y-94755866D01*
X57023303Y-94750695D01*
X56903257Y-94676697D01*
X56878968Y-94661725D01*
X56878966Y-94661724D01*
X56872738Y-94657885D01*
X56712254Y-94604655D01*
X56711389Y-94604368D01*
X56711387Y-94604368D01*
X56704861Y-94602203D01*
X56698025Y-94601503D01*
X56698022Y-94601502D01*
X56654969Y-94597091D01*
X56600400Y-94591500D01*
X55904240Y-94591500D01*
X55836119Y-94571498D01*
X55815145Y-94554596D01*
X55564318Y-94303770D01*
X55553450Y-94291377D01*
X55539018Y-94272568D01*
X55539012Y-94272562D01*
X55533987Y-94266013D01*
X55502075Y-94241526D01*
X55502072Y-94241523D01*
X55502064Y-94241517D01*
X55413429Y-94173504D01*
X55413427Y-94173503D01*
X55406876Y-94168476D01*
X55258851Y-94107162D01*
X55250664Y-94106084D01*
X55250663Y-94106084D01*
X55239458Y-94104609D01*
X55208262Y-94100502D01*
X55139885Y-94091500D01*
X55139882Y-94091500D01*
X55139874Y-94091499D01*
X55108189Y-94087328D01*
X55100000Y-94086250D01*
X55068307Y-94090422D01*
X55051864Y-94091500D01*
X40648136Y-94091500D01*
X40631690Y-94090422D01*
X40608188Y-94087328D01*
X40600000Y-94086250D01*
X40591812Y-94087328D01*
X40560129Y-94091499D01*
X40560120Y-94091500D01*
X40560115Y-94091500D01*
X40441150Y-94107162D01*
X40293125Y-94168476D01*
X40293123Y-94168477D01*
X40293124Y-94168477D01*
X40197928Y-94241523D01*
X40197925Y-94241526D01*
X40166013Y-94266013D01*
X40160983Y-94272568D01*
X40146548Y-94291379D01*
X40135681Y-94303770D01*
X39003766Y-95435685D01*
X38991375Y-95446552D01*
X38966013Y-95466013D01*
X38941526Y-95497925D01*
X38941523Y-95497928D01*
X38937719Y-95502885D01*
X38876254Y-95582988D01*
X38868476Y-95593124D01*
X38807162Y-95741149D01*
X38805153Y-95740317D01*
X38779737Y-95788903D01*
X38733295Y-95819394D01*
X38661705Y-95846232D01*
X38661704Y-95846233D01*
X38653295Y-95849385D01*
X38536739Y-95936739D01*
X38449385Y-96053295D01*
X38398255Y-96189684D01*
X38391500Y-96251866D01*
X38391500Y-97848134D01*
X38398255Y-97910316D01*
X38449385Y-98046705D01*
X38536739Y-98163261D01*
X38653295Y-98250615D01*
X38789684Y-98301745D01*
X38851866Y-98308500D01*
X39948134Y-98308500D01*
X40010316Y-98301745D01*
X40098461Y-98268701D01*
X40138301Y-98253766D01*
X40138304Y-98253764D01*
X40146705Y-98250615D01*
X40147024Y-98251466D01*
X40208849Y-98237945D01*
X40253166Y-98250958D01*
X40253294Y-98250615D01*
X40257976Y-98252370D01*
X40261697Y-98253765D01*
X40261701Y-98253767D01*
X40380169Y-98298178D01*
X40436934Y-98340819D01*
X40452349Y-98367942D01*
X40468476Y-98406876D01*
X40473503Y-98413427D01*
X40473504Y-98413429D01*
X40541520Y-98502069D01*
X40541526Y-98502075D01*
X40566013Y-98533987D01*
X40572568Y-98539017D01*
X40591379Y-98553452D01*
X40603770Y-98564319D01*
X41663604Y-99624152D01*
X42515857Y-100476405D01*
X42549882Y-100538717D01*
X42544818Y-100609532D01*
X42502271Y-100666368D01*
X42435751Y-100691179D01*
X42426762Y-100691500D01*
X42051866Y-100691500D01*
X41989684Y-100698255D01*
X41942414Y-100715976D01*
X41861699Y-100746234D01*
X41861696Y-100746236D01*
X41853295Y-100749385D01*
X41853036Y-100748693D01*
X41790626Y-100762343D01*
X41746615Y-100749420D01*
X41746462Y-100749828D01*
X41740888Y-100747738D01*
X41738966Y-100747174D01*
X41738061Y-100746679D01*
X41617606Y-100701522D01*
X41602351Y-100697895D01*
X41551486Y-100692369D01*
X41544672Y-100692000D01*
X41272115Y-100692000D01*
X41256876Y-100696475D01*
X41255671Y-100697865D01*
X41254000Y-100705548D01*
X41254000Y-103189884D01*
X41258475Y-103205123D01*
X41259865Y-103206328D01*
X41267548Y-103207999D01*
X41544669Y-103207999D01*
X41551490Y-103207629D01*
X41602352Y-103202105D01*
X41617604Y-103198479D01*
X41738061Y-103153321D01*
X41738966Y-103152826D01*
X41739966Y-103152607D01*
X41746462Y-103150172D01*
X41746814Y-103151110D01*
X41808323Y-103137657D01*
X41853212Y-103150838D01*
X41853295Y-103150615D01*
X41861699Y-103153766D01*
X41861700Y-103153766D01*
X41909730Y-103171772D01*
X41966495Y-103214414D01*
X41991194Y-103280976D01*
X41991500Y-103289754D01*
X41991500Y-107351864D01*
X41990422Y-107368307D01*
X41986250Y-107400000D01*
X41991500Y-107439880D01*
X41991500Y-107439885D01*
X42004609Y-107539457D01*
X42007162Y-107558851D01*
X42067945Y-107705593D01*
X42068476Y-107706876D01*
X42068276Y-107706959D01*
X42083932Y-107771494D01*
X42060712Y-107838586D01*
X42004905Y-107882474D01*
X41958075Y-107891500D01*
X36934500Y-107891500D01*
X36866379Y-107871498D01*
X36819886Y-107817842D01*
X36808500Y-107765500D01*
X36808500Y-102748134D01*
X38391500Y-102748134D01*
X38398255Y-102810316D01*
X38449385Y-102946705D01*
X38536739Y-103063261D01*
X38653295Y-103150615D01*
X38661703Y-103153767D01*
X38709730Y-103171772D01*
X38766495Y-103214414D01*
X38791194Y-103280976D01*
X38791500Y-103289754D01*
X38791500Y-104269710D01*
X38771498Y-104337831D01*
X38759136Y-104354020D01*
X38669607Y-104453452D01*
X38660960Y-104463056D01*
X38605483Y-104559144D01*
X38573957Y-104613750D01*
X38565473Y-104628444D01*
X38506458Y-104810072D01*
X38505768Y-104816633D01*
X38505768Y-104816635D01*
X38498056Y-104890013D01*
X38486496Y-105000000D01*
X38487186Y-105006565D01*
X38498980Y-105118774D01*
X38506458Y-105189928D01*
X38565473Y-105371556D01*
X38660960Y-105536944D01*
X38665378Y-105541851D01*
X38665379Y-105541852D01*
X38711825Y-105593435D01*
X38788747Y-105678866D01*
X38943248Y-105791118D01*
X38949276Y-105793802D01*
X38949278Y-105793803D01*
X39111681Y-105866109D01*
X39117712Y-105868794D01*
X39211112Y-105888647D01*
X39298056Y-105907128D01*
X39298061Y-105907128D01*
X39304513Y-105908500D01*
X39495487Y-105908500D01*
X39501939Y-105907128D01*
X39501944Y-105907128D01*
X39588888Y-105888647D01*
X39682288Y-105868794D01*
X39688319Y-105866109D01*
X39850722Y-105793803D01*
X39850724Y-105793802D01*
X39856752Y-105791118D01*
X40011253Y-105678866D01*
X40088175Y-105593435D01*
X40134621Y-105541852D01*
X40134622Y-105541851D01*
X40139040Y-105536944D01*
X40234527Y-105371556D01*
X40293542Y-105189928D01*
X40301021Y-105118774D01*
X40312814Y-105006565D01*
X40313504Y-105000000D01*
X40301944Y-104890013D01*
X40294232Y-104816635D01*
X40294232Y-104816633D01*
X40293542Y-104810072D01*
X40234527Y-104628444D01*
X40226044Y-104613750D01*
X40194517Y-104559144D01*
X40139040Y-104463056D01*
X40130393Y-104453452D01*
X40040864Y-104354020D01*
X40010146Y-104290013D01*
X40008500Y-104269710D01*
X40008500Y-103289754D01*
X40028502Y-103221633D01*
X40082158Y-103175140D01*
X40090270Y-103171772D01*
X40138300Y-103153766D01*
X40138301Y-103153766D01*
X40146705Y-103150615D01*
X40146964Y-103151307D01*
X40209374Y-103137657D01*
X40253385Y-103150580D01*
X40253538Y-103150172D01*
X40259112Y-103152262D01*
X40261034Y-103152826D01*
X40261939Y-103153321D01*
X40382394Y-103198478D01*
X40397649Y-103202105D01*
X40448514Y-103207631D01*
X40455328Y-103208000D01*
X40727885Y-103208000D01*
X40743124Y-103203525D01*
X40744329Y-103202135D01*
X40746000Y-103194452D01*
X40746000Y-100710116D01*
X40741525Y-100694877D01*
X40740135Y-100693672D01*
X40732452Y-100692001D01*
X40455331Y-100692001D01*
X40448510Y-100692371D01*
X40397648Y-100697895D01*
X40382396Y-100701521D01*
X40261939Y-100746679D01*
X40261034Y-100747174D01*
X40260034Y-100747393D01*
X40253538Y-100749828D01*
X40253186Y-100748890D01*
X40191677Y-100762343D01*
X40146788Y-100749162D01*
X40146705Y-100749385D01*
X40143663Y-100748244D01*
X40143656Y-100748242D01*
X40138304Y-100746236D01*
X40138301Y-100746234D01*
X40057586Y-100715976D01*
X40010316Y-100698255D01*
X39948134Y-100691500D01*
X38851866Y-100691500D01*
X38789684Y-100698255D01*
X38653295Y-100749385D01*
X38536739Y-100836739D01*
X38449385Y-100953295D01*
X38398255Y-101089684D01*
X38391500Y-101151866D01*
X38391500Y-102748134D01*
X36808500Y-102748134D01*
X36808500Y-91034500D01*
X36828502Y-90966379D01*
X36882158Y-90919886D01*
X36934500Y-90908500D01*
X255665500Y-90908500D01*
X255733621Y-90928502D01*
G37*
G04 #@! TD.AperFunction*
G04 #@! TA.AperFunction,Conductor*
G36*
X126333621Y-100028502D02*
G01*
X126380114Y-100082158D01*
X126391500Y-100134500D01*
X126391500Y-100565500D01*
X126371498Y-100633621D01*
X126317842Y-100680114D01*
X126265500Y-100691500D01*
X125451866Y-100691500D01*
X125389684Y-100698255D01*
X125342414Y-100715976D01*
X125261699Y-100746234D01*
X125261696Y-100746236D01*
X125253295Y-100749385D01*
X125253036Y-100748693D01*
X125190626Y-100762343D01*
X125146615Y-100749420D01*
X125146462Y-100749828D01*
X125140888Y-100747738D01*
X125138966Y-100747174D01*
X125138061Y-100746679D01*
X125017606Y-100701522D01*
X125002351Y-100697895D01*
X124951486Y-100692369D01*
X124944672Y-100692000D01*
X124672115Y-100692000D01*
X124656876Y-100696475D01*
X124655671Y-100697865D01*
X124654000Y-100705548D01*
X124654000Y-103189884D01*
X124658475Y-103205123D01*
X124659865Y-103206328D01*
X124667548Y-103207999D01*
X124944669Y-103207999D01*
X124951490Y-103207629D01*
X125002352Y-103202105D01*
X125017604Y-103198479D01*
X125138061Y-103153321D01*
X125138966Y-103152826D01*
X125139966Y-103152607D01*
X125146462Y-103150172D01*
X125146814Y-103151110D01*
X125208323Y-103137657D01*
X125253212Y-103150838D01*
X125253295Y-103150615D01*
X125261699Y-103153766D01*
X125261700Y-103153766D01*
X125309730Y-103171772D01*
X125366495Y-103214414D01*
X125391194Y-103280976D01*
X125391500Y-103289754D01*
X125391500Y-103551864D01*
X125390422Y-103568307D01*
X125386250Y-103600000D01*
X125391500Y-103639880D01*
X125391500Y-103639885D01*
X125402383Y-103722544D01*
X125403889Y-103733984D01*
X125403889Y-103733987D01*
X125404551Y-103739013D01*
X125407162Y-103758851D01*
X125468476Y-103906876D01*
X125473503Y-103913427D01*
X125473504Y-103913429D01*
X125541520Y-104002069D01*
X125541526Y-104002075D01*
X125566013Y-104033987D01*
X125572567Y-104039016D01*
X125572568Y-104039017D01*
X125591379Y-104053452D01*
X125603770Y-104064319D01*
X125935685Y-104396234D01*
X125946552Y-104408625D01*
X125966013Y-104433987D01*
X125997925Y-104458474D01*
X125997928Y-104458477D01*
X126049342Y-104497928D01*
X126093125Y-104531524D01*
X126241150Y-104592838D01*
X126360115Y-104608500D01*
X126360120Y-104608500D01*
X126360129Y-104608501D01*
X126391812Y-104612672D01*
X126400000Y-104613750D01*
X126431693Y-104609578D01*
X126448136Y-104608500D01*
X152351857Y-104608500D01*
X152368303Y-104609578D01*
X152400000Y-104613751D01*
X152408188Y-104612673D01*
X152439885Y-104608500D01*
X152550662Y-104593916D01*
X152558850Y-104592838D01*
X152706875Y-104531524D01*
X152794458Y-104464319D01*
X152827434Y-104439016D01*
X152827437Y-104439013D01*
X152833987Y-104433987D01*
X152931524Y-104306876D01*
X152939086Y-104288621D01*
X152976982Y-104197130D01*
X153004296Y-104156253D01*
X153296234Y-103864315D01*
X153308625Y-103853448D01*
X153327437Y-103839013D01*
X153333987Y-103833987D01*
X153358474Y-103802075D01*
X153358478Y-103802071D01*
X153431524Y-103706876D01*
X153492838Y-103558851D01*
X153496248Y-103532949D01*
X153508500Y-103439885D01*
X153508500Y-103439880D01*
X153513750Y-103400000D01*
X153509577Y-103368302D01*
X153508500Y-103351864D01*
X153508500Y-103289754D01*
X153528502Y-103221633D01*
X153582158Y-103175140D01*
X153590270Y-103171772D01*
X153638300Y-103153766D01*
X153638301Y-103153766D01*
X153646705Y-103150615D01*
X153646964Y-103151307D01*
X153709374Y-103137657D01*
X153753385Y-103150580D01*
X153753538Y-103150172D01*
X153759112Y-103152262D01*
X153761034Y-103152826D01*
X153761939Y-103153321D01*
X153882394Y-103198478D01*
X153897649Y-103202105D01*
X153948514Y-103207631D01*
X153955328Y-103208000D01*
X154227885Y-103208000D01*
X154243124Y-103203525D01*
X154244329Y-103202135D01*
X154246000Y-103194452D01*
X154246000Y-100710116D01*
X154241525Y-100694877D01*
X154240135Y-100693672D01*
X154232452Y-100692001D01*
X153955331Y-100692001D01*
X153948510Y-100692371D01*
X153897648Y-100697895D01*
X153882396Y-100701521D01*
X153761939Y-100746679D01*
X153761034Y-100747174D01*
X153760034Y-100747393D01*
X153753538Y-100749828D01*
X153753186Y-100748890D01*
X153691677Y-100762343D01*
X153646788Y-100749162D01*
X153646705Y-100749385D01*
X153638297Y-100746233D01*
X153590270Y-100728228D01*
X153533505Y-100685586D01*
X153508806Y-100619024D01*
X153508500Y-100610246D01*
X153508500Y-100204239D01*
X153528502Y-100136118D01*
X153545405Y-100115144D01*
X153615144Y-100045405D01*
X153677456Y-100011379D01*
X153704239Y-100008500D01*
X155995761Y-100008500D01*
X156063882Y-100028502D01*
X156084856Y-100045405D01*
X156454595Y-100415144D01*
X156488621Y-100477456D01*
X156491500Y-100504239D01*
X156491500Y-100565500D01*
X156471498Y-100633621D01*
X156417842Y-100680114D01*
X156365500Y-100691500D01*
X155551866Y-100691500D01*
X155489684Y-100698255D01*
X155442414Y-100715976D01*
X155361699Y-100746234D01*
X155361696Y-100746236D01*
X155353295Y-100749385D01*
X155353036Y-100748693D01*
X155290626Y-100762343D01*
X155246615Y-100749420D01*
X155246462Y-100749828D01*
X155240888Y-100747738D01*
X155238966Y-100747174D01*
X155238061Y-100746679D01*
X155117606Y-100701522D01*
X155102351Y-100697895D01*
X155051486Y-100692369D01*
X155044672Y-100692000D01*
X154772115Y-100692000D01*
X154756876Y-100696475D01*
X154755671Y-100697865D01*
X154754000Y-100705548D01*
X154754000Y-103189884D01*
X154758475Y-103205123D01*
X154759865Y-103206328D01*
X154767548Y-103207999D01*
X155044669Y-103207999D01*
X155051490Y-103207629D01*
X155102352Y-103202105D01*
X155117604Y-103198479D01*
X155238061Y-103153321D01*
X155238966Y-103152826D01*
X155239966Y-103152607D01*
X155246462Y-103150172D01*
X155246814Y-103151110D01*
X155308323Y-103137657D01*
X155353212Y-103150838D01*
X155353295Y-103150615D01*
X155361699Y-103153766D01*
X155361700Y-103153766D01*
X155409730Y-103171772D01*
X155466495Y-103214414D01*
X155491194Y-103280976D01*
X155491500Y-103289754D01*
X155491500Y-103551864D01*
X155490422Y-103568307D01*
X155486250Y-103600000D01*
X155491500Y-103639880D01*
X155491500Y-103639885D01*
X155502383Y-103722544D01*
X155503889Y-103733984D01*
X155503889Y-103733987D01*
X155504551Y-103739013D01*
X155507162Y-103758851D01*
X155568476Y-103906876D01*
X155573503Y-103913427D01*
X155573504Y-103913429D01*
X155641520Y-104002069D01*
X155641526Y-104002075D01*
X155666013Y-104033987D01*
X155672563Y-104039013D01*
X155672566Y-104039016D01*
X155684452Y-104048136D01*
X155724157Y-104099880D01*
X155768476Y-104206875D01*
X155812226Y-104263891D01*
X155860984Y-104327434D01*
X155860987Y-104327437D01*
X155866013Y-104333987D01*
X155872563Y-104339013D01*
X155872564Y-104339014D01*
X155924209Y-104378643D01*
X155993124Y-104431524D01*
X156000750Y-104434683D01*
X156000752Y-104434684D01*
X156133520Y-104489678D01*
X156133523Y-104489679D01*
X156141150Y-104492838D01*
X156300000Y-104513751D01*
X156308188Y-104512673D01*
X156312503Y-104512105D01*
X156331697Y-104509578D01*
X156348143Y-104508500D01*
X182751864Y-104508500D01*
X182768307Y-104509578D01*
X182800000Y-104513750D01*
X182808189Y-104512672D01*
X182839874Y-104508501D01*
X182839884Y-104508500D01*
X182839885Y-104508500D01*
X182839901Y-104508498D01*
X182939457Y-104495391D01*
X182950664Y-104493916D01*
X182950666Y-104493915D01*
X182958851Y-104492838D01*
X183106876Y-104431524D01*
X183114795Y-104425448D01*
X183202072Y-104358477D01*
X183202075Y-104358474D01*
X183233987Y-104333987D01*
X183243850Y-104321134D01*
X183253452Y-104308621D01*
X183264319Y-104296230D01*
X183396234Y-104164315D01*
X183408625Y-104153448D01*
X183427437Y-104139013D01*
X183433987Y-104133987D01*
X183458474Y-104102075D01*
X183458478Y-104102071D01*
X183531524Y-104006876D01*
X183592838Y-103858851D01*
X183613751Y-103700000D01*
X183609578Y-103668301D01*
X183608500Y-103651856D01*
X183608500Y-103289754D01*
X183628502Y-103221633D01*
X183682158Y-103175140D01*
X183690270Y-103171772D01*
X183738300Y-103153766D01*
X183738301Y-103153766D01*
X183746705Y-103150615D01*
X183746964Y-103151307D01*
X183809374Y-103137657D01*
X183853385Y-103150580D01*
X183853538Y-103150172D01*
X183859112Y-103152262D01*
X183861034Y-103152826D01*
X183861939Y-103153321D01*
X183982394Y-103198478D01*
X183997649Y-103202105D01*
X184048514Y-103207631D01*
X184055328Y-103208000D01*
X184327885Y-103208000D01*
X184343124Y-103203525D01*
X184344329Y-103202135D01*
X184346000Y-103194452D01*
X184346000Y-100710116D01*
X184341525Y-100694877D01*
X184340135Y-100693672D01*
X184332452Y-100692001D01*
X184055331Y-100692001D01*
X184048510Y-100692371D01*
X183997648Y-100697895D01*
X183982396Y-100701521D01*
X183861939Y-100746679D01*
X183861034Y-100747174D01*
X183860034Y-100747393D01*
X183853538Y-100749828D01*
X183853186Y-100748890D01*
X183791677Y-100762343D01*
X183746788Y-100749162D01*
X183746705Y-100749385D01*
X183738297Y-100746233D01*
X183690270Y-100728228D01*
X183633505Y-100685586D01*
X183608806Y-100619024D01*
X183608500Y-100610246D01*
X183608500Y-100304239D01*
X183628502Y-100236118D01*
X183645405Y-100215144D01*
X183715144Y-100145405D01*
X183777456Y-100111379D01*
X183804239Y-100108500D01*
X186395761Y-100108500D01*
X186463882Y-100128502D01*
X186484856Y-100145405D01*
X186654595Y-100315144D01*
X186688621Y-100377456D01*
X186691500Y-100404239D01*
X186691500Y-100565500D01*
X186671498Y-100633621D01*
X186617842Y-100680114D01*
X186565500Y-100691500D01*
X185651866Y-100691500D01*
X185589684Y-100698255D01*
X185542414Y-100715976D01*
X185461699Y-100746234D01*
X185461696Y-100746236D01*
X185453295Y-100749385D01*
X185453036Y-100748693D01*
X185390626Y-100762343D01*
X185346615Y-100749420D01*
X185346462Y-100749828D01*
X185340888Y-100747738D01*
X185338966Y-100747174D01*
X185338061Y-100746679D01*
X185217606Y-100701522D01*
X185202351Y-100697895D01*
X185151486Y-100692369D01*
X185144672Y-100692000D01*
X184872115Y-100692000D01*
X184856876Y-100696475D01*
X184855671Y-100697865D01*
X184854000Y-100705548D01*
X184854000Y-103189884D01*
X184858475Y-103205123D01*
X184859865Y-103206328D01*
X184867548Y-103207999D01*
X185144669Y-103207999D01*
X185151490Y-103207629D01*
X185202352Y-103202105D01*
X185217604Y-103198479D01*
X185338061Y-103153321D01*
X185338966Y-103152826D01*
X185339966Y-103152607D01*
X185346462Y-103150172D01*
X185346814Y-103151110D01*
X185408323Y-103137657D01*
X185453212Y-103150838D01*
X185453295Y-103150615D01*
X185461699Y-103153766D01*
X185461700Y-103153766D01*
X185509730Y-103171772D01*
X185566495Y-103214414D01*
X185591194Y-103280976D01*
X185591500Y-103289754D01*
X185591500Y-103551864D01*
X185590422Y-103568307D01*
X185586250Y-103600000D01*
X185591500Y-103639880D01*
X185591500Y-103639885D01*
X185602383Y-103722544D01*
X185603889Y-103733984D01*
X185603889Y-103733987D01*
X185604551Y-103739013D01*
X185607162Y-103758851D01*
X185668476Y-103906876D01*
X185673503Y-103913427D01*
X185673504Y-103913429D01*
X185741520Y-104002069D01*
X185741526Y-104002075D01*
X185766013Y-104033987D01*
X185772567Y-104039016D01*
X185772568Y-104039017D01*
X185791379Y-104053452D01*
X185803770Y-104064319D01*
X186035685Y-104296234D01*
X186046552Y-104308625D01*
X186066013Y-104333987D01*
X186072563Y-104339013D01*
X186097925Y-104358474D01*
X186097928Y-104358477D01*
X186185206Y-104425448D01*
X186193124Y-104431524D01*
X186341149Y-104492838D01*
X186349336Y-104493916D01*
X186349337Y-104493916D01*
X186360542Y-104495391D01*
X186379813Y-104497928D01*
X186460115Y-104508500D01*
X186460118Y-104508500D01*
X186460126Y-104508501D01*
X186491811Y-104512672D01*
X186500000Y-104513750D01*
X186531693Y-104509578D01*
X186548136Y-104508500D01*
X215751864Y-104508500D01*
X215768307Y-104509578D01*
X215800000Y-104513750D01*
X215808189Y-104512672D01*
X215839874Y-104508501D01*
X215839884Y-104508500D01*
X215839885Y-104508500D01*
X215839901Y-104508498D01*
X215939457Y-104495391D01*
X215950664Y-104493916D01*
X215950666Y-104493915D01*
X215958851Y-104492838D01*
X216106876Y-104431524D01*
X216114795Y-104425448D01*
X216202072Y-104358477D01*
X216202075Y-104358474D01*
X216233987Y-104333987D01*
X216243850Y-104321134D01*
X216253452Y-104308621D01*
X216264319Y-104296230D01*
X216496234Y-104064315D01*
X216508625Y-104053448D01*
X216527437Y-104039013D01*
X216533987Y-104033987D01*
X216558474Y-104002075D01*
X216558480Y-104002069D01*
X216626496Y-103913429D01*
X216626497Y-103913427D01*
X216631524Y-103906876D01*
X216692838Y-103758851D01*
X216696111Y-103733987D01*
X216708500Y-103639886D01*
X216708500Y-103639880D01*
X216712672Y-103608189D01*
X216713750Y-103600000D01*
X216709578Y-103568307D01*
X216708500Y-103551864D01*
X216708500Y-103289754D01*
X216728502Y-103221633D01*
X216782158Y-103175140D01*
X216790270Y-103171772D01*
X216838300Y-103153766D01*
X216838301Y-103153766D01*
X216846705Y-103150615D01*
X216846964Y-103151307D01*
X216909374Y-103137657D01*
X216953385Y-103150580D01*
X216953538Y-103150172D01*
X216959112Y-103152262D01*
X216961034Y-103152826D01*
X216961939Y-103153321D01*
X217082394Y-103198478D01*
X217097649Y-103202105D01*
X217148514Y-103207631D01*
X217155328Y-103208000D01*
X217427885Y-103208000D01*
X217443124Y-103203525D01*
X217444329Y-103202135D01*
X217446000Y-103194452D01*
X217446000Y-100710116D01*
X217441525Y-100694877D01*
X217440135Y-100693672D01*
X217432452Y-100692001D01*
X217155331Y-100692001D01*
X217148510Y-100692371D01*
X217097648Y-100697895D01*
X217082396Y-100701521D01*
X216961939Y-100746679D01*
X216961034Y-100747174D01*
X216960034Y-100747393D01*
X216953538Y-100749828D01*
X216953186Y-100748890D01*
X216891677Y-100762343D01*
X216846788Y-100749162D01*
X216846705Y-100749385D01*
X216838297Y-100746233D01*
X216790270Y-100728228D01*
X216733505Y-100685586D01*
X216708806Y-100619024D01*
X216708500Y-100610246D01*
X216708500Y-100404239D01*
X216728502Y-100336118D01*
X216745405Y-100315144D01*
X216915144Y-100145405D01*
X216977456Y-100111379D01*
X217004239Y-100108500D01*
X219865500Y-100108500D01*
X219933621Y-100128502D01*
X219980114Y-100182158D01*
X219991500Y-100234500D01*
X219991500Y-100566645D01*
X219971498Y-100634766D01*
X219917842Y-100681259D01*
X219854963Y-100691414D01*
X219854928Y-100692053D01*
X219851993Y-100691894D01*
X219851900Y-100691909D01*
X219851533Y-100691869D01*
X219851529Y-100691869D01*
X219848134Y-100691500D01*
X218751866Y-100691500D01*
X218689684Y-100698255D01*
X218642414Y-100715976D01*
X218561699Y-100746234D01*
X218561696Y-100746236D01*
X218553295Y-100749385D01*
X218553036Y-100748693D01*
X218490626Y-100762343D01*
X218446615Y-100749420D01*
X218446462Y-100749828D01*
X218440888Y-100747738D01*
X218438966Y-100747174D01*
X218438061Y-100746679D01*
X218317606Y-100701522D01*
X218302351Y-100697895D01*
X218251486Y-100692369D01*
X218244672Y-100692000D01*
X217972115Y-100692000D01*
X217956876Y-100696475D01*
X217955671Y-100697865D01*
X217954000Y-100705548D01*
X217954000Y-103189884D01*
X217958475Y-103205123D01*
X217959865Y-103206328D01*
X217967548Y-103207999D01*
X218244669Y-103207999D01*
X218251490Y-103207629D01*
X218302352Y-103202105D01*
X218317604Y-103198479D01*
X218438061Y-103153321D01*
X218438966Y-103152826D01*
X218439966Y-103152607D01*
X218446462Y-103150172D01*
X218446814Y-103151110D01*
X218508323Y-103137657D01*
X218553213Y-103150838D01*
X218553296Y-103150616D01*
X218556329Y-103151753D01*
X218556336Y-103151755D01*
X218561701Y-103153766D01*
X218561704Y-103153768D01*
X218584731Y-103162401D01*
X218641495Y-103205043D01*
X218666194Y-103271605D01*
X218666500Y-103280382D01*
X218666500Y-105021233D01*
X218665973Y-105032416D01*
X218664298Y-105039909D01*
X218664547Y-105047835D01*
X218664547Y-105047836D01*
X218666438Y-105107986D01*
X218666500Y-105111945D01*
X218666500Y-105139856D01*
X218666997Y-105143790D01*
X218666997Y-105143791D01*
X218667005Y-105143856D01*
X218667938Y-105155693D01*
X218669327Y-105199889D01*
X218674978Y-105219339D01*
X218678987Y-105238700D01*
X218681526Y-105258797D01*
X218684445Y-105266168D01*
X218684445Y-105266170D01*
X218697804Y-105299912D01*
X218701649Y-105311142D01*
X218713982Y-105353593D01*
X218718015Y-105360412D01*
X218718017Y-105360417D01*
X218724293Y-105371028D01*
X218732988Y-105388776D01*
X218740448Y-105407617D01*
X218745110Y-105414033D01*
X218745110Y-105414034D01*
X218766436Y-105443387D01*
X218772952Y-105453307D01*
X218774447Y-105455834D01*
X218795458Y-105491362D01*
X218809779Y-105505683D01*
X218822619Y-105520716D01*
X218834528Y-105537107D01*
X218840633Y-105542158D01*
X218840638Y-105542163D01*
X218868604Y-105565299D01*
X218877382Y-105573287D01*
X219480500Y-106176405D01*
X219514526Y-106238717D01*
X219509461Y-106309532D01*
X219466914Y-106366368D01*
X219400394Y-106391179D01*
X219391405Y-106391500D01*
X93492837Y-106391500D01*
X93424716Y-106371498D01*
X93378223Y-106317842D01*
X93368119Y-106247568D01*
X93399199Y-106181192D01*
X93439040Y-106136944D01*
X93534527Y-105971556D01*
X93593542Y-105789928D01*
X93598580Y-105742000D01*
X93612814Y-105606565D01*
X93613504Y-105600000D01*
X93607425Y-105542163D01*
X93594232Y-105416635D01*
X93594232Y-105416633D01*
X93593542Y-105410072D01*
X93534527Y-105228444D01*
X93439040Y-105063056D01*
X93434477Y-105057988D01*
X93340864Y-104954020D01*
X93310146Y-104890013D01*
X93308500Y-104869710D01*
X93308500Y-103289754D01*
X93328502Y-103221633D01*
X93382158Y-103175140D01*
X93390270Y-103171772D01*
X93438300Y-103153766D01*
X93438301Y-103153766D01*
X93446705Y-103150615D01*
X93446964Y-103151307D01*
X93509374Y-103137657D01*
X93553385Y-103150580D01*
X93553538Y-103150172D01*
X93559112Y-103152262D01*
X93561034Y-103152826D01*
X93561939Y-103153321D01*
X93682394Y-103198478D01*
X93697649Y-103202105D01*
X93748514Y-103207631D01*
X93755328Y-103208000D01*
X94027885Y-103208000D01*
X94043124Y-103203525D01*
X94044329Y-103202135D01*
X94046000Y-103194452D01*
X94046000Y-100710116D01*
X94041525Y-100694877D01*
X94040135Y-100693672D01*
X94032452Y-100692001D01*
X93755331Y-100692001D01*
X93748510Y-100692371D01*
X93697648Y-100697895D01*
X93682396Y-100701521D01*
X93561939Y-100746679D01*
X93561034Y-100747174D01*
X93560034Y-100747393D01*
X93553538Y-100749828D01*
X93553186Y-100748890D01*
X93491677Y-100762343D01*
X93446788Y-100749162D01*
X93446705Y-100749385D01*
X93438297Y-100746233D01*
X93390270Y-100728228D01*
X93333505Y-100685586D01*
X93308806Y-100619024D01*
X93308500Y-100610246D01*
X93308500Y-100534500D01*
X93328502Y-100466379D01*
X93382158Y-100419886D01*
X93434500Y-100408500D01*
X95995761Y-100408500D01*
X96063882Y-100428502D01*
X96084856Y-100445405D01*
X96115856Y-100476405D01*
X96149882Y-100538717D01*
X96144817Y-100609532D01*
X96102270Y-100666368D01*
X96035750Y-100691179D01*
X96026761Y-100691500D01*
X95351866Y-100691500D01*
X95289684Y-100698255D01*
X95242414Y-100715976D01*
X95161699Y-100746234D01*
X95161696Y-100746236D01*
X95153295Y-100749385D01*
X95153036Y-100748693D01*
X95090626Y-100762343D01*
X95046615Y-100749420D01*
X95046462Y-100749828D01*
X95040888Y-100747738D01*
X95038966Y-100747174D01*
X95038061Y-100746679D01*
X94917606Y-100701522D01*
X94902351Y-100697895D01*
X94851486Y-100692369D01*
X94844672Y-100692000D01*
X94572115Y-100692000D01*
X94556876Y-100696475D01*
X94555671Y-100697865D01*
X94554000Y-100705548D01*
X94554000Y-103189884D01*
X94558475Y-103205123D01*
X94559865Y-103206328D01*
X94567548Y-103207999D01*
X94844669Y-103207999D01*
X94851490Y-103207629D01*
X94902352Y-103202105D01*
X94917604Y-103198479D01*
X95038061Y-103153321D01*
X95038966Y-103152826D01*
X95039966Y-103152607D01*
X95046462Y-103150172D01*
X95046814Y-103151110D01*
X95108323Y-103137657D01*
X95153212Y-103150836D01*
X95153295Y-103150615D01*
X95215491Y-103173931D01*
X95272256Y-103216572D01*
X95296184Y-103275465D01*
X95298295Y-103291500D01*
X95303889Y-103333987D01*
X95307162Y-103358851D01*
X95368476Y-103506876D01*
X95373503Y-103513427D01*
X95373504Y-103513429D01*
X95441520Y-103602069D01*
X95441526Y-103602075D01*
X95466013Y-103633987D01*
X95472568Y-103639017D01*
X95491379Y-103653452D01*
X95503770Y-103664319D01*
X95595704Y-103756253D01*
X95623018Y-103797130D01*
X95625946Y-103804199D01*
X95668476Y-103906875D01*
X95709333Y-103960120D01*
X95760984Y-104027434D01*
X95760987Y-104027437D01*
X95766013Y-104033987D01*
X95772563Y-104039013D01*
X95772564Y-104039014D01*
X95854746Y-104102075D01*
X95893124Y-104131524D01*
X95900750Y-104134683D01*
X95900752Y-104134684D01*
X96033520Y-104189678D01*
X96033523Y-104189679D01*
X96041150Y-104192838D01*
X96200000Y-104213751D01*
X96208188Y-104212673D01*
X96231697Y-104209578D01*
X96248143Y-104208500D01*
X122551864Y-104208500D01*
X122568307Y-104209578D01*
X122600000Y-104213750D01*
X122608189Y-104212672D01*
X122639874Y-104208501D01*
X122639884Y-104208500D01*
X122639885Y-104208500D01*
X122739457Y-104195391D01*
X122750664Y-104193916D01*
X122750666Y-104193915D01*
X122758851Y-104192838D01*
X122906876Y-104131524D01*
X122921483Y-104120316D01*
X123002072Y-104058477D01*
X123002075Y-104058474D01*
X123027437Y-104039013D01*
X123033987Y-104033987D01*
X123053458Y-104008613D01*
X123064316Y-103996233D01*
X123196234Y-103864315D01*
X123208625Y-103853448D01*
X123227437Y-103839013D01*
X123233987Y-103833987D01*
X123258474Y-103802075D01*
X123258478Y-103802071D01*
X123331524Y-103706876D01*
X123392838Y-103558851D01*
X123413751Y-103400000D01*
X123409578Y-103368301D01*
X123408500Y-103351856D01*
X123408500Y-103289754D01*
X123428502Y-103221633D01*
X123482158Y-103175140D01*
X123490270Y-103171772D01*
X123538300Y-103153766D01*
X123538301Y-103153766D01*
X123546705Y-103150615D01*
X123546964Y-103151307D01*
X123609374Y-103137657D01*
X123653385Y-103150580D01*
X123653538Y-103150172D01*
X123659112Y-103152262D01*
X123661034Y-103152826D01*
X123661939Y-103153321D01*
X123782394Y-103198478D01*
X123797649Y-103202105D01*
X123848514Y-103207631D01*
X123855328Y-103208000D01*
X124127885Y-103208000D01*
X124143124Y-103203525D01*
X124144329Y-103202135D01*
X124146000Y-103194452D01*
X124146000Y-100710116D01*
X124141525Y-100694877D01*
X124140135Y-100693672D01*
X124132452Y-100692001D01*
X123855331Y-100692001D01*
X123848510Y-100692371D01*
X123797648Y-100697895D01*
X123782396Y-100701521D01*
X123661939Y-100746679D01*
X123661034Y-100747174D01*
X123660034Y-100747393D01*
X123653538Y-100749828D01*
X123653186Y-100748890D01*
X123591677Y-100762343D01*
X123546788Y-100749162D01*
X123546705Y-100749385D01*
X123538297Y-100746233D01*
X123490270Y-100728228D01*
X123433505Y-100685586D01*
X123408806Y-100619024D01*
X123408500Y-100610246D01*
X123408500Y-100134500D01*
X123428502Y-100066379D01*
X123482158Y-100019886D01*
X123534500Y-100008500D01*
X126265500Y-100008500D01*
X126333621Y-100028502D01*
G37*
G04 #@! TD.AperFunction*
M02*
